<svg width="24" height="24" viewBox="0 0 24 24" fill="none" xmlns="http://www.w3.org/2000/svg">
<path fill-rule="evenodd" clip-rule="evenodd" d="M21.4912 5H2.50873C1.67684 5 1 5.67684 1 6.50882V12.0385C1 13.4219 2.12547 14.5474 3.50881 14.5474H20.4912C21.8745 14.5474 23 13.4219 23 12.0385V6.50882C22.9999 5.67684 22.3232 5 21.4912 5ZM4.27091 6.21065H19.7291V7.63593C19.7291 8.19629 19.2732 8.65227 18.7128 8.65227H5.28717C4.72681 8.65227 4.27091 8.19637 4.27091 7.63593V6.21065ZM21.7892 12.0385C21.7892 12.7543 21.2069 13.3367 20.491 13.3367H3.50872C2.79297 13.3367 2.21056 12.7544 2.21056 12.0385V6.50882C2.21056 6.34443 2.34425 6.21065 2.50864 6.21065H3.06009V7.63593C3.06009 8.86388 4.05914 9.86292 5.287 9.86292H18.7127C19.9406 9.86292 20.9396 8.86388 20.9396 7.63593V6.21065H21.491C21.6554 6.21065 21.7891 6.34443 21.7891 6.50882V12.0385H21.7892ZM20.3344 10.8H3.66551C3.33119 10.8 3.06018 11.071 3.06018 11.4053C3.06018 11.7396 3.33119 12.0106 3.66551 12.0106H20.3344C20.6687 12.0106 20.9398 11.7396 20.9398 11.4053C20.9398 11.071 20.6687 10.8 20.3344 10.8ZM8.22344 16.4255C8.241 16.436 8.25985 16.447 8.28009 16.4583C8.95295 16.8361 9.12105 17.3112 9.14354 17.6432C9.19836 18.4536 8.43565 19.0541 8.34849 19.1199C8.23936 19.2023 8.11129 19.2421 7.98425 19.2421C7.80084 19.2421 7.61968 19.1591 7.50069 19.0015C7.29929 18.7347 7.35229 18.3552 7.61907 18.1537C7.77767 18.0306 7.94197 17.809 7.93574 17.7249C7.93462 17.7101 7.88697 17.626 7.68747 17.514C7.07065 17.1677 6.78061 16.7582 6.8254 16.297C6.89069 15.6251 7.64423 15.3441 7.79461 15.2946C8.11215 15.1901 8.45425 15.3629 8.55879 15.6804C8.65764 15.9806 8.50847 16.3029 8.22344 16.4255ZM12.2963 16.4583C12.2761 16.447 12.2572 16.436 12.2397 16.4255C12.5247 16.3029 12.6739 15.9806 12.575 15.6804C12.4705 15.3629 12.1285 15.1901 11.8108 15.2946C11.6605 15.3441 10.9069 15.6251 10.8416 16.297C10.7968 16.7582 11.0869 17.1677 11.7037 17.514C11.9032 17.626 11.9508 17.7101 11.952 17.7249C11.9582 17.809 11.7939 18.0306 11.6353 18.1537C11.3685 18.3552 11.3155 18.7347 11.5169 19.0015C11.6359 19.1591 11.8171 19.2421 12.0005 19.2421C12.1275 19.2421 12.2556 19.2023 12.3647 19.1199C12.4519 19.0541 13.2146 18.4536 13.1598 17.6432C13.1373 17.3112 12.9693 16.8361 12.2963 16.4583ZM16.2559 16.4255C16.2734 16.436 16.2923 16.447 16.3125 16.4583C16.9855 16.8361 17.1535 17.3112 17.176 17.6432C17.2308 18.4536 16.4681 19.0541 16.3809 19.1199C16.2718 19.2023 16.1437 19.2421 16.0167 19.2421C15.8333 19.2421 15.6521 19.1591 15.5331 19.0015C15.3317 18.7347 15.3847 18.3552 15.6515 18.1537C15.8101 18.0306 15.9744 17.809 15.9682 17.7249C15.9671 17.7101 15.9194 17.626 15.7199 17.514C15.1031 17.1677 14.8131 16.7582 14.8578 16.297C14.9231 15.6251 15.6767 15.3441 15.8271 15.2946C16.1447 15.1901 16.4867 15.3629 16.5912 15.6804C16.6901 15.9806 16.5409 16.3029 16.2559 16.4255Z" fill="#2D2F35"/>
<path d="M23 6.50882H23.05V6.50881L23 6.50882ZM19.7291 6.21065H19.7791V6.16065H19.7291V6.21065ZM4.27091 6.21065V6.16065H4.22091V6.21065H4.27091ZM21.7892 12.0385H21.8392V11.9885H21.7892V12.0385ZM3.06009 6.21065H3.11009V6.16065H3.06009V6.21065ZM20.9396 6.21065V6.16065H20.8896V6.21065H20.9396ZM21.7891 12.0385H21.7391V12.0885H21.7891V12.0385ZM8.28009 16.4583L8.30456 16.4147L8.30451 16.4147L8.28009 16.4583ZM8.22344 16.4255L8.2037 16.3795L8.11407 16.4181L8.19769 16.4683L8.22344 16.4255ZM9.14354 17.6432L9.19342 17.6398V17.6398L9.14354 17.6432ZM8.34849 19.1199L8.31836 19.08L8.31836 19.08L8.34849 19.1199ZM7.50069 19.0015L7.54059 18.9714L7.54059 18.9714L7.50069 19.0015ZM7.61907 18.1537L7.64921 18.1936L7.64972 18.1932L7.61907 18.1537ZM7.93574 17.7249L7.98561 17.7212L7.9856 17.7211L7.93574 17.7249ZM7.68747 17.514L7.66299 17.5576L7.663 17.5576L7.68747 17.514ZM6.8254 16.297L6.77564 16.2921L6.77564 16.2921L6.8254 16.297ZM7.79461 15.2946L7.81024 15.3421L7.81025 15.3421L7.79461 15.2946ZM8.55879 15.6804L8.60629 15.6648L8.60629 15.6648L8.55879 15.6804ZM12.2397 16.4255L12.2199 16.3795L12.1303 16.4181L12.2139 16.4683L12.2397 16.4255ZM12.2963 16.4583L12.3208 16.4147L12.3207 16.4147L12.2963 16.4583ZM12.575 15.6804L12.6225 15.6648L12.6225 15.6648L12.575 15.6804ZM11.8108 15.2946L11.8265 15.3421L11.8265 15.3421L11.8108 15.2946ZM10.8416 16.297L10.7919 16.2921V16.2921L10.8416 16.297ZM11.7037 17.514L11.6792 17.5576L11.6792 17.5576L11.7037 17.514ZM11.952 17.7249L12.0018 17.7212L12.0018 17.7211L11.952 17.7249ZM11.6353 18.1537L11.6654 18.1936L11.6659 18.1932L11.6353 18.1537ZM11.5169 19.0015L11.5568 18.9714L11.5568 18.9714L11.5169 19.0015ZM12.3647 19.1199L12.3346 19.08L12.3346 19.08L12.3647 19.1199ZM13.1598 17.6432L13.2096 17.6398V17.6398L13.1598 17.6432ZM16.3125 16.4583L16.337 16.4147L16.337 16.4147L16.3125 16.4583ZM16.2559 16.4255L16.2361 16.3795L16.1465 16.4181L16.2301 16.4683L16.2559 16.4255ZM17.176 17.6432L17.2259 17.6398V17.6398L17.176 17.6432ZM16.3809 19.1199L16.3508 19.08L16.3508 19.08L16.3809 19.1199ZM15.5331 19.0015L15.573 18.9714L15.573 18.9714L15.5331 19.0015ZM15.6515 18.1537L15.6817 18.1936L15.6822 18.1932L15.6515 18.1537ZM15.9682 17.7249L16.0181 17.7212L16.018 17.7211L15.9682 17.7249ZM15.7199 17.514L15.6954 17.5576L15.6954 17.5576L15.7199 17.514ZM14.8578 16.297L14.8081 16.2921V16.2921L14.8578 16.297ZM15.8271 15.2946L15.8427 15.3421L15.8427 15.3421L15.8271 15.2946ZM16.5912 15.6804L16.6387 15.6648L16.6387 15.6648L16.5912 15.6804ZM2.50873 5.05H21.4912V4.95H2.50873V5.05ZM1.05 6.50882C1.05 5.70445 1.70446 5.05 2.50873 5.05V4.95C1.64922 4.95 0.95 5.64923 0.95 6.50882H1.05ZM1.05 12.0385V6.50882H0.95V12.0385H1.05ZM3.50881 14.4974C2.15309 14.4974 1.05 13.3943 1.05 12.0385H0.95C0.95 13.4495 2.09786 14.5974 3.50881 14.5974V14.4974ZM20.4912 14.4974H3.50881V14.5974H20.4912V14.4974ZM22.95 12.0385C22.95 13.3943 21.8469 14.4974 20.4912 14.4974V14.5974C21.9021 14.5974 23.05 13.4495 23.05 12.0385H22.95ZM22.95 6.50882V12.0385H23.05V6.50882H22.95ZM21.4912 5.05C22.2955 5.05 22.9499 5.70445 22.95 6.50882L23.05 6.50881C23.0499 5.64923 22.3508 4.95 21.4912 4.95V5.05ZM19.7291 6.16065H4.27091V6.26065H19.7291V6.16065ZM19.7791 7.63593V6.21065H19.6791V7.63593H19.7791ZM18.7128 8.70227C19.3008 8.70227 19.7791 8.2239 19.7791 7.63593H19.6791C19.6791 8.16868 19.2456 8.60227 18.7128 8.60227V8.70227ZM5.28717 8.70227H18.7128V8.60227H5.28717V8.70227ZM4.22091 7.63593C4.22091 8.22399 4.69919 8.70227 5.28717 8.70227V8.60227C4.75443 8.60227 4.32091 8.16876 4.32091 7.63593H4.22091ZM4.22091 6.21065V7.63593H4.32091V6.21065H4.22091ZM20.491 13.3867C21.2345 13.3867 21.8392 12.7819 21.8392 12.0385H21.7392C21.7392 12.7267 21.1792 13.2867 20.491 13.2867V13.3867ZM3.50872 13.3867H20.491V13.2867H3.50872V13.3867ZM2.16056 12.0385C2.16056 12.782 2.76536 13.3867 3.50872 13.3867V13.2867C2.82058 13.2867 2.26056 12.7268 2.26056 12.0385H2.16056ZM2.16056 6.50882V12.0385H2.26056V6.50882H2.16056ZM2.50864 6.16065C2.31662 6.16065 2.16056 6.31683 2.16056 6.50882H2.26056C2.26056 6.37202 2.37189 6.26065 2.50864 6.26065V6.16065ZM3.06009 6.16065H2.50864V6.26065H3.06009V6.16065ZM3.11009 7.63593V6.21065H3.01009V7.63593H3.11009ZM5.287 9.81292C4.08675 9.81292 3.11009 8.83626 3.11009 7.63593H3.01009C3.01009 8.89149 4.03152 9.91292 5.287 9.91292V9.81292ZM18.7127 9.81292H5.287V9.91292H18.7127V9.81292ZM20.8896 7.63593C20.8896 8.83626 19.913 9.81292 18.7127 9.81292V9.91292C19.9682 9.91292 20.9896 8.89149 20.9896 7.63593H20.8896ZM20.8896 6.21065V7.63593H20.9896V6.21065H20.8896ZM21.491 6.16065H20.9396V6.26065H21.491V6.16065ZM21.8391 6.50882C21.8391 6.31683 21.683 6.16065 21.491 6.16065V6.26065C21.6278 6.26065 21.7391 6.37202 21.7391 6.50882H21.8391ZM21.8391 12.0385V6.50882H21.7391V12.0385H21.8391ZM21.7892 11.9885H21.7891V12.0885H21.7892V11.9885ZM3.66551 10.85H20.3344V10.75H3.66551V10.85ZM3.11018 11.4053C3.11018 11.0986 3.35881 10.85 3.66551 10.85V10.75C3.30358 10.75 3.01018 11.0434 3.01018 11.4053H3.11018ZM3.66551 11.9606C3.35881 11.9606 3.11018 11.712 3.11018 11.4053H3.01018C3.01018 11.7673 3.30358 12.0606 3.66551 12.0606V11.9606ZM20.3344 11.9606H3.66551V12.0606H20.3344V11.9606ZM20.8898 11.4053C20.8898 11.712 20.6411 11.9606 20.3344 11.9606V12.0606C20.6964 12.0606 20.9898 11.7673 20.9898 11.4053H20.8898ZM20.3344 10.85C20.6411 10.85 20.8898 11.0986 20.8898 11.4053H20.9898C20.9898 11.0434 20.6964 10.75 20.3344 10.75V10.85ZM8.30451 16.4147C8.28474 16.4036 8.26634 16.3929 8.2492 16.3826L8.19769 16.4683C8.21566 16.4791 8.23495 16.4904 8.25566 16.502L8.30451 16.4147ZM9.19342 17.6398C9.16984 17.2915 8.99262 16.801 8.30456 16.4147L8.25561 16.5019C8.91327 16.8711 9.07227 17.3308 9.09365 17.6466L9.19342 17.6398ZM8.37861 19.1598C8.42411 19.1254 8.64062 18.9556 8.83926 18.6908C9.03762 18.4263 9.22197 18.0618 9.19342 17.6398L9.09365 17.6466C9.11993 18.035 8.95034 18.376 8.75926 18.6308C8.56846 18.8852 8.36003 19.0485 8.31836 19.08L8.37861 19.1598ZM7.98425 19.2921C8.12179 19.2921 8.26052 19.249 8.37862 19.1598L8.31836 19.08C8.21819 19.1556 8.10078 19.1921 7.98425 19.1921V19.2921ZM7.46078 19.0316C7.58962 19.2023 7.78583 19.2921 7.98425 19.2921V19.1921C7.81585 19.1921 7.64974 19.116 7.54059 18.9714L7.46078 19.0316ZM7.58894 18.1138C7.30014 18.3319 7.24274 18.7428 7.46078 19.0316L7.54059 18.9714C7.35583 18.7266 7.40445 18.3784 7.6492 18.1936L7.58894 18.1138ZM7.88588 17.7285C7.88638 17.7354 7.88273 17.7547 7.86633 17.788C7.85104 17.819 7.82791 17.8559 7.79901 17.8949C7.74113 17.9732 7.66351 18.0559 7.58842 18.1142L7.64972 18.1932C7.73323 18.1284 7.81706 18.0387 7.87942 17.9544C7.91064 17.9122 7.93733 17.8701 7.95605 17.8321C7.97366 17.7964 7.98821 17.7564 7.98561 17.7212L7.88588 17.7285ZM7.663 17.5576C7.75971 17.6119 7.8176 17.6583 7.8507 17.6913C7.86728 17.7078 7.87729 17.7206 7.88282 17.729C7.88561 17.7332 7.88698 17.7359 7.88747 17.737C7.88854 17.7393 7.88643 17.7357 7.88589 17.7286L7.9856 17.7211C7.98478 17.7103 7.98093 17.7009 7.9784 17.6953C7.97529 17.6885 7.97119 17.6813 7.96624 17.6738C7.95629 17.6588 7.9417 17.6408 7.92129 17.6205C7.88041 17.5797 7.81474 17.5281 7.71195 17.4704L7.663 17.5576ZM6.77564 16.2921C6.728 16.7827 7.0392 17.2074 7.66299 17.5576L7.71195 17.4704C7.10209 17.128 6.83322 16.7338 6.87517 16.3018L6.77564 16.2921ZM7.77899 15.2471C7.70142 15.2727 7.46972 15.3573 7.24823 15.5223C7.02671 15.6873 6.81016 15.9368 6.77564 16.2921L6.87517 16.3018C6.90593 15.9852 7.0988 15.7583 7.30797 15.6025C7.51717 15.4467 7.73743 15.3661 7.81024 15.3421L7.77899 15.2471ZM8.60629 15.6648C8.49311 15.321 8.12276 15.134 7.77898 15.2472L7.81025 15.3421C8.10154 15.2462 8.41538 15.4047 8.5113 15.696L8.60629 15.6648ZM8.24319 16.4714C8.55179 16.3387 8.71331 15.9899 8.60629 15.6648L8.5113 15.696C8.60196 15.9714 8.46514 16.2671 8.2037 16.3795L8.24319 16.4714ZM12.2139 16.4683C12.2319 16.4791 12.2512 16.4904 12.2719 16.502L12.3207 16.4147C12.301 16.4036 12.2826 16.3929 12.2654 16.3826L12.2139 16.4683ZM12.5275 15.696C12.6182 15.9714 12.4814 16.2671 12.2199 16.3795L12.2594 16.4714C12.568 16.3387 12.7295 15.9899 12.6225 15.6648L12.5275 15.696ZM11.8265 15.3421C12.1179 15.2462 12.4316 15.4047 12.5275 15.696L12.6225 15.6648C12.5093 15.321 12.1392 15.134 11.7952 15.2471L11.8265 15.3421ZM10.8914 16.3018C10.9222 15.9852 11.115 15.7583 11.3242 15.6025C11.5334 15.4467 11.7537 15.3661 11.8265 15.3421L11.7952 15.2471C11.7176 15.2727 11.4859 15.3573 11.2645 15.5223C11.0429 15.6873 10.8264 15.9368 10.7919 16.2921L10.8914 16.3018ZM11.7282 17.4704C11.1183 17.128 10.8494 16.7338 10.8914 16.3018L10.7919 16.2921C10.7442 16.7827 11.0554 17.2074 11.6792 17.5576L11.7282 17.4704ZM12.0018 17.7211C12.001 17.7103 11.9972 17.7009 11.9946 17.6953C11.9915 17.6885 11.9874 17.6813 11.9825 17.6738C11.9725 17.6588 11.9579 17.6408 11.9375 17.6205C11.8966 17.5797 11.831 17.5281 11.7282 17.4704L11.6792 17.5576C11.7759 17.6119 11.8338 17.6583 11.8669 17.6913C11.8835 17.7078 11.8935 17.7206 11.899 17.729C11.9018 17.7332 11.9032 17.7359 11.9037 17.737C11.9048 17.7393 11.9026 17.7357 11.9021 17.7286L12.0018 17.7211ZM11.6659 18.1932C11.7495 18.1284 11.8333 18.0387 11.8956 17.9544C11.9269 17.9122 11.9536 17.8701 11.9723 17.8321C11.9899 17.7964 12.0044 17.7564 12.0018 17.7212L11.9021 17.7285C11.9026 17.7354 11.899 17.7547 11.8826 17.788C11.8673 17.819 11.8441 17.8559 11.8152 17.8949C11.7573 17.9732 11.6797 18.0559 11.6046 18.1142L11.6659 18.1932ZM11.5568 18.9714C11.3721 18.7266 11.4207 18.3784 11.6654 18.1936L11.6052 18.1138C11.3164 18.3319 11.259 18.7428 11.477 19.0316L11.5568 18.9714ZM12.0005 19.1921C11.8321 19.1921 11.666 19.116 11.5568 18.9714L11.477 19.0316C11.6058 19.2023 11.8021 19.2921 12.0005 19.2921V19.1921ZM12.3346 19.08C12.2344 19.1556 12.117 19.1921 12.0005 19.1921V19.2921C12.138 19.2921 12.2767 19.249 12.3948 19.1598L12.3346 19.08ZM13.1099 17.6466C13.1362 18.035 12.9666 18.376 12.7755 18.6308C12.5847 18.8852 12.3763 19.0485 12.3346 19.08L12.3948 19.1598C12.4403 19.1254 12.6568 18.9556 12.8555 18.6908C13.0538 18.4263 13.2382 18.0618 13.2096 17.6398L13.1099 17.6466ZM12.2718 16.5019C12.9296 16.8711 13.0885 17.3308 13.1099 17.6466L13.2096 17.6398C13.1861 17.2915 13.0089 16.801 12.3208 16.4147L12.2718 16.5019ZM16.337 16.4147C16.3172 16.4036 16.2988 16.3929 16.2817 16.3826L16.2301 16.4683C16.2481 16.4791 16.2674 16.4904 16.2881 16.502L16.337 16.4147ZM17.2259 17.6398C17.2023 17.2915 17.0252 16.801 16.337 16.4147L16.2881 16.5019C16.9458 16.8711 17.1047 17.3308 17.1261 17.6466L17.2259 17.6398ZM16.4111 19.1598C16.4566 19.1254 16.6731 18.9556 16.8717 18.6908C17.0701 18.4263 17.2544 18.0618 17.2259 17.6398L17.1261 17.6466C17.1524 18.035 16.9828 18.376 16.7917 18.6308C16.6009 18.8852 16.3925 19.0485 16.3508 19.08L16.4111 19.1598ZM16.0167 19.2921C16.1542 19.2921 16.293 19.249 16.4111 19.1598L16.3508 19.08C16.2506 19.1556 16.1332 19.1921 16.0167 19.1921V19.2921ZM15.4932 19.0316C15.6221 19.2023 15.8183 19.2921 16.0167 19.2921V19.1921C15.8483 19.1921 15.6822 19.116 15.573 18.9714L15.4932 19.0316ZM15.6214 18.1138C15.3326 18.3319 15.2752 18.7428 15.4932 19.0316L15.573 18.9714C15.3883 18.7266 15.4369 18.3784 15.6817 18.1936L15.6214 18.1138ZM15.9183 17.7285C15.9188 17.7354 15.9152 17.7547 15.8988 17.788C15.8835 17.819 15.8604 17.8559 15.8315 17.8949C15.7736 17.9732 15.696 18.0559 15.6209 18.1142L15.6822 18.1932C15.7657 18.1284 15.8495 18.0387 15.9119 17.9544C15.9431 17.9122 15.9698 17.8701 15.9885 17.8321C16.0061 17.7964 16.0207 17.7564 16.0181 17.7212L15.9183 17.7285ZM15.6954 17.5576C15.7922 17.6119 15.8501 17.6583 15.8832 17.6913C15.8997 17.7078 15.9097 17.7206 15.9153 17.729C15.9181 17.7332 15.9194 17.7359 15.9199 17.737C15.921 17.7393 15.9189 17.7357 15.9183 17.7286L16.018 17.7211C16.0172 17.7103 16.0134 17.7009 16.0108 17.6953C16.0077 17.6885 16.0036 17.6813 15.9987 17.6738C15.9887 17.6588 15.9742 17.6408 15.9537 17.6205C15.9129 17.5797 15.8472 17.5281 15.7444 17.4704L15.6954 17.5576ZM14.8081 16.2921C14.7604 16.7827 15.0716 17.2074 15.6954 17.5576L15.7444 17.4704C15.1345 17.128 14.8657 16.7338 14.9076 16.3018L14.8081 16.2921ZM15.8114 15.2471C15.7339 15.2727 15.5022 15.3573 15.2807 15.5223C15.0592 15.6873 14.8426 15.9368 14.8081 16.2921L14.9076 16.3018C14.9384 15.9852 15.1312 15.7583 15.3404 15.6025C15.5496 15.4467 15.7699 15.3661 15.8427 15.3421L15.8114 15.2471ZM16.6387 15.6648C16.5256 15.321 16.1553 15.134 15.8114 15.2471L15.8427 15.3421C16.1341 15.2462 16.4478 15.4047 16.5438 15.696L16.6387 15.6648ZM16.2756 16.4714C16.5842 16.3387 16.7458 15.9899 16.6387 15.6648L16.5438 15.696C16.6344 15.9714 16.4976 16.2671 16.2361 16.3795L16.2756 16.4714Z" fill="#2D2F35"/>
</svg>
