<svg width="24" height="24" viewBox="0 0 24 24" fill="none" xmlns="http://www.w3.org/2000/svg">
<g clip-path="url(#clip0)">
<path d="M12 7.64844C9.94666 7.64844 8.27612 9.31897 8.27612 11.3723C8.27612 13.4257 9.94666 15.0963 12 15.0963C14.0534 15.0963 15.7239 13.4257 15.7239 11.3723C15.7239 9.31897 14.0534 7.64844 12 7.64844ZM12 13.9244C10.5929 13.9244 9.448 12.7795 9.448 11.3723C9.448 9.96518 10.5929 8.82031 12 8.82031C13.4072 8.82031 14.5521 9.96503 14.5521 11.3723C14.5521 12.7795 13.4072 13.9244 12 13.9244Z" fill="#2D2F35"/>
<path d="M21.2769 2.72311C20.8107 2.25681 20.1908 2 19.5313 2H4.46872C3.80923 2 3.18927 2.25681 2.72311 2.72311C2.25681 3.18927 2 3.80923 2 4.46872V6.97925C2 7.63858 2.25681 8.25854 2.72311 8.72485C3.18942 9.19116 3.80939 9.44797 4.46872 9.44797H5.76556V20.1589C5.76556 20.6507 5.95706 21.113 6.30481 21.4608C6.65256 21.8085 7.1149 22 7.60669 22H16.3933C16.8851 22 17.3474 21.8085 17.6952 21.4608C18.0428 21.113 18.2344 20.6507 18.2344 20.1589V9.44781H19.5313C20.1908 9.44781 20.8107 9.19116 21.2769 8.72485C21.7432 8.25854 22 7.63858 22 6.97925V4.46872C22 3.80923 21.7432 3.18927 21.2769 2.72311ZM17.0626 20.1589C17.0626 20.3377 16.9928 20.5057 16.8665 20.632C16.7401 20.7585 16.572 20.8281 16.3933 20.8281H7.60669C7.42801 20.8281 7.25986 20.7585 7.13351 20.632C7.00717 20.5057 6.93744 20.3376 6.93744 20.1589V6.30984H17.0626V20.1589ZM20.8281 6.97925C20.8281 7.32562 20.6932 7.65125 20.4482 7.89615C20.2033 8.1412 19.8777 8.27609 19.5313 8.27609H18.2343V6.31H18.9037C19.2272 6.31 19.4896 6.04755 19.4896 5.72406C19.4896 5.40042 19.2272 5.13812 18.9037 5.13812H5.09631C4.77283 5.13812 4.51038 5.40042 4.51038 5.72406C4.51038 6.04755 4.77283 6.31 5.09631 6.31H5.76556V8.27609H4.46872C4.12234 8.27609 3.79672 8.1412 3.55167 7.89615C3.30676 7.65125 3.17188 7.32562 3.17188 6.97925V4.46872C3.17188 4.12234 3.30676 3.79672 3.55182 3.55167C3.79672 3.30676 4.12234 3.17188 4.46872 3.17188H19.5313C19.8777 3.17188 20.2033 3.30676 20.4483 3.55182C20.6932 3.79672 20.8281 4.12234 20.8281 4.46872V6.97925Z" fill="#2D2F35"/>
<path d="M15.138 17.6899H8.86206C8.53842 17.6899 8.27612 17.9522 8.27612 18.2759C8.27612 18.5994 8.53842 18.8618 8.86206 18.8618H15.138C15.4616 18.8618 15.7239 18.5994 15.7239 18.2759C15.7239 17.9522 15.4616 17.6899 15.138 17.6899Z" fill="#2D2F35"/>
</g>
<defs>
<clipPath id="clip0">
<rect width="20" height="20" fill="white" transform="translate(2 2)"/>
</clipPath>
</defs>
</svg>
