<svg width="24" height="24" viewBox="0 0 24 24" fill="none" xmlns="http://www.w3.org/2000/svg">
<path fill-rule="evenodd" clip-rule="evenodd" d="M10.3216 3.97046C10.2032 4.52077 9.86783 4.91198 9.72908 5.05464C9.69162 5.09319 9.50186 5.29874 9.4451 5.56265C9.41178 5.71772 9.40404 5.95983 9.72029 6.27159C9.95295 6.50092 9.95564 6.87549 9.72631 7.10811C9.61057 7.22557 9.45783 7.2844 9.30502 7.2844C9.15506 7.2844 9.00502 7.22776 8.88979 7.11417C8.21569 6.44979 8.19069 5.76847 8.28846 5.31397C8.40682 4.76366 8.74221 4.37245 8.88096 4.2298C8.91842 4.19128 9.10818 3.98573 9.16494 3.72175C9.19826 3.56667 9.206 3.32456 8.88975 3.01281C8.65709 2.78347 8.6544 2.4089 8.88373 2.17628C9.11311 1.94359 9.48764 1.94093 9.72025 2.17027C10.3944 2.83464 10.4194 3.51597 10.3216 3.97046ZM19.0855 8.17188C19.4122 8.17188 19.677 8.43676 19.677 8.76344C19.677 11.7793 17.9288 14.394 15.3927 15.6488L16.4748 21.2972C16.5362 21.6181 16.3259 21.928 16.0051 21.9895C15.9675 21.9967 15.93 22.0002 15.8931 22.0002C15.615 22.0002 15.3671 21.8031 15.3128 21.5198L14.8047 18.8672H9.1949L8.68709 21.5197C8.63283 21.803 8.38486 22.0002 8.10674 22.0002C8.06982 22.0002 8.03244 21.9967 7.99486 21.9895C7.67396 21.928 7.46365 21.6181 7.5251 21.2973L8.60654 15.6485C6.07084 14.3936 4.32288 11.779 4.32288 8.76344C4.32288 8.43672 4.58776 8.17188 4.91444 8.17188H19.0855ZM9.72537 16.0965L9.42142 17.6841H14.5781L14.274 16.0967C13.5551 16.3201 12.7914 16.4405 12 16.4405C11.2084 16.4405 10.4444 16.32 9.72537 16.0965ZM5.53268 9.355C5.83237 12.6597 8.61849 15.2575 11.9999 15.2575C15.3814 15.2575 18.1675 12.6597 18.4672 9.355H5.53268ZM12.424 5.05464C12.5628 4.91198 12.8982 4.52077 13.0165 3.97046C13.1143 3.51597 13.0893 2.83464 12.4152 2.17027C12.1826 1.94093 11.808 1.94359 11.5787 2.17628C11.3493 2.4089 11.352 2.78347 11.5847 3.01281C11.9009 3.32456 11.8932 3.56667 11.8599 3.72175C11.8031 3.98573 11.6134 4.19128 11.5759 4.2298C11.4372 4.37245 11.1018 4.76366 10.9834 5.31397C10.8856 5.76847 10.9106 6.44979 11.5847 7.11417C11.6999 7.22776 11.85 7.2844 12 7.2844C12.1527 7.2844 12.3055 7.22557 12.4212 7.10811C12.6506 6.87549 12.6479 6.50092 12.4152 6.27159C12.099 5.95983 12.1067 5.71772 12.14 5.56265C12.1968 5.29874 12.3866 5.09319 12.424 5.05464ZM15.7115 3.97046C15.5931 4.52077 15.2577 4.91198 15.119 5.05464C15.0815 5.09319 14.8917 5.29874 14.835 5.56265C14.8017 5.71772 14.7939 5.95983 15.1102 6.27159C15.3428 6.50092 15.3455 6.87549 15.1162 7.10811C15.0005 7.22557 14.8477 7.2844 14.6949 7.2844C14.5449 7.2844 14.3949 7.22776 14.2797 7.11417C13.6056 6.44979 13.5806 5.76847 13.6784 5.31397C13.7967 4.76366 14.1321 4.37245 14.2709 4.2298C14.3083 4.19128 14.4981 3.98573 14.5548 3.72175C14.5882 3.56667 14.5959 3.32456 14.2796 3.01281C14.047 2.78347 14.0443 2.4089 14.2736 2.17628C14.503 1.94359 14.8775 1.94093 15.1101 2.17027C15.7842 2.83464 15.8092 3.51597 15.7115 3.97046Z" fill="#2D2F35"/>
<path d="M9.72908 5.05464L9.6574 4.98492L9.65736 4.98495L9.72908 5.05464ZM10.3216 3.97046L10.2238 3.94943L10.2238 3.94943L10.3216 3.97046ZM9.4451 5.56265L9.34733 5.54162L9.34733 5.54164L9.4451 5.56265ZM9.72029 6.27159L9.65009 6.3428L9.65009 6.34281L9.72029 6.27159ZM9.72631 7.10811L9.6551 7.0379L9.65508 7.03792L9.72631 7.10811ZM8.88979 7.11417L8.95999 7.04295L8.95998 7.04294L8.88979 7.11417ZM8.28846 5.31397L8.38622 5.33501L8.38622 5.335L8.28846 5.31397ZM8.88096 4.2298L8.95264 4.29952L8.88096 4.2298ZM9.16494 3.72175L9.26271 3.74277L9.26271 3.74276L9.16494 3.72175ZM8.88975 3.01281L8.95995 2.94159L8.95995 2.94159L8.88975 3.01281ZM8.88373 2.17628L8.95494 2.24649L8.95495 2.24649L8.88373 2.17628ZM9.72025 2.17027L9.65005 2.24148L9.65006 2.24149L9.72025 2.17027ZM15.3927 15.6488L15.3484 15.5592L15.2802 15.5929L15.2945 15.6676L15.3927 15.6488ZM16.4748 21.2972L16.573 21.2784L16.573 21.2784L16.4748 21.2972ZM16.0051 21.9895L15.9863 21.8913L15.9862 21.8913L16.0051 21.9895ZM15.3128 21.5198L15.411 21.501L15.411 21.501L15.3128 21.5198ZM14.8047 18.8672L14.9029 18.8483L14.8874 18.7672H14.8047V18.8672ZM9.1949 18.8672V18.7672H9.11223L9.09668 18.8483L9.1949 18.8672ZM8.68709 21.5197L8.7853 21.5385L8.7853 21.5385L8.68709 21.5197ZM7.99486 21.9895L8.01375 21.8913L8.01367 21.8913L7.99486 21.9895ZM7.5251 21.2973L7.62331 21.3161L7.62331 21.3161L7.5251 21.2973ZM8.60654 15.6485L8.70476 15.6673L8.71906 15.5926L8.65089 15.5589L8.60654 15.6485ZM9.42142 17.6841L9.32321 17.6653L9.30046 17.7841H9.42142V17.6841ZM9.72537 16.0965L9.75505 16.001L9.64819 15.9678L9.62715 16.0777L9.72537 16.0965ZM14.5781 17.6841V17.7841H14.6991L14.6763 17.6652L14.5781 17.6841ZM14.274 16.0967L14.3722 16.0779L14.3512 15.968L14.2444 16.0012L14.274 16.0967ZM5.53268 9.355V9.255H5.4232L5.43309 9.36403L5.53268 9.355ZM18.4672 9.355L18.5668 9.36403L18.5767 9.255H18.4672V9.355ZM13.0165 3.97046L12.9187 3.94943L12.9187 3.94943L13.0165 3.97046ZM12.424 5.05464L12.3523 4.98492L12.3523 4.98495L12.424 5.05464ZM12.4152 2.17027L12.345 2.24148L12.345 2.24149L12.4152 2.17027ZM11.5787 2.17628L11.6499 2.24649L11.6499 2.24648L11.5787 2.17628ZM11.5847 3.01281L11.6549 2.94159L11.6549 2.94159L11.5847 3.01281ZM11.8599 3.72175L11.9576 3.74277L11.9577 3.74276L11.8599 3.72175ZM11.5759 4.2298L11.6476 4.29952V4.29952L11.5759 4.2298ZM10.9834 5.31397L11.0812 5.33501L11.0812 5.335L10.9834 5.31397ZM11.5847 7.11417L11.6549 7.04296L11.6549 7.04294L11.5847 7.11417ZM12.4212 7.10811L12.35 7.0379L12.35 7.03792L12.4212 7.10811ZM12.4152 6.27159L12.345 6.3428L12.345 6.34281L12.4152 6.27159ZM12.14 5.56265L12.0423 5.54162L12.0423 5.54164L12.14 5.56265ZM15.119 5.05464L15.0473 4.98492L15.0473 4.98495L15.119 5.05464ZM15.7115 3.97046L15.6137 3.94943L15.6137 3.94943L15.7115 3.97046ZM14.835 5.56265L14.7372 5.54162L14.7372 5.54164L14.835 5.56265ZM15.1102 6.27159L15.04 6.3428L15.04 6.34281L15.1102 6.27159ZM15.1162 7.10811L15.045 7.0379L15.045 7.03792L15.1162 7.10811ZM14.2797 7.11417L14.3499 7.04295L14.3499 7.04294L14.2797 7.11417ZM13.6784 5.31397L13.7761 5.33501L13.7761 5.335L13.6784 5.31397ZM14.2709 4.2298L14.1992 4.16007L14.1992 4.16007L14.2709 4.2298ZM14.5548 3.72175L14.6526 3.74277L14.6526 3.74276L14.5548 3.72175ZM14.2796 3.01281L14.3498 2.94159L14.3498 2.94159L14.2796 3.01281ZM14.2736 2.17628L14.3448 2.24649L14.3448 2.24649L14.2736 2.17628ZM15.1101 2.17027L15.0399 2.24148L15.04 2.24149L15.1101 2.17027ZM9.80077 5.12436C9.94505 4.97601 10.2953 4.56846 10.4193 3.99149L10.2238 3.94943C10.1112 4.47308 9.79061 4.84795 9.6574 4.98492L9.80077 5.12436ZM9.54286 5.58367C9.59337 5.34881 9.76577 5.16038 9.8008 5.12433L9.65736 4.98495C9.61747 5.02601 9.41034 5.24867 9.34733 5.54162L9.54286 5.58367ZM9.7905 6.20037C9.64201 6.05399 9.57566 5.93009 9.54787 5.83129C9.52024 5.73302 9.52835 5.6512 9.54287 5.58365L9.34733 5.54164C9.32852 5.62917 9.31611 5.74594 9.35534 5.88543C9.39442 6.0244 9.48233 6.17743 9.65009 6.3428L9.7905 6.20037ZM9.79752 7.17832C10.0656 6.90636 10.0625 6.46847 9.79049 6.20037L9.65009 6.34281C9.84342 6.53338 9.84565 6.84462 9.6551 7.0379L9.79752 7.17832ZM9.30502 7.3844C9.4835 7.3844 9.66224 7.31561 9.79754 7.1783L9.65508 7.03792C9.5589 7.13553 9.43217 7.1844 9.30502 7.1844V7.3844ZM8.81958 7.18538C8.95429 7.31816 9.12987 7.3844 9.30502 7.3844V7.1844C9.18025 7.1844 9.05576 7.13735 8.95999 7.04295L8.81958 7.18538ZM8.1907 5.29294C8.08716 5.77421 8.11664 6.49258 8.81959 7.18539L8.95998 7.04294C8.31473 6.40701 8.29421 5.76272 8.38622 5.33501L8.1907 5.29294ZM8.80927 4.16007C8.66499 4.30842 8.31479 4.71597 8.1907 5.29295L8.38622 5.335C8.49885 4.81135 8.81943 4.43648 8.95264 4.29952L8.80927 4.16007ZM9.06718 3.70073C9.01666 3.93567 8.84426 4.1241 8.80927 4.16007L8.95264 4.29952C8.99258 4.25846 9.19971 4.0358 9.26271 3.74277L9.06718 3.70073ZM8.81954 3.08402C8.96803 3.2304 9.03438 3.3543 9.06217 3.45311C9.0898 3.55138 9.08169 3.63319 9.06717 3.70074L9.26271 3.74276C9.28152 3.65523 9.29393 3.53845 9.2547 3.39896C9.21562 3.26 9.12771 3.10697 8.95995 2.94159L8.81954 3.08402ZM8.81252 2.10608C8.5444 2.37803 8.54756 2.81592 8.81955 3.08402L8.95995 2.94159C8.76662 2.75102 8.76439 2.43977 8.95494 2.24649L8.81252 2.10608ZM9.79046 2.09906C9.51851 1.83094 9.08066 1.83406 8.81252 2.10608L8.95495 2.24649C9.14555 2.05312 9.45676 2.05092 9.65005 2.24148L9.79046 2.09906ZM10.4193 3.99149C10.5229 3.51023 10.4934 2.79186 9.79045 2.09905L9.65006 2.24149C10.2953 2.87743 10.3158 3.52171 10.2238 3.94943L10.4193 3.99149ZM19.777 8.76344C19.777 8.38154 19.4674 8.07188 19.0855 8.07188V8.27187C19.3569 8.27187 19.577 8.49198 19.577 8.76344H19.777ZM15.4371 15.7385C18.0058 14.4675 19.777 11.8189 19.777 8.76344H19.577C19.577 11.7397 17.8518 14.3206 15.3484 15.5592L15.4371 15.7385ZM16.573 21.2784L15.491 15.63L15.2945 15.6676L16.3766 21.316L16.573 21.2784ZM16.0239 22.0877C16.399 22.0158 16.6448 21.6536 16.573 21.2784L16.3766 21.316C16.4276 21.5827 16.2529 21.8402 15.9863 21.8913L16.0239 22.0877ZM15.8931 22.1002C15.9363 22.1002 15.9801 22.0961 16.024 22.0877L15.9862 21.8913C15.9549 21.8973 15.9238 21.9002 15.8931 21.9002V22.1002ZM15.2146 21.5386C15.278 21.8699 15.5679 22.1002 15.8931 22.1002V21.9002C15.662 21.9002 15.4561 21.7363 15.411 21.501L15.2146 21.5386ZM14.7065 18.886L15.2146 21.5386L15.411 21.501L14.9029 18.8483L14.7065 18.886ZM9.1949 18.9672H14.8047V18.7672H9.1949V18.9672ZM8.7853 21.5385L9.29311 18.886L9.09668 18.8483L8.58887 21.5009L8.7853 21.5385ZM8.10674 22.1002C8.43195 22.1002 8.72185 21.8698 8.7853 21.5385L8.58887 21.5009C8.5438 21.7363 8.33778 21.9002 8.10674 21.9002V22.1002ZM7.97598 22.0877C8.01981 22.0961 8.06352 22.1002 8.10674 22.1002V21.9002C8.07612 21.9002 8.04507 21.8973 8.01375 21.8913L7.97598 22.0877ZM7.42688 21.2785C7.35505 21.6536 7.60092 22.0159 7.97606 22.0877L8.01367 21.8913C7.74701 21.8402 7.57226 21.5827 7.62331 21.3161L7.42688 21.2785ZM8.50832 15.6297L7.42688 21.2785L7.62331 21.3161L8.70476 15.6673L8.50832 15.6297ZM4.22288 8.76344C4.22288 11.8186 5.99384 14.4671 8.56219 15.7381L8.65089 15.5589C6.14785 14.3202 4.42288 11.7394 4.42288 8.76344H4.22288ZM4.91444 8.07188C4.53253 8.07188 4.22288 8.38149 4.22288 8.76344H4.42288C4.42288 8.49195 4.64298 8.27187 4.91444 8.27187V8.07188ZM19.0855 8.07188H4.91444V8.27187H19.0855V8.07188ZM9.51964 17.7029L9.82358 16.1153L9.62715 16.0777L9.32321 17.6653L9.51964 17.7029ZM14.5781 17.5841H9.42142V17.7841H14.5781V17.5841ZM14.1758 16.1155L14.4799 17.7029L14.6763 17.6652L14.3722 16.0779L14.1758 16.1155ZM12 16.5405C12.8016 16.5405 13.5753 16.4185 14.3037 16.1922L14.2444 16.0012C13.5349 16.2216 12.7812 16.3405 12 16.3405V16.5405ZM9.69569 16.192C10.4242 16.4184 11.1982 16.5405 12 16.5405V16.3405C11.2186 16.3405 10.4646 16.2216 9.75505 16.001L9.69569 16.192ZM11.9999 15.1575C8.67073 15.1575 5.92733 12.5997 5.63227 9.34597L5.43309 9.36403C5.7374 12.7198 8.56626 15.3575 11.9999 15.3575V15.1575ZM18.3676 9.34597C18.0725 12.5996 15.3292 15.1575 11.9999 15.1575V15.3575C15.4336 15.3575 18.2625 12.7197 18.5668 9.36403L18.3676 9.34597ZM5.53268 9.455H18.4672V9.255H5.53268V9.455ZM12.9187 3.94943C12.8061 4.47308 12.4855 4.84795 12.3523 4.98492L12.4957 5.12436C12.64 4.97601 12.9902 4.56846 13.1143 3.99149L12.9187 3.94943ZM12.345 2.24149C12.9902 2.87743 13.0108 3.52171 12.9187 3.94943L13.1143 3.99149C13.2178 3.51023 13.1883 2.79186 12.4854 2.09905L12.345 2.24149ZM11.6499 2.24648C11.8405 2.05313 12.1517 2.05092 12.345 2.24148L12.4854 2.09906C12.2135 1.83095 11.7756 1.83405 11.5075 2.10609L11.6499 2.24648ZM11.6549 2.94159C11.4616 2.75102 11.4593 2.43977 11.6499 2.24649L11.5075 2.10608C11.2393 2.37803 11.2425 2.81592 11.5145 3.08402L11.6549 2.94159ZM11.9577 3.74276C11.9765 3.65523 11.9889 3.53845 11.9496 3.39896C11.9106 3.26 11.8227 3.10697 11.6549 2.94159L11.5145 3.08402C11.663 3.2304 11.7293 3.3543 11.7571 3.45311C11.7847 3.55138 11.7766 3.63319 11.7621 3.70074L11.9577 3.74276ZM11.6476 4.29952C11.6875 4.25846 11.8946 4.0358 11.9576 3.74277L11.7621 3.70073C11.7116 3.93567 11.5392 4.1241 11.5042 4.16007L11.6476 4.29952ZM11.0812 5.335C11.1938 4.81135 11.5144 4.43648 11.6476 4.29952L11.5042 4.16007C11.3599 4.30842 11.0097 4.71598 10.8856 5.29295L11.0812 5.335ZM11.6549 7.04294C11.0097 6.40701 10.9892 5.76272 11.0812 5.33501L10.8856 5.29294C10.7821 5.77421 10.8116 6.49258 11.5145 7.18539L11.6549 7.04294ZM12 7.1844C11.8751 7.1844 11.7507 7.13735 11.6549 7.04296L11.5145 7.18537C11.6492 7.31817 11.8248 7.3844 12 7.3844V7.1844ZM12.35 7.03792C12.2538 7.13553 12.1271 7.1844 12 7.1844V7.3844C12.1784 7.3844 12.3572 7.31561 12.4925 7.1783L12.35 7.03792ZM12.345 6.34281C12.5384 6.53337 12.5406 6.84462 12.35 7.0379L12.4925 7.17832C12.7606 6.90636 12.7574 6.46847 12.4854 6.20037L12.345 6.34281ZM12.0423 5.54164C12.0235 5.62917 12.0111 5.74594 12.0503 5.88543C12.0894 6.02439 12.1773 6.17743 12.345 6.3428L12.4854 6.20038C12.3369 6.054 12.2706 5.93009 12.2428 5.83129C12.2152 5.73302 12.2233 5.6512 12.2378 5.58365L12.0423 5.54164ZM12.3523 4.98495C12.3124 5.02601 12.1053 5.24867 12.0423 5.54162L12.2378 5.58367C12.2883 5.34881 12.4607 5.16038 12.4957 5.12433L12.3523 4.98495ZM15.1907 5.12436C15.3349 4.97601 15.6851 4.56846 15.8092 3.99149L15.6137 3.94943C15.5011 4.47308 15.1805 4.84795 15.0473 4.98492L15.1907 5.12436ZM14.9328 5.58367C14.9833 5.34881 15.1557 5.16038 15.1907 5.12433L15.0473 4.98495C15.0074 5.026 14.8002 5.24867 14.7372 5.54162L14.9328 5.58367ZM15.1804 6.20037C15.0319 6.05399 14.9656 5.93009 14.9378 5.83129C14.9101 5.73302 14.9182 5.6512 14.9328 5.58365L14.7372 5.54164C14.7184 5.62917 14.706 5.74594 14.7452 5.88544C14.7843 6.0244 14.8722 6.17743 15.04 6.3428L15.1804 6.20037ZM15.1874 7.17832C15.4555 6.90636 15.4524 6.46847 15.1804 6.20037L15.04 6.34281C15.2333 6.53337 15.2355 6.84462 15.045 7.0379L15.1874 7.17832ZM14.6949 7.3844C14.8734 7.3844 15.0521 7.31561 15.1874 7.1783L15.045 7.03792C14.9488 7.13553 14.8221 7.1844 14.6949 7.1844V7.3844ZM14.2095 7.18538C14.3442 7.31816 14.5197 7.3844 14.6949 7.3844V7.1844C14.5701 7.1844 14.4457 7.13736 14.3499 7.04295L14.2095 7.18538ZM13.5806 5.29294C13.4771 5.77421 13.5065 6.49258 14.2095 7.18539L14.3499 7.04294C13.7046 6.40701 13.6841 5.76272 13.7761 5.33501L13.5806 5.29294ZM14.1992 4.16007C14.0549 4.30842 13.7047 4.71597 13.5806 5.29295L13.7761 5.335C13.8887 4.81135 14.2093 4.43648 14.3425 4.29952L14.1992 4.16007ZM14.4571 3.70073C14.4066 3.93567 14.2342 4.1241 14.1992 4.16007L14.3425 4.29952C14.3825 4.25846 14.5896 4.0358 14.6526 3.74277L14.4571 3.70073ZM14.2094 3.08402C14.3579 3.2304 14.4243 3.3543 14.4521 3.45311C14.4797 3.55138 14.4716 3.63319 14.4571 3.70074L14.6526 3.74276C14.6714 3.65523 14.6838 3.53845 14.6446 3.39896C14.6055 3.26 14.5176 3.10697 14.3498 2.94159L14.2094 3.08402ZM14.2024 2.10608C13.9343 2.37803 13.9375 2.81592 14.2094 3.08402L14.3498 2.94159C14.1565 2.75102 14.1543 2.43977 14.3448 2.24649L14.2024 2.10608ZM15.1804 2.09906C14.9084 1.83094 14.4706 1.83406 14.2024 2.10608L14.3448 2.24649C14.5354 2.05312 14.8467 2.05092 15.0399 2.24148L15.1804 2.09906ZM15.8092 3.99149C15.9128 3.51023 15.8833 2.79186 15.1803 2.09905L15.04 2.24149C15.6852 2.87743 15.7057 3.52171 15.6137 3.94943L15.8092 3.99149Z" fill="#2D2F35"/>
</svg>
