<svg width="24" height="24" viewBox="0 0 24 24" fill="none" xmlns="http://www.w3.org/2000/svg">
<g clip-path="url(#clip0)">
<path d="M21.4141 2H2.58594C2.26234 2 2 2.26234 2 2.58594V18.9036C2 19.2272 2.26234 19.4895 2.58594 19.4895H7.52348C7.60617 20.1254 7.64844 20.7677 7.64844 21.414C7.64844 21.7376 7.91078 22 8.23438 22C8.55797 22 8.82031 21.7376 8.82031 21.414C8.82031 21.1905 8.81551 20.9674 8.80629 20.7448H10.089L10.1618 21.4723C10.192 21.7745 10.4467 22 10.7441 22C10.7636 22 10.7833 21.999 10.8031 21.9971C11.1251 21.9648 11.36 21.6777 11.3279 21.3557L11.2668 20.7448H12.7333L12.6722 21.3557C12.64 21.6777 12.8749 21.9649 13.197 21.9971C13.2168 21.999 13.2364 22 13.256 22C13.5533 22 13.8081 21.7745 13.8383 21.4723L13.9111 20.7448H15.1939C15.1846 20.9675 15.1798 21.1907 15.1798 21.414C15.1798 21.7376 15.4421 22 15.7657 22C16.0893 22 16.3516 21.7376 16.3516 21.414C16.3516 20.7692 16.3943 20.1268 16.4775 19.4895H21.4141C21.7377 19.4895 22 19.2272 22 18.9036V2.58594C22 2.26234 21.7377 2 21.4141 2ZM8.2191 17.0625C8.15055 16.8195 8.07688 16.5779 7.99668 16.338C7.92445 16.1199 7.855 15.9108 7.79277 15.7239H9.58691L9.72078 17.0625H8.2191ZM8.71438 19.5729C8.6627 19.1235 8.59246 18.677 8.50301 18.2343H9.83797L9.97184 19.5729H8.71438ZM12.8505 19.5729H11.1495L11.0157 18.2343H12.9843L12.8505 19.5729ZM13.1015 17.0625H10.8985L10.7646 15.7239H13.2354L13.1015 17.0625ZM15.2864 19.5729H14.0282L14.1621 18.2343H15.4984C15.4086 18.6777 15.3382 19.1242 15.2864 19.5729ZM16.0035 16.3374C15.9237 16.5778 15.8502 16.8196 15.7819 17.0625H14.2793L14.4131 15.7239H16.2086C16.1464 15.9105 16.0766 16.1194 16.0035 16.3374ZM6.35156 14.5521C5.98617 14.5521 5.6823 14.2576 5.6823 13.8828C5.6823 13.5092 5.985 13.2136 6.35156 13.2136H17.6484C18.0136 13.2136 18.3177 13.5077 18.3177 13.8828C18.3177 14.2575 18.014 14.5521 17.6484 14.5521H6.35156ZM8.82031 12.0416V8.82027H15.1797V12.0416H8.82031ZM20.8281 18.3177H16.6784C16.7939 17.7754 16.939 17.2382 17.1151 16.7084C17.242 16.33 17.3591 15.9784 17.4437 15.7239H17.6484C18.644 15.7239 19.4896 14.9209 19.4896 13.8828C19.4896 12.8445 18.644 12.0416 17.6484 12.0416H16.3516V8.23434C16.3516 7.91074 16.0892 7.6484 15.7656 7.6484H8.23438C7.91078 7.6484 7.64844 7.91074 7.64844 8.23434V12.0416H6.35156C5.35609 12.0416 4.51043 12.8446 4.51043 13.8828C4.51043 14.9209 5.35602 15.7239 6.35156 15.7239H6.55742C6.64227 15.9779 6.75934 16.3291 6.88473 16.7079C7.06152 17.2368 7.20723 17.7741 7.32289 18.3176H3.17188V3.17188H20.8281V18.3177Z" fill="#2D2F35" stroke="#2D2F35" stroke-width="0.1"/>
</g>
<defs>
<clipPath id="clip0">
<rect width="20" height="20" fill="white" transform="translate(2 2)"/>
</clipPath>
</defs>
</svg>
