<svg width="24" height="24" viewBox="0 0 24 24" fill="none" xmlns="http://www.w3.org/2000/svg">
<path fill-rule="evenodd" clip-rule="evenodd" d="M8.44379 14.9298H8.4447L8.44699 14.9297H19.0703C19.3318 14.9297 19.5618 14.7562 19.6337 14.5047L21.9774 6.30161C22.0279 6.12476 21.9925 5.93463 21.8819 5.78784C21.7711 5.64105 21.5979 5.55469 21.4141 5.55469H7.09247L6.67361 3.66977C6.61395 3.40167 6.37622 3.21094 6.10156 3.21094H2.58594C2.2623 3.21094 2 3.47324 2 3.79688C2 4.12051 2.2623 4.38281 2.58594 4.38281H5.63159L7.74707 13.9028C7.12436 14.1735 6.6875 14.7943 6.6875 15.5156C6.6875 16.4849 7.47607 17.2734 8.44531 17.2734H9.61719C8.64795 17.2734 7.85938 18.062 7.85938 19.0312C7.85938 20.0005 8.64795 20.7891 9.61719 20.7891C10.5864 20.7891 11.375 20.0005 11.375 19.0312C11.375 18.062 10.5864 17.2734 9.61719 17.2734H17.8984C16.9292 17.2734 16.1406 18.062 16.1406 19.0312C16.1406 20.0005 16.9292 20.7891 17.8984 20.7891C18.8677 20.7891 19.6562 20.0005 19.6562 19.0312C19.6562 18.062 18.8677 17.2734 17.8984 17.2734H19.0703C19.3939 17.2734 19.6562 17.0111 19.6562 16.6875C19.6562 16.3639 19.3939 16.1016 19.0703 16.1016H8.44531C8.12228 16.1016 7.85937 15.8387 7.85937 15.5156C7.85937 15.1931 8.12137 14.9306 8.44379 14.9298ZM20.6372 6.72656L18.6283 13.7578H8.91528L7.35278 6.72656H20.6372ZM9.61719 18.4453C9.94022 18.4453 10.2031 18.7082 10.2031 19.0312C10.2031 19.3543 9.94022 19.6172 9.61719 19.6172C9.29416 19.6172 9.03125 19.3543 9.03125 19.0312C9.03125 18.7082 9.29416 18.4453 9.61719 18.4453ZM18.4844 19.0312C18.4844 18.7082 18.2215 18.4453 17.8984 18.4453C17.5754 18.4453 17.3125 18.7082 17.3125 19.0312C17.3125 19.3543 17.5754 19.6172 17.8984 19.6172C18.2215 19.6172 18.4844 19.3543 18.4844 19.0312Z" fill="#2D2F35"/>
<path d="M8.4447 14.9298V14.98L8.44803 14.9797L8.4447 14.9298ZM8.44379 14.9298V14.8798H8.44367L8.44379 14.9298ZM8.44699 14.9297V14.8796L8.44366 14.8798L8.44699 14.9297ZM19.6337 14.5047L19.6817 14.5185L19.6817 14.5185L19.6337 14.5047ZM21.9774 6.30161L22.0255 6.31534L22.0255 6.31534L21.9774 6.30161ZM21.8819 5.78784L21.9218 5.75775L21.9218 5.75772L21.8819 5.78784ZM7.09247 5.55469L7.04366 5.56553L7.05236 5.60469H7.09247V5.55469ZM6.67361 3.66977L6.72242 3.65892L6.72242 3.65891L6.67361 3.66977ZM5.63159 4.38281L5.6804 4.37197L5.6717 4.33281H5.63159V4.38281ZM7.74707 13.9028L7.767 13.9486L7.80483 13.9322L7.79588 13.8919L7.74707 13.9028ZM18.6283 13.7578V13.8078H18.666L18.6763 13.7715L18.6283 13.7578ZM20.6372 6.72656L20.6853 6.7403L20.7035 6.67656H20.6372V6.72656ZM8.91528 13.7578L8.86647 13.7687L8.87517 13.8078H8.91528V13.7578ZM7.35278 6.72656V6.67656H7.29045L7.30397 6.73741L7.35278 6.72656ZM8.4447 14.8798H8.44379V14.9798H8.4447V14.8798ZM8.44366 14.8798L8.44138 14.88L8.44803 14.9797L8.45032 14.9796L8.44366 14.8798ZM19.0703 14.8797H8.44699V14.9797H19.0703V14.8797ZM19.5856 14.491C19.5199 14.721 19.3095 14.8797 19.0703 14.8797V14.9797C19.3542 14.9797 19.6037 14.7914 19.6817 14.5185L19.5856 14.491ZM21.9293 6.28787L19.5856 14.491L19.6817 14.5185L22.0255 6.31534L21.9293 6.28787ZM21.842 5.81793C21.9432 5.95221 21.9755 6.12611 21.9293 6.28787L22.0255 6.31534C22.0803 6.1234 22.0419 5.91706 21.9218 5.75775L21.842 5.81793ZM21.4141 5.60469C21.5822 5.60469 21.7406 5.68368 21.842 5.81796L21.9218 5.75772C21.8016 5.59843 21.6136 5.50469 21.4141 5.50469V5.60469ZM7.09247 5.60469H21.4141V5.50469H7.09247V5.60469ZM6.6248 3.68062L7.04366 5.56553L7.14128 5.54384L6.72242 3.65892L6.6248 3.68062ZM6.10156 3.26094C6.35278 3.26094 6.57023 3.43539 6.62481 3.68063L6.72242 3.65891C6.65767 3.36795 6.39966 3.16094 6.10156 3.16094V3.26094ZM2.58594 3.26094H6.10156V3.16094H2.58594V3.26094ZM2.05 3.79688C2.05 3.50085 2.28991 3.26094 2.58594 3.26094V3.16094C2.23468 3.16094 1.95 3.44562 1.95 3.79688H2.05ZM2.58594 4.33281C2.28991 4.33281 2.05 4.0929 2.05 3.79688H1.95C1.95 4.14813 2.23468 4.43281 2.58594 4.43281V4.33281ZM5.63159 4.33281H2.58594V4.43281H5.63159V4.33281ZM7.79588 13.8919L5.6804 4.37197L5.58278 4.39366L7.69826 13.9136L7.79588 13.8919ZM6.7375 15.5156C6.7375 14.815 7.16182 14.2117 7.767 13.9486L7.72714 13.8569C7.0869 14.1352 6.6375 14.7737 6.6375 15.5156H6.7375ZM8.44531 17.2234C7.50369 17.2234 6.7375 16.4572 6.7375 15.5156H6.6375C6.6375 16.5125 7.44846 17.3234 8.44531 17.3234V17.2234ZM9.61719 17.2234H8.44531V17.3234H9.61719V17.2234ZM9.61719 17.2234C8.62034 17.2234 7.80937 18.0344 7.80937 19.0312H7.90938C7.90938 18.0896 8.67556 17.3234 9.61719 17.3234V17.2234ZM7.80937 19.0312C7.80937 20.0281 8.62034 20.8391 9.61719 20.8391V20.7391C8.67556 20.7391 7.90938 19.9729 7.90938 19.0312H7.80937ZM9.61719 20.8391C10.614 20.8391 11.425 20.0281 11.425 19.0312H11.325C11.325 19.9729 10.5588 20.7391 9.61719 20.7391V20.8391ZM11.425 19.0312C11.425 18.0344 10.614 17.2234 9.61719 17.2234V17.3234C10.5588 17.3234 11.325 18.0896 11.325 19.0312H11.425ZM17.8984 17.2234H9.61719V17.3234H17.8984V17.2234ZM17.8984 17.2234C16.9016 17.2234 16.0906 18.0344 16.0906 19.0312H16.1906C16.1906 18.0896 16.9568 17.3234 17.8984 17.3234V17.2234ZM16.0906 19.0312C16.0906 20.0281 16.9016 20.8391 17.8984 20.8391V20.7391C16.9568 20.7391 16.1906 19.9729 16.1906 19.0312H16.0906ZM17.8984 20.8391C18.8953 20.8391 19.7062 20.0281 19.7062 19.0312H19.6063C19.6063 19.9729 18.8401 20.7391 17.8984 20.7391V20.8391ZM19.7062 19.0312C19.7062 18.0344 18.8953 17.2234 17.8984 17.2234V17.3234C18.8401 17.3234 19.6063 18.0896 19.6063 19.0312H19.7062ZM19.0703 17.2234H17.8984V17.3234H19.0703V17.2234ZM19.6062 16.6875C19.6062 16.9835 19.3663 17.2234 19.0703 17.2234V17.3234C19.4216 17.3234 19.7062 17.0388 19.7062 16.6875H19.6062ZM19.0703 16.1516C19.3663 16.1516 19.6062 16.3915 19.6062 16.6875H19.7062C19.7062 16.3362 19.4216 16.0516 19.0703 16.0516V16.1516ZM8.44531 16.1516H19.0703V16.0516H8.44531V16.1516ZM7.80937 15.5156C7.80937 15.8663 8.09467 16.1516 8.44531 16.1516V16.0516C8.1499 16.0516 7.90937 15.811 7.90937 15.5156H7.80937ZM8.44367 14.8798C8.09369 14.8807 7.80937 15.1655 7.80937 15.5156H7.90937C7.90937 15.2206 8.14904 14.9805 8.4439 14.9798L8.44367 14.8798ZM18.6763 13.7715L20.6853 6.7403L20.5892 6.71283L18.5802 13.7441L18.6763 13.7715ZM8.91528 13.8078H18.6283V13.7078H8.91528V13.8078ZM7.30397 6.73741L8.86647 13.7687L8.96409 13.747L7.40159 6.71572L7.30397 6.73741ZM20.6372 6.67656H7.35278V6.77656H20.6372V6.67656ZM10.2531 19.0312C10.2531 18.6806 9.96783 18.3953 9.61719 18.3953V18.4953C9.9126 18.4953 10.1531 18.7358 10.1531 19.0312H10.2531ZM9.61719 19.6672C9.96783 19.6672 10.2531 19.3819 10.2531 19.0312H10.1531C10.1531 19.3267 9.9126 19.5672 9.61719 19.5672V19.6672ZM8.98125 19.0312C8.98125 19.3819 9.26654 19.6672 9.61719 19.6672V19.5672C9.32177 19.5672 9.08125 19.3267 9.08125 19.0312H8.98125ZM9.61719 18.3953C9.26654 18.3953 8.98125 18.6806 8.98125 19.0312H9.08125C9.08125 18.7358 9.32177 18.4953 9.61719 18.4953V18.3953ZM17.8984 18.4953C18.1939 18.4953 18.4344 18.7358 18.4344 19.0312H18.5344C18.5344 18.6806 18.2491 18.3953 17.8984 18.3953V18.4953ZM17.3625 19.0312C17.3625 18.7358 17.603 18.4953 17.8984 18.4953V18.3953C17.5478 18.3953 17.2625 18.6806 17.2625 19.0312H17.3625ZM17.8984 19.5672C17.603 19.5672 17.3625 19.3267 17.3625 19.0312H17.2625C17.2625 19.3819 17.5478 19.6672 17.8984 19.6672V19.5672ZM18.4344 19.0312C18.4344 19.3267 18.1939 19.5672 17.8984 19.5672V19.6672C18.2491 19.6672 18.5344 19.3819 18.5344 19.0312H18.4344Z" fill="#2D2F35"/>
</svg>
