<svg width="24" height="24" viewBox="0 0 24 24" fill="none" xmlns="http://www.w3.org/2000/svg">
<path fill-rule="evenodd" clip-rule="evenodd" d="M11.4775 4.12197C11.4669 4.56959 11.2928 5.2335 10.524 5.85456C10.1855 6.12799 10.0168 6.4026 10.0082 6.69397C9.99465 7.15792 10.393 7.62444 10.5477 7.76507C10.7908 7.98132 10.8114 8.35268 10.5952 8.59585C10.479 8.72651 10.3174 8.79292 10.1551 8.79292C10.0152 8.79292 9.87473 8.74362 9.76219 8.64354C9.66406 8.55628 8.80418 7.7594 8.83004 6.67045C8.84063 6.22284 9.01469 5.55893 9.78351 4.93787C10.1237 4.66307 10.2925 4.38705 10.2994 4.09404C10.3125 3.54408 9.76769 3.03439 9.76219 3.02947C9.51902 2.81318 9.49723 2.4408 9.71348 2.19763C9.92976 1.95447 10.3022 1.93267 10.5453 2.14892C10.6435 2.23615 11.5034 3.03303 11.4775 4.12197ZM15.2162 4.12197C15.2056 4.56959 15.0315 5.2335 14.2627 5.85456C13.9241 6.12799 13.7554 6.4026 13.7469 6.69397C13.7333 7.15792 14.1317 7.62444 14.2863 7.76507C14.5295 7.98132 14.5501 8.35268 14.3339 8.59585C14.2177 8.72651 14.0561 8.79292 13.8937 8.79292C13.7538 8.79292 13.6134 8.74362 13.5008 8.64354C13.4027 8.55628 12.5428 7.7594 12.5687 6.67045C12.5793 6.22284 12.7533 5.55893 13.5222 4.93787C13.8624 4.66307 14.0311 4.38705 14.0381 4.09404C14.0511 3.54408 13.5063 3.03439 13.5008 3.02947C13.2577 2.81318 13.2359 2.4408 13.4521 2.19763C13.6684 1.95447 14.0408 1.93267 14.284 2.14892C14.3821 2.23615 15.242 3.03303 15.2162 4.12197ZM18.9593 11.6151H18.2619V11.183C18.2619 10.8576 17.9981 10.5937 17.6727 10.5937H2.63463C2.30924 10.5937 2.04541 10.8575 2.04541 11.183V14.2926C2.04541 17.0404 3.56631 19.4565 5.84968 20.8215H2.63498C2.30959 20.8215 2.04576 21.0853 2.04576 21.4107C2.04576 21.7361 2.30951 21.9999 2.63498 21.9999H17.6727C17.9981 21.9999 18.262 21.7361 18.262 21.4107C18.262 21.0853 17.9982 20.8215 17.6727 20.8215H14.4577C15.7561 20.0453 16.808 18.9293 17.4738 17.6055H18.9593C20.6109 17.6055 21.9546 16.2618 21.9546 14.6103C21.9546 12.9587 20.6108 11.6151 18.9593 11.6151ZM17.0835 14.2926C17.0835 17.8926 13.9748 20.8215 10.1537 20.8215C6.33257 20.8215 3.22385 17.8926 3.22385 14.2926V11.7722H17.0835V14.2926H17.0835ZM18.9593 16.4271H17.9454C18.1513 15.749 18.2619 15.0329 18.2619 14.2926V12.7934H18.9593C19.9611 12.7934 20.7761 13.6085 20.7761 14.6103C20.7761 15.6121 19.9611 16.4271 18.9593 16.4271ZM7.7391 4.12197C7.72851 4.56959 7.55445 5.2335 6.78562 5.85456C6.44539 6.12932 6.27664 6.40538 6.26976 6.69838C6.25671 7.24835 6.80148 7.75804 6.80699 7.76296C7.05015 7.97925 7.07195 8.35163 6.8557 8.59479C6.73925 8.72569 6.57757 8.79245 6.41519 8.79245C6.27589 8.79245 6.13609 8.74335 6.02382 8.64351C5.9257 8.55624 5.06581 7.75936 5.09163 6.67045C5.10222 6.22284 5.27628 5.55893 6.04511 4.93787C6.38531 4.66307 6.55406 4.38705 6.56101 4.09404C6.57406 3.54408 6.02929 3.03439 6.02378 3.02947C5.78062 2.81318 5.75882 2.44076 5.97507 2.19763C6.19136 1.95447 6.56379 1.93267 6.80691 2.14892C6.90508 2.23615 7.76496 3.03303 7.7391 4.12197Z" fill="#2D2F35"/>
<path d="M10.524 5.85456L10.5869 5.93235L10.5869 5.93235L10.524 5.85456ZM11.4775 4.12197L11.3775 4.1196V4.11961L11.4775 4.12197ZM10.0082 6.69397L9.90824 6.69104L9.90824 6.69105L10.0082 6.69397ZM10.5477 7.76507L10.4804 7.83906L10.4812 7.83979L10.5477 7.76507ZM10.5952 8.59585L10.5205 8.5294L10.5205 8.5294L10.5952 8.59585ZM9.76219 8.64354L9.69573 8.71827L9.69573 8.71827L9.76219 8.64354ZM8.83004 6.67045L8.93001 6.67283L8.93001 6.67282L8.83004 6.67045ZM9.78351 4.93787L9.72068 4.86008L9.72068 4.86008L9.78351 4.93787ZM10.2994 4.09404L10.3994 4.09642V4.09642L10.2994 4.09404ZM9.76219 3.02947L9.82882 2.95491L9.82865 2.95475L9.76219 3.02947ZM9.71348 2.19763L9.63876 2.13117L9.63875 2.13118L9.71348 2.19763ZM10.5453 2.14892L10.4788 2.22364L10.4789 2.22368L10.5453 2.14892ZM14.2627 5.85456L14.3255 5.93235L14.3255 5.93235L14.2627 5.85456ZM15.2162 4.12197L15.1162 4.1196V4.11961L15.2162 4.12197ZM13.7469 6.69397L13.6469 6.69104L13.6469 6.69105L13.7469 6.69397ZM14.2863 7.76507L14.219 7.83906L14.2199 7.83979L14.2863 7.76507ZM14.3339 8.59585L14.2591 8.52939L14.2591 8.5294L14.3339 8.59585ZM13.5008 8.64354L13.4344 8.71827L13.4344 8.71827L13.5008 8.64354ZM12.5687 6.67045L12.6687 6.67283V6.67282L12.5687 6.67045ZM13.5222 4.93787L13.4593 4.86008L13.4593 4.86008L13.5222 4.93787ZM14.0381 4.09404L14.138 4.09642V4.09642L14.0381 4.09404ZM13.5008 3.02947L13.5675 2.95491L13.5673 2.95475L13.5008 3.02947ZM13.4521 2.19763L13.3774 2.13117L13.3774 2.13118L13.4521 2.19763ZM14.284 2.14892L14.2175 2.22364L14.2175 2.22368L14.284 2.14892ZM18.2619 11.6151H18.1619V11.7151H18.2619V11.6151ZM5.84968 20.8215V20.9215H6.21186L5.90098 20.7356L5.84968 20.8215ZM14.4577 20.8215L14.4064 20.7356L14.0955 20.9215H14.4577V20.8215ZM17.4738 17.6055V17.5055H17.4121L17.3844 17.5606L17.4738 17.6055ZM17.0835 14.2926L17.1835 14.2926L17.1835 14.1926H17.0835V14.2926ZM3.22385 11.7722V11.6722H3.12385V11.7722H3.22385ZM17.0835 11.7722H17.1835V11.6722H17.0835V11.7722ZM17.0835 14.2926H16.9835V14.3926H17.0835V14.2926ZM17.9454 16.4271L17.8497 16.398L17.8105 16.5271H17.9454V16.4271ZM18.2619 12.7934V12.6934H18.1619V12.7934H18.2619ZM6.78562 5.85456L6.84845 5.93235L6.84846 5.93235L6.78562 5.85456ZM7.7391 4.12197L7.63913 4.1196L7.63913 4.11961L7.7391 4.12197ZM6.26976 6.69838L6.36973 6.70076L6.36973 6.70073L6.26976 6.69838ZM6.80699 7.76296L6.74036 7.83753L6.74053 7.83768L6.80699 7.76296ZM6.8557 8.59479L6.93042 8.66126L6.93043 8.66125L6.8557 8.59479ZM6.02382 8.64351L6.09028 8.56878L6.09028 8.56878L6.02382 8.64351ZM5.09163 6.67045L5.19161 6.67283V6.67282L5.09163 6.67045ZM6.04511 4.93787L5.98227 4.86008L5.98227 4.86008L6.04511 4.93787ZM6.56101 4.09404L6.66098 4.09642V4.09642L6.56101 4.09404ZM6.02378 3.02947L6.09042 2.95491L6.09025 2.95475L6.02378 3.02947ZM5.97507 2.19763L5.90035 2.13117L5.90035 2.13117L5.97507 2.19763ZM6.80691 2.14892L6.74045 2.22364L6.74049 2.22368L6.80691 2.14892ZM10.5869 5.93235C11.3805 5.29122 11.5663 4.59868 11.5775 4.12434L11.3775 4.11961C11.3676 4.5405 11.2052 5.17578 10.4612 5.77676L10.5869 5.93235ZM10.1082 6.69691C10.1155 6.44668 10.2597 6.19662 10.5869 5.93235L10.4612 5.77676C10.1113 6.05937 9.91801 6.35853 9.90824 6.69104L10.1082 6.69691ZM10.6149 7.69108C10.5443 7.62683 10.4122 7.48234 10.3002 7.29869C10.1875 7.11389 10.1022 6.90104 10.1082 6.69689L9.90824 6.69105C9.90065 6.95084 10.0077 7.20323 10.1295 7.40283C10.2519 7.60359 10.3964 7.76268 10.4804 7.83905L10.6149 7.69108ZM10.6699 8.6623C10.9226 8.37813 10.8988 7.94353 10.6141 7.69034L10.4812 7.83979C10.6828 8.0191 10.7003 8.32724 10.5205 8.5294L10.6699 8.6623ZM10.1551 8.89292C10.3446 8.89292 10.5339 8.81531 10.6699 8.66229L10.5205 8.5294C10.4242 8.63772 10.2902 8.69292 10.1551 8.69292V8.89292ZM9.69573 8.71827C9.8273 8.83527 9.99168 8.89292 10.1551 8.89292V8.69292C10.0387 8.69292 9.92215 8.65197 9.82864 8.56882L9.69573 8.71827ZM8.73007 6.66808C8.7165 7.23959 8.93526 7.73082 9.16566 8.08695C9.39627 8.4434 9.6428 8.67119 9.69573 8.71827L9.82864 8.56882C9.78345 8.52863 9.55098 8.31435 9.33358 7.97831C9.11597 7.64194 8.91772 7.19027 8.93001 6.67283L8.73007 6.66808ZM9.72068 4.86008C8.927 5.50121 8.74129 6.19375 8.73007 6.66809L8.93001 6.67282C8.93997 6.25193 9.10237 5.61665 9.84635 5.01566L9.72068 4.86008ZM10.1994 4.09167C10.1935 4.34324 10.0495 4.5945 9.72068 4.86008L9.84635 5.01566C10.198 4.73164 10.3914 4.43086 10.3994 4.09642L10.1994 4.09167ZM9.69555 3.10404C9.6938 3.10247 9.8256 3.22524 9.95535 3.41401C10.0864 3.60471 10.2052 3.84816 10.1994 4.09167L10.3994 4.09642C10.4067 3.78997 10.2596 3.50359 10.1202 3.30073C9.97941 3.09593 9.83608 2.96139 9.82882 2.95491L9.69555 3.10404ZM9.63875 2.13118C9.3858 2.41561 9.4113 2.8512 9.69573 3.10419L9.82865 2.95475C9.62675 2.77516 9.60865 2.46598 9.7882 2.26409L9.63875 2.13118ZM10.6118 2.07421C10.3274 1.82124 9.89174 1.84675 9.63876 2.13117L9.7882 2.26409C9.96779 2.06219 10.277 2.04411 10.4788 2.22364L10.6118 2.07421ZM11.5775 4.12435C11.591 3.55284 11.3723 3.0616 11.1419 2.70548C10.9113 2.34904 10.6647 2.12125 10.6117 2.07417L10.4789 2.22368C10.5241 2.26382 10.7565 2.47809 10.974 2.81412C11.1916 3.15048 11.3898 3.60216 11.3775 4.1196L11.5775 4.12435ZM14.3255 5.93235C15.1192 5.29122 15.3049 4.59868 15.3161 4.12434L15.1162 4.11961C15.1062 4.5405 14.9438 5.17578 14.1998 5.77676L14.3255 5.93235ZM13.8468 6.69691C13.8542 6.44668 13.9983 6.19662 14.3255 5.93235L14.1998 5.77676C13.8499 6.05937 13.6567 6.35853 13.6469 6.69104L13.8468 6.69691ZM14.3536 7.69108C14.2829 7.62683 14.1509 7.48234 14.0389 7.29869C13.9262 7.11389 13.8409 6.90104 13.8468 6.69689L13.6469 6.69105C13.6393 6.95084 13.7464 7.20323 13.8681 7.40283C13.9906 7.60359 14.135 7.76268 14.219 7.83905L14.3536 7.69108ZM14.4086 8.6623C14.6613 8.37813 14.6375 7.94353 14.3528 7.69034L14.2199 7.83979C14.4215 8.0191 14.4389 8.32723 14.2591 8.52939L14.4086 8.6623ZM13.8937 8.89292C14.0833 8.89292 14.2725 8.81531 14.4086 8.66229L14.2591 8.5294C14.1628 8.63772 14.0289 8.69292 13.8937 8.69292V8.89292ZM13.4344 8.71827C13.566 8.83527 13.7303 8.89292 13.8937 8.89292V8.69292C13.7774 8.69292 13.6608 8.65197 13.5673 8.56882L13.4344 8.71827ZM12.4687 6.66808C12.4551 7.23959 12.6739 7.73083 12.9043 8.08695C13.1349 8.44341 13.3815 8.6712 13.4344 8.71827L13.5673 8.56882C13.5221 8.52863 13.2896 8.31435 13.0722 7.97831C12.8546 7.64194 12.6564 7.19027 12.6687 6.67283L12.4687 6.66808ZM13.4593 4.86008C12.6657 5.50121 12.4799 6.19375 12.4687 6.66809L12.6687 6.67282C12.6786 6.25193 12.841 5.61665 13.585 5.01566L13.4593 4.86008ZM13.9381 4.09167C13.9321 4.34324 13.7881 4.5945 13.4593 4.86008L13.585 5.01566C13.9366 4.73164 14.1301 4.43086 14.138 4.09642L13.9381 4.09167ZM13.4342 3.10404C13.4325 3.10247 13.5643 3.22524 13.694 3.41401C13.8251 3.60471 13.9439 3.84816 13.9381 4.09167L14.138 4.09642C14.1453 3.78997 13.9983 3.50359 13.8588 3.30073C13.7181 3.09593 13.5747 2.96139 13.5675 2.95491L13.4342 3.10404ZM13.3774 2.13118C13.1245 2.41561 13.15 2.8512 13.4344 3.10419L13.5673 2.95475C13.3654 2.77516 13.3473 2.46598 13.5269 2.26409L13.3774 2.13118ZM14.3504 2.0742C14.066 1.82124 13.6304 1.84675 13.3774 2.13117L13.5268 2.2641C13.7064 2.06219 14.0157 2.0441 14.2175 2.22364L14.3504 2.0742ZM15.3161 4.12435C15.3297 3.55284 15.1109 3.0616 14.8805 2.70548C14.6499 2.34904 14.4034 2.12125 14.3504 2.07417L14.2175 2.22368C14.2627 2.26382 14.4952 2.47809 14.7126 2.81412C14.9302 3.15048 15.1285 3.60216 15.1162 4.1196L15.3161 4.12435ZM18.2619 11.7151H18.9593V11.5151H18.2619V11.7151ZM18.1619 11.183V11.6151H18.3619V11.183H18.1619ZM17.6727 10.6937C17.9429 10.6937 18.1619 10.9128 18.1619 11.183H18.3619C18.3619 10.8023 18.0534 10.4937 17.6727 10.4937V10.6937ZM2.63463 10.6937H17.6727V10.4937H2.63463V10.6937ZM2.14541 11.183C2.14541 10.9128 2.36446 10.6937 2.63463 10.6937V10.4937C2.25401 10.4937 1.94541 10.8023 1.94541 11.183H2.14541ZM2.14541 14.2926V11.183H1.94541V14.2926H2.14541ZM5.90098 20.7356C3.64501 19.3871 2.14541 17.0021 2.14541 14.2926H1.94541C1.94541 17.0787 3.48761 19.526 5.79837 20.9073L5.90098 20.7356ZM2.63498 20.9215H5.84968V20.7215H2.63498V20.9215ZM2.14576 21.4107C2.14576 21.1405 2.36481 20.9215 2.63498 20.9215V20.7215C2.25437 20.7215 1.94576 21.03 1.94576 21.4107H2.14576ZM2.63498 21.8999C2.36474 21.8999 2.14576 21.6809 2.14576 21.4107H1.94576C1.94576 21.7913 2.25428 22.0999 2.63498 22.0999V21.8999ZM17.6727 21.8999H2.63498V22.0999H17.6727V21.8999ZM18.162 21.4107C18.162 21.6809 17.9429 21.8999 17.6727 21.8999V22.0999C18.0534 22.0999 18.362 21.7913 18.362 21.4107H18.162ZM17.6727 20.9215C17.9429 20.9215 18.162 21.1405 18.162 21.4107H18.362C18.362 21.03 18.0534 20.7215 17.6727 20.7215V20.9215ZM14.4577 20.9215H17.6727V20.7215H14.4577V20.9215ZM17.3844 17.5606C16.7275 18.8668 15.6891 19.9688 14.4064 20.7356L14.509 20.9073C15.8232 20.1217 16.8885 18.9918 17.5631 17.6504L17.3844 17.5606ZM18.9593 17.5055H17.4738V17.7055H18.9593V17.5055ZM21.8546 14.6103C21.8546 16.2066 20.5556 17.5055 18.9593 17.5055V17.7055C20.6661 17.7055 22.0546 16.317 22.0546 14.6103H21.8546ZM18.9593 11.7151C20.5556 11.7151 21.8546 13.0139 21.8546 14.6103H22.0546C22.0546 12.9035 20.6661 11.5151 18.9593 11.5151V11.7151ZM10.1537 20.9215C14.0243 20.9215 17.1835 17.9534 17.1835 14.2926L16.9835 14.2926C16.9835 17.8319 13.9252 20.7215 10.1537 20.7215V20.9215ZM3.12385 14.2926C3.12385 17.9534 6.28304 20.9215 10.1537 20.9215V20.7215C6.3821 20.7215 3.32385 17.8319 3.32385 14.2926H3.12385ZM3.12385 11.7722V14.2926H3.32385V11.7722H3.12385ZM17.0835 11.6722H3.22385V11.8722H17.0835V11.6722ZM17.1835 14.2926V11.7722H16.9835V14.2926H17.1835ZM17.0835 14.1926H17.0835V14.3926H17.0835V14.1926ZM17.9454 16.5271H18.9593V16.3271H17.9454V16.5271ZM18.1619 14.2926C18.1619 15.0228 18.0528 15.7292 17.8497 16.398L18.041 16.4561C18.2498 15.7688 18.3619 15.0429 18.3619 14.2926H18.1619ZM18.1619 12.7934V14.2926H18.3619V12.7934H18.1619ZM18.9593 12.6934H18.2619V12.8934H18.9593V12.6934ZM20.8761 14.6103C20.8761 13.5532 20.0163 12.6934 18.9593 12.6934V12.8934C19.9058 12.8934 20.6761 13.6637 20.6761 14.6103H20.8761ZM18.9593 16.5271C20.0163 16.5271 20.8761 15.6673 20.8761 14.6103H20.6761C20.6761 15.5568 19.9058 16.3271 18.9593 16.3271V16.5271ZM6.84846 5.93235C7.64213 5.29122 7.82785 4.59868 7.83907 4.12434L7.63913 4.11961C7.62917 4.5405 7.46677 5.17578 6.72278 5.77676L6.84846 5.93235ZM6.36973 6.70073C6.37564 6.44918 6.51964 6.19789 6.84845 5.93235L6.72279 5.77676C6.37113 6.06075 6.17764 6.36157 6.16979 6.69604L6.36973 6.70073ZM6.87362 7.68839C6.87538 7.68996 6.74357 7.56719 6.61383 7.37842C6.48276 7.18772 6.36396 6.94427 6.36973 6.70076L6.16979 6.69601C6.16252 7.00246 6.30957 7.28884 6.44901 7.4917C6.58976 7.6965 6.73309 7.83103 6.74036 7.83753L6.87362 7.68839ZM6.93043 8.66125C7.18338 8.37682 7.15788 7.94123 6.87345 7.68824L6.74053 7.83768C6.94243 8.01726 6.96052 8.32644 6.78097 8.52834L6.93043 8.66125ZM6.41519 8.89245C6.60492 8.89245 6.79421 8.81437 6.93042 8.66126L6.78098 8.52833C6.6843 8.63702 6.55022 8.69245 6.41519 8.69245V8.89245ZM5.95737 8.71823C6.08863 8.83497 6.25234 8.89245 6.41519 8.89245V8.69245C6.29945 8.69245 6.18354 8.65173 6.09028 8.56878L5.95737 8.71823ZM4.99166 6.66808C4.97811 7.23957 5.19689 7.7308 5.42729 8.08692C5.6579 8.44337 5.90444 8.67116 5.95737 8.71823L6.09028 8.56878C6.04509 8.52859 5.81261 8.31431 5.59521 7.97828C5.37759 7.64191 5.17934 7.19025 5.19161 6.67283L4.99166 6.66808ZM5.98227 4.86008C5.1886 5.50121 5.00288 6.19375 4.99166 6.66809L5.19161 6.67282C5.20156 6.25193 5.36397 5.61665 6.10795 5.01566L5.98227 4.86008ZM6.46104 4.09167C6.45507 4.34324 6.31105 4.5945 5.98227 4.86008L6.10795 5.01566C6.45957 4.73164 6.65305 4.43086 6.66098 4.09642L6.46104 4.09167ZM5.95715 3.10404C5.9554 3.10247 6.0872 3.22524 6.21694 3.41401C6.34801 3.60471 6.46682 3.84816 6.46104 4.09167L6.66098 4.09642C6.66825 3.78997 6.5212 3.50359 6.38177 3.30073C6.24101 3.09593 6.09768 2.96139 6.09042 2.95491L5.95715 3.10404ZM5.90035 2.13117C5.64739 2.41557 5.6729 2.8512 5.95732 3.10419L6.09025 2.95475C5.88834 2.77516 5.87025 2.46595 6.04979 2.26409L5.90035 2.13117ZM6.87337 2.0742C6.58897 1.82124 6.15334 1.84675 5.90035 2.13117L6.04979 2.26409C6.22938 2.06219 6.5386 2.0441 6.74045 2.22364L6.87337 2.0742ZM7.83907 4.12435C7.85264 3.55284 7.63388 3.0616 7.40347 2.70548C7.17286 2.34904 6.92632 2.12125 6.87333 2.07417L6.74049 2.22368C6.78567 2.26382 7.01815 2.47809 7.23555 2.81412C7.45317 3.15048 7.65142 3.60216 7.63913 4.1196L7.83907 4.12435Z" fill="#2D2F35"/>
</svg>
