<svg width="24" height="24" viewBox="0 0 24 24" fill="none" xmlns="http://www.w3.org/2000/svg">
<g clip-path="url(#clip0)">
<path d="M18.3633 15.9902C17.0332 15.9902 15.9512 14.9082 15.9512 13.5781C15.9512 12.2481 17.0332 11.166 18.3633 11.166C19.6933 11.166 20.7754 12.2481 20.7754 13.5781C20.7754 14.9082 19.6933 15.9902 18.3633 15.9902ZM18.3633 12.6504C17.8517 12.6504 17.4355 13.0666 17.4355 13.5781C17.4355 14.0897 17.8517 14.5059 18.3633 14.5059C18.8748 14.5059 19.291 14.0897 19.291 13.5781C19.291 13.0666 18.8748 12.6504 18.3633 12.6504ZM12.2773 16.3984C10.9473 16.3984 9.86523 15.3164 9.86523 13.9863C9.86523 12.6563 10.9473 11.5742 12.2773 11.5742C13.6074 11.5742 14.6895 12.6563 14.6895 13.9863C14.6895 15.3164 13.6074 16.3984 12.2773 16.3984ZM12.2773 13.0586C11.7658 13.0586 11.3496 13.4748 11.3496 13.9863C11.3496 14.4979 11.7658 14.9141 12.2773 14.9141C12.7889 14.9141 13.2051 14.4979 13.2051 13.9863C13.2051 13.4748 12.7889 13.0586 12.2773 13.0586ZM10.3477 20.2578C10.3477 19.4598 11.0051 18.8105 11.8131 18.8105H13.0938C13.5037 18.8105 13.8359 18.4783 13.8359 18.0684C13.8359 17.6584 13.5037 17.3262 13.0938 17.3262H11.8131C10.1866 17.3262 8.86328 18.6413 8.86328 20.2578C8.86328 20.6677 9.19556 21 9.60547 21C10.0154 21 10.3477 20.6677 10.3477 20.2578ZM6.26562 16.3984C4.93559 16.3984 3.85352 15.3164 3.85352 13.9863C3.85352 12.6563 4.93559 11.5742 6.26562 11.5742C7.59566 11.5742 8.67773 12.6563 8.67773 13.9863C8.67773 15.3164 7.59566 16.3984 6.26562 16.3984ZM6.26562 13.0586C5.75407 13.0586 5.33789 13.4748 5.33789 13.9863C5.33789 14.4979 5.75407 14.9141 6.26562 14.9141C6.77718 14.9141 7.19336 14.4979 7.19336 13.9863C7.19336 13.4748 6.77718 13.0586 6.26562 13.0586ZM4.48438 20.2578C4.48438 19.4598 5.1418 18.8105 5.94986 18.8105H7.45312C7.86304 18.8105 8.19531 18.4783 8.19531 18.0684C8.19531 17.6584 7.86304 17.3262 7.45312 17.3262H5.94986C4.32328 17.3262 3 18.6413 3 20.2578C3 20.6677 3.33228 21 3.74219 21C4.1521 21 4.48438 20.6677 4.48438 20.2578ZM16.0998 10.2383C15.9066 10.2383 15.7168 10.1629 15.5748 10.0209L15.5077 9.9538C15.1465 9.59265 14.5975 9.50244 14.1415 9.72947C13.4634 10.0671 12.7307 10.2382 11.964 10.2382C11.9632 10.2382 11.9624 10.2382 11.9616 10.2382H7.11914C4.84782 10.2383 3 8.39046 3 6.11914C3 3.84782 4.84782 2 7.11914 2H12.7227C14.994 2 16.8418 3.84782 16.8418 6.11914V9.49609C16.8418 9.79627 16.661 10.0669 16.3836 10.1818C16.2918 10.2198 16.1954 10.2383 16.0998 10.2383ZM7.11914 3.48438C5.66635 3.48438 4.48438 4.66635 4.48438 6.11914C4.48438 7.57194 5.66635 8.75391 7.11914 8.75391H11.9619H11.9636C12.4991 8.75391 13.0091 8.63508 13.4798 8.4007C14.0765 8.10364 14.7437 8.04727 15.3574 8.21118V6.11914C15.3574 4.66635 14.1755 3.48438 12.7227 3.48438H7.11914ZM21.2578 21C20.8479 21 20.5156 20.6677 20.5156 20.2578C20.5156 19.1756 19.6297 18.2951 18.5407 18.2951H18.0375C16.9484 18.2951 16.0625 19.1756 16.0625 20.2578C16.0625 20.6677 15.7302 21 15.3203 21C14.9104 21 14.5781 20.6677 14.5781 20.2578C14.5781 18.3571 16.13 16.8108 18.0375 16.8108H18.5407C20.4482 16.8108 22 18.3571 22 20.2578C22 20.6677 21.6677 21 21.2578 21ZM5.96875 6.11914C5.96875 6.63151 6.38412 7.04688 6.89648 7.04688C7.40885 7.04688 7.82422 6.63151 7.82422 6.11914C7.82422 5.60677 7.40885 5.19141 6.89648 5.19141C6.38412 5.19141 5.96875 5.60677 5.96875 6.11914ZM8.9375 6.11914C8.9375 6.63151 9.35287 7.04688 9.86523 7.04688C10.3776 7.04688 10.793 6.63151 10.793 6.11914C10.793 5.60677 10.3776 5.19141 9.86523 5.19141C9.35287 5.19141 8.9375 5.60677 8.9375 6.11914ZM11.9062 6.11914C11.9062 6.63151 12.3216 7.04688 12.834 7.04688C13.3464 7.04688 13.7617 6.63151 13.7617 6.11914C13.7617 5.60677 13.3464 5.19141 12.834 5.19141C12.3216 5.19141 11.9062 5.60677 11.9062 6.11914Z" fill="#2D2F35"/>
</g>
<defs>
<clipPath id="clip0">
<rect width="19" height="19" fill="white" transform="translate(3 2)"/>
</clipPath>
</defs>
</svg>
