<svg width="24" height="24" viewBox="0 0 24 24" fill="none" xmlns="http://www.w3.org/2000/svg">
<g clip-path="url(#clip0)">
<path d="M5.55561 17.6903C4.62113 17.3121 3.72452 16.8643 3.1041 16.513C2.82226 16.3534 2.4587 16.4311 2.28174 16.7023C2.10456 16.974 2.17963 17.3378 2.45923 17.5021C4.54984 18.7304 8.30339 20.2227 11.961 20.2227C15.4969 20.2227 19.2757 18.7893 21.4648 17.5011C21.7431 17.3373 21.818 16.9749 21.6415 16.7045C21.4642 16.4327 21.097 16.3523 20.8146 16.5122C20.3111 16.7972 19.4567 17.2463 18.366 17.6879C18.2384 16.6558 17.8564 15.6684 17.2407 14.7896V12.5948C17.7312 12.9639 18.3408 13.183 19.0006 13.183C19.9709 13.183 20.7604 12.3935 20.7604 11.4231C20.7604 10.4526 19.9709 9.66313 19.0006 9.66313C18.3193 9.66313 12.3728 9.66313 11.3744 9.66313V7.90333C11.3744 5.63907 9.53221 3.79688 7.26795 3.79688C6.50519 3.79688 4.82635 3.79688 3.74749 3.79688C3.4235 3.79688 3.1615 4.05952 3.1615 4.3835C3.1615 4.70748 3.42414 4.97013 3.74813 4.97013H4.33475V9.83653C4.33475 10.3888 4.78247 10.8365 5.33475 10.8365H6.68125V14.7896C6.0651 15.6692 5.68287 16.6573 5.55561 17.6903ZM19.0006 10.8365C19.3239 10.8365 19.5872 11.0996 19.5872 11.4231C19.5872 11.7466 19.3239 12.0098 19.0006 12.0098C18.2357 12.0098 17.5832 11.5194 17.3412 10.8365H19.0006ZM9.0421 18.7461C9.0331 18.6521 9.02775 18.5575 9.02775 18.4627C9.02775 16.8453 10.3437 15.5295 11.961 15.5295C13.5784 15.5295 14.8942 16.8453 14.8942 18.4627C14.8942 18.558 14.8888 18.6529 14.8797 18.7473C13.9521 18.933 12.9688 19.0493 11.961 19.0493C10.9479 19.0493 9.96144 18.93 9.0421 18.7461ZM13.7209 10.8365V12.0098H11.3743V10.8365H13.7209ZM5.508 9.66313V4.97013H7.2678C8.88524 4.97013 10.201 6.28589 10.201 7.90333V12.183C10.201 12.7353 10.6487 13.183 11.201 13.183H13.8942C14.4464 13.183 14.8942 12.7353 14.8942 12.183V10.8365H16.0674V15.1735C16.1233 15.2729 17.1075 16.3595 17.2277 18.1115C16.8578 18.2371 16.4699 18.357 16.0674 18.4664V18.4627C16.0674 16.1985 14.2252 14.3563 11.961 14.3563C9.6967 14.3563 7.8545 16.1985 7.8545 18.4627V18.4662C7.44648 18.3556 7.0583 18.2358 6.69407 18.1127C6.81355 16.3657 7.80156 15.2677 7.8545 15.1735V9.34925C8.40201 9.03259 8.7986 8.50641 8.95464 7.89718C9.03503 7.58333 8.76511 7.31663 8.44113 7.31663C8.11715 7.31663 7.86607 7.59479 7.71068 7.87908C7.5749 8.1275 7.35081 8.32489 7.07234 8.42335L6.68125 8.56159V9.66313H5.508Z" fill="#2D2F35" stroke="#2D2F35" stroke-width="0.1"/>
</g>
<defs>
<clipPath id="clip0">
<rect width="20" height="20" fill="white" transform="translate(2 2)"/>
</clipPath>
</defs>
</svg>
