<svg width="25" height="24" viewBox="0 0 25 24" fill="none" xmlns="http://www.w3.org/2000/svg">
<path fill-rule="evenodd" clip-rule="evenodd" d="M12.4454 0.256104C12.6941 0.256971 12.94 0.31317 13.1641 0.421143C13.3888 0.529509 13.5864 0.687268 13.7422 0.88208C13.898 1.07687 14.0082 1.30419 14.0645 1.54712C14.1208 1.79033 14.1218 2.04372 14.0674 2.28735V2.28931C13.9719 2.71317 13.9721 3.1537 14.0684 3.57739C14.1648 4.00087 14.3548 4.39776 14.6241 4.73853C14.8936 5.07946 15.2369 5.35652 15.627 5.5481C16.0171 5.73957 16.4454 5.84116 16.8799 5.84595C17.3175 5.84983 17.7355 6.02583 18.045 6.33521C18.3542 6.64447 18.53 7.06297 18.5342 7.50024L18.5401 7.66235C18.5653 8.04088 18.6645 8.41168 18.8321 8.75317C19.0236 9.1433 19.2998 9.48651 19.6407 9.7561C19.9815 10.0256 20.3791 10.2153 20.8028 10.3118C21.2265 10.4081 21.6669 10.4083 22.0909 10.3127H22.0928C22.3361 10.2583 22.5891 10.2587 22.8321 10.3147C23.075 10.3708 23.3022 10.4815 23.4971 10.637C23.692 10.7926 23.8505 10.9896 23.959 11.2141C24.0671 11.4378 24.1238 11.6835 24.125 11.9319L24.1143 12.5149C24.0568 13.8735 23.7633 15.2134 23.2452 16.4739C22.6531 17.914 21.7791 19.2208 20.6758 20.3196L20.6768 20.3206C16.1535 24.8359 8.76778 24.8873 4.18559 20.4309C2.5047 18.7972 1.35054 16.6973 0.872112 14.4026C0.39383 12.1079 0.61292 9.72222 1.50102 7.55298C2.3892 5.38362 3.90615 3.5292 5.85649 2.22876C7.80584 0.929015 10.0996 0.242653 12.4424 0.256104L12.4463 0.255127L12.4454 0.256104ZM12.4366 1.75513C10.3918 1.74284 8.38979 2.34245 6.68852 3.47681C4.98722 4.6112 3.66449 6.22901 2.88969 8.12134C2.11493 10.0137 1.92356 12.0951 2.34086 14.0969C2.75822 16.0986 3.76524 17.9296 5.23149 19.3547C9.22552 23.239 15.6728 23.1954 19.6163 19.259L19.6172 19.2581C20.5795 18.2999 21.3411 17.1596 21.8575 15.9036C22.3738 14.6475 22.6352 13.3007 22.625 11.9426L23.375 11.9377L22.625 11.9397C22.6249 11.9148 22.6192 11.8899 22.6084 11.8674C22.5975 11.8449 22.5811 11.8244 22.5616 11.8088C22.542 11.7933 22.5185 11.7822 22.4942 11.7766C22.4699 11.7711 22.4443 11.7712 22.42 11.7766L22.419 11.7756C21.7775 11.92 21.1119 11.9204 20.4707 11.7747C19.8289 11.6286 19.2273 11.3402 18.711 10.9319C18.1947 10.5236 17.7755 10.0052 17.4854 9.41431C17.1954 8.82349 17.0415 8.17494 17.0342 7.51685V7.51489C17.0338 7.47044 17.0158 7.4272 16.9844 7.39575C16.9529 7.3644 16.9097 7.34632 16.8653 7.34595H16.8633C16.2052 7.33868 15.5567 7.18478 14.9659 6.89478C14.375 6.60464 13.8556 6.18556 13.4473 5.66919C13.0392 5.15285 12.7514 4.5512 12.6055 3.90942C12.4597 3.26806 12.4591 2.60185 12.6036 1.96021C12.609 1.9358 12.6091 1.91035 12.6036 1.88599C12.5979 1.86166 12.5869 1.83814 12.5713 1.8186C12.5556 1.79906 12.5353 1.78261 12.5127 1.77173C12.4901 1.76089 12.4646 1.75518 12.4395 1.75513H12.4366ZM15.584 15.6721C16.3434 15.6722 16.959 16.2878 16.959 17.0471C16.9588 17.8063 16.3432 18.422 15.584 18.4221C14.8248 18.4221 14.2093 17.8063 14.209 17.0471C14.209 16.2877 14.8246 15.6721 15.584 15.6721ZM8.25004 14.7551C9.00944 14.7551 9.62504 15.3707 9.62504 16.1301C9.62498 16.8895 9.0094 17.5051 8.25004 17.5051C7.4909 17.5049 6.87511 16.8893 6.87504 16.1301C6.87504 15.3709 7.49086 14.7554 8.25004 14.7551ZM13.292 10.1721C14.0514 10.1721 14.667 10.7877 14.667 11.5471C14.6668 12.3063 14.0513 12.9221 13.292 12.9221C12.5329 12.922 11.9173 12.3062 11.917 11.5471C11.917 10.7878 12.5327 10.1722 13.292 10.1721ZM7.33403 8.33813C8.09328 8.33824 8.70894 8.95388 8.70903 9.71313C8.70903 10.4725 8.09333 11.088 7.33403 11.0881C6.57463 11.0881 5.95903 10.4725 5.95903 9.71313C5.95911 8.95381 6.57468 8.33813 7.33403 8.33813Z" fill="#2C2C2C"/>
</svg>
