<svg width="24" height="24" viewBox="0 0 24 24" fill="none" xmlns="http://www.w3.org/2000/svg">
<path d="M21.0001 20.2969C21.0001 20.6852 20.6854 21 20.297 21H3.7033C3.31493 21 3.00017 20.6852 3.00017 20.2969C3.00017 19.9085 3.31493 19.5937 3.7033 19.5937H11.3066L11.2982 16.5836L9.37337 15.6212L7.67487 17.3196C7.4502 17.5442 7.09864 17.5927 6.81959 17.4275L3.34514 15.3707C3.01088 15.1728 2.90033 14.7416 3.09822 14.4075C3.29598 14.0733 3.72733 13.9628 4.06145 14.1605L7.06637 15.9395L8.67615 14.3296L10.4237 11.4197L9.14472 10.1428L7.54936 11.2029C7.22608 11.4178 6.78965 11.3298 6.57473 11.0063C6.35981 10.6829 6.4477 10.2465 6.77111 10.0316L8.84534 8.65333C9.12398 8.46821 9.49449 8.50502 9.73125 8.74136L13.4742 12.4781L15.0668 11.4152C15.3898 11.1996 15.8264 11.2868 16.042 11.6098C16.2576 11.9328 16.1705 12.3693 15.8475 12.585L13.7756 13.9677C13.4959 14.1544 13.1248 14.1165 12.8885 13.8805L11.4491 12.4436L10.2284 14.4765L12.3146 15.5196C12.5521 15.6384 12.7025 15.881 12.7032 16.1466L12.7128 19.5939H16.8283V4.40626H7.17197V7.85393C7.17197 8.2423 6.85721 8.55706 6.46885 8.55706C6.08061 8.55706 5.76572 8.2423 5.76572 7.85393V3.70313C5.76572 3.31476 6.08061 3 6.46885 3H17.5314C17.9197 3 18.2346 3.31476 18.2346 3.70313V19.5937H20.297C20.6854 19.5937 21.0001 19.9085 21.0001 20.2969ZM13.3852 9.94204C12.2338 9.94204 11.2971 9.00531 11.2971 7.8538C11.2971 6.70242 12.2338 5.76569 13.3852 5.76569C14.5367 5.76569 15.4734 6.70242 15.4734 7.8538C15.4734 9.00531 14.5367 9.94204 13.3852 9.94204ZM13.3852 8.53578C13.7613 8.53578 14.0672 8.22994 14.0672 7.8538C14.0672 7.47779 13.7613 7.17195 13.3852 7.17195C13.0092 7.17195 12.7033 7.47779 12.7033 7.8538C12.7033 8.22994 13.0092 8.53578 13.3852 8.53578Z" fill="#2D2F35"/>
</svg>
