<svg width="24" height="24" viewBox="0 0 24 24" fill="none" xmlns="http://www.w3.org/2000/svg">
<path d="M21.6094 4.67578H2.39062C2.17492 4.67578 2 4.8507 2 5.06641V18.9338C2 19.1495 2.17492 19.3244 2.39062 19.3244H21.6094C21.8251 19.3244 22 19.1495 22 18.9338V5.06641C22 4.8507 21.8251 4.67578 21.6094 4.67578ZM11.6094 14.5478C10.3729 14.359 9.4227 13.2884 9.4227 12.0001C9.4227 10.7117 10.3729 9.64113 11.6094 9.45234V14.5478ZM12.3906 9.45234C13.6271 9.64113 14.5773 10.7117 14.5773 12.0001C14.5773 13.2884 13.6271 14.359 12.3906 14.5478V9.45234ZM2.78125 9.2707H5.1059V14.7295H2.78125V9.2707ZM2.78125 15.5107H5.49652C5.71223 15.5107 5.88715 15.3358 5.88715 15.1201V8.88008C5.88715 8.66437 5.71223 8.48945 5.49652 8.48945H2.78125V5.45703H11.6094V8.66414C9.94082 8.85828 8.64145 10.2803 8.64145 12.0001C8.64145 13.7199 9.94078 15.1419 11.6094 15.336V18.5431H2.78125V15.5107ZM12.3906 18.5431V15.336C14.0592 15.1419 15.3586 13.7199 15.3586 12.0001C15.3586 10.2803 14.0592 8.85828 12.3906 8.66414V5.45703H21.2188V8.48945H18.5035C18.2878 8.48945 18.1129 8.66437 18.1129 8.88008V15.1201C18.1129 15.3358 18.2878 15.5107 18.5035 15.5107H21.2188V18.5431H12.3906ZM21.2188 14.7295H18.8941V9.2707H21.2188V14.7295Z" fill="#2D2F35" stroke="#2D2F35" stroke-width="0.5"/>
</svg>
