<svg width="24" height="24" viewBox="0 0 24 24" fill="none" xmlns="http://www.w3.org/2000/svg">
<path d="M19.0711 4.92891C17.1823 3.0402 14.6711 2 12 2C9.32891 2 6.8177 3.0402 4.92891 4.92891C3.0402 6.8177 2 9.32891 2 12C2 14.6711 3.0402 17.1823 4.92891 19.0711C6.8177 20.9598 9.32891 22 12 22C14.6711 22 17.1823 20.9598 19.0711 19.0711C20.9598 17.1823 22 14.6711 22 12C22 9.32891 20.9598 6.8177 19.0711 4.92891ZM18.2424 18.2424C16.575 19.9098 14.3581 20.8281 12 20.8281C9.64191 20.8281 7.425 19.9098 5.75758 18.2424C4.09016 16.575 3.17188 14.3581 3.17188 12C3.17188 9.64191 4.09016 7.425 5.75758 5.75758C7.425 4.09016 9.64191 3.17188 12 3.17188C14.3581 3.17188 16.575 4.09016 18.2424 5.75758C19.9098 7.425 20.8281 9.64191 20.8281 12C20.8281 14.3581 19.9098 16.575 18.2424 18.2424Z" fill="#2D2F35"/>
<path d="M14.4712 9.52891V6.0791H9.52891V9.52891H6.0791V14.4712H9.52891V17.921H14.4712V14.4712H17.921V9.52891H14.4712ZM16.7492 13.2993H13.2994V16.7491H10.7008V13.2993H7.25102V10.7008H10.7008V7.25098H13.2994V10.7008H16.7492V13.2993Z" fill="#2D2F35"/>
</svg>
