<svg width="24" height="24" viewBox="0 0 24 24" fill="none" xmlns="http://www.w3.org/2000/svg">
<path fill-rule="evenodd" clip-rule="evenodd" d="M12.0001 18.4833C10.9241 18.4833 9.94235 18.143 9.23448 17.5467C7.53715 18.9765 4.41645 18.7752 3.12559 16.9156C2.90414 16.5966 2.98324 16.1585 3.30225 15.9371C3.62118 15.7157 4.05933 15.7947 4.28078 16.1138C5.1723 17.3981 7.76573 17.3974 8.65676 16.1138C8.78814 15.9245 9.00393 15.8116 9.23437 15.8116C9.46482 15.8116 9.68057 15.9245 9.81199 16.1137C10.7035 17.3981 13.297 17.3973 14.188 16.1137C14.3194 15.9245 14.5352 15.8116 14.7656 15.8116C14.9961 15.8116 15.2118 15.9245 15.3432 16.1138C16.2347 17.3981 18.8282 17.3973 19.7192 16.1138C19.9406 15.7948 20.3787 15.7157 20.6977 15.9371C21.0167 16.1585 21.0958 16.5966 20.8744 16.9156C19.5847 18.7735 16.4624 18.9761 14.7657 17.5467C14.0577 18.143 13.076 18.4833 12.0001 18.4833ZM19.7192 19.2778C19.9406 18.9588 20.3787 18.8798 20.6977 19.1011C21.0167 19.3226 21.0958 19.7606 20.8743 20.0796C19.5846 21.9376 16.4623 22.1402 14.7656 20.7107C13.2905 21.9534 10.7269 21.9681 9.23437 20.7107C7.53715 22.1406 4.41645 21.9393 3.12559 20.0796C2.90414 19.7606 2.98324 19.3226 3.30225 19.1011C3.62118 18.8798 4.05933 18.9588 4.28078 19.2778C5.1723 20.5621 7.76573 20.5615 8.65676 19.2778C8.78814 19.0886 9.00393 18.9756 9.23437 18.9756C9.46482 18.9756 9.68057 19.0885 9.81199 19.2778C10.7035 20.5621 13.297 20.5614 14.188 19.2778C14.3194 19.0885 14.5352 18.9756 14.7656 18.9756C14.9961 18.9756 15.2118 19.0885 15.3432 19.2778C16.2347 20.5621 18.8282 20.5614 19.7192 19.2778Z" fill="#2D2F35"/>
<path fill-rule="evenodd" clip-rule="evenodd" d="M12.0001 3.92264C12.2747 3.92264 12.4973 3.70002 12.4973 3.42541V2.49724C12.4973 2.22263 12.2747 2 12.0001 2C11.7255 2 11.5029 2.22263 11.5029 2.49724V3.42541C11.5029 3.70002 11.7255 3.92264 12.0001 3.92264ZM12.0001 4.35308C9.97118 4.35308 8.32056 6.0037 8.32056 8.03262C8.32056 10.0615 9.97118 11.7122 12.0001 11.7122C14.029 11.7122 15.6796 10.0615 15.6796 8.03262C15.6796 6.0037 14.029 4.35308 12.0001 4.35308ZM12.0001 10.7177C10.5195 10.7177 9.31503 9.51319 9.31503 8.03262C9.31503 6.55205 10.5195 5.34755 12.0001 5.34755C13.4807 5.34755 14.6852 6.55205 14.6852 8.03262C14.6852 9.51319 13.4807 10.7177 12.0001 10.7177ZM11.5358 13.5027V12.5746C11.5358 12.3 11.7585 12.0773 12.0331 12.0773C12.3077 12.0773 12.5303 12.3 12.5303 12.5746V13.5027C12.5303 13.7774 12.3077 14 12.0331 14C11.7585 14 11.5358 13.7774 11.5358 13.5027ZM9.28199 4.28681C9.37408 4.44633 9.54122 4.5355 9.71306 4.5355C9.79739 4.5355 9.88298 4.51402 9.96121 4.4688C10.199 4.3315 10.2805 4.02739 10.1432 3.78958L9.67912 2.98578C9.54181 2.74797 9.23757 2.66649 8.9999 2.80379C8.76209 2.9411 8.68061 3.2452 8.81791 3.48302L9.28199 4.28681ZM13.8854 12.1934C13.7481 11.9556 13.8296 11.6515 14.0674 11.5142C14.3051 11.3768 14.6094 11.4583 14.7467 11.6962L15.2108 12.5C15.3481 12.7378 15.2666 13.0419 15.0288 13.1792C14.9505 13.2244 14.8649 13.2459 14.7806 13.2459C14.6088 13.2459 14.4416 13.1567 14.3495 12.9972L13.8854 12.1934ZM6.98607 5.67829L7.78986 6.14237C7.86815 6.18759 7.95368 6.20907 8.03801 6.20907C8.20985 6.20907 8.37699 6.1199 8.46907 5.96038C8.60637 5.72257 8.52489 5.41847 8.28709 5.28116L7.4833 4.81708C7.24549 4.67971 6.94139 4.76119 6.80408 4.99906C6.66678 5.23688 6.74826 5.54098 6.98607 5.67829ZM16.5335 11.1532L15.7297 10.6891C15.4919 10.5518 15.4104 10.2477 15.5478 10.0099C15.6851 9.77202 15.9892 9.69054 16.227 9.82791L17.0308 10.292C17.2686 10.4293 17.3501 10.7334 17.2128 10.9712C17.1207 11.1307 16.9535 11.2199 16.7817 11.2199C16.6974 11.2199 16.6118 11.1984 16.5335 11.1532ZM6.49724 8.4969H7.42541C7.70002 8.4969 7.92264 8.27427 7.92264 7.99966C7.92264 7.72506 7.70002 7.50243 7.42541 7.50243H6.49724C6.22263 7.50243 6 7.72506 6 7.99966C6 8.27427 6.22263 8.4969 6.49724 8.4969ZM16.5746 8.46409C16.3 8.46409 16.0773 8.24146 16.0773 7.96685C16.0773 7.69224 16.3 7.46962 16.5746 7.46962H17.5027C17.7774 7.46962 18 7.69224 18 7.96685C18 8.24146 17.7774 8.46409 17.5027 8.46409H16.5746ZM7.78986 9.85655L6.98607 10.3206C6.74826 10.4579 6.66678 10.762 6.80408 10.9999C6.89617 11.1594 7.06331 11.2485 7.23515 11.2485C7.31948 11.2485 7.40507 11.227 7.4833 11.1818L8.28709 10.7178C8.52489 10.5805 8.60637 10.2763 8.46907 10.0385C8.33177 9.80073 8.02753 9.71931 7.78986 9.85655ZM16.1938 6.11419C16.1156 6.15934 16.03 6.18089 15.9457 6.18089C15.7738 6.18089 15.6067 6.09172 15.5146 5.9322C15.3773 5.69439 15.4588 5.39028 15.6966 5.25298L16.5004 4.78889C16.738 4.65166 17.0423 4.733 17.1796 4.97088C17.3169 5.20869 17.2354 5.5128 16.9976 5.65011L16.1938 6.11419ZM9.28199 11.7126L8.81791 12.5164C8.68061 12.7542 8.76209 13.0584 8.9999 13.1957C9.0782 13.2409 9.16372 13.2624 9.24805 13.2624C9.41989 13.2624 9.58703 13.1732 9.67912 13.0137L10.1432 12.2099C10.2805 11.9721 10.199 11.6679 9.96121 11.5306C9.72334 11.3932 9.4193 11.4748 9.28199 11.7126ZM14.2582 4.51972C14.1739 4.51972 14.0883 4.49824 14.01 4.45302C13.7722 4.31572 13.6907 4.01161 13.8281 3.7738L14.2921 2.97C14.4295 2.73213 14.7336 2.65065 14.9714 2.78802C15.2092 2.92532 15.2907 3.22943 15.1534 3.46724L14.6893 4.27104C14.5972 4.43055 14.43 4.51972 14.2582 4.51972Z" fill="#2D2F35"/>
<path d="M9.28199 4.28681L9.3686 4.23682L9.3686 4.23681L9.28199 4.28681ZM9.96121 4.4688L9.91121 4.3822L9.91117 4.38222L9.96121 4.4688ZM10.1432 3.78958L10.2298 3.73958V3.73958L10.1432 3.78958ZM9.67912 2.98578L9.59251 3.03578L9.59251 3.03578L9.67912 2.98578ZM8.9999 2.80379L9.0499 2.89039L9.04992 2.89038L8.9999 2.80379ZM8.81791 3.48302L8.73131 3.53302L8.73131 3.53302L8.81791 3.48302ZM14.0674 11.5142L14.1174 11.6008L14.1175 11.6008L14.0674 11.5142ZM13.8854 12.1934L13.7988 12.2434V12.2434L13.8854 12.1934ZM14.7467 11.6962L14.6601 11.7462L14.6601 11.7462L14.7467 11.6962ZM15.2108 12.5L15.2974 12.45V12.45L15.2108 12.5ZM15.0288 13.1792L14.9788 13.0926L14.9787 13.0926L15.0288 13.1792ZM14.3495 12.9972L14.4361 12.9472L14.4361 12.9472L14.3495 12.9972ZM7.78986 6.14237L7.83987 6.05578L7.83986 6.05577L7.78986 6.14237ZM6.98607 5.67829L7.03607 5.59169H7.03607L6.98607 5.67829ZM8.46907 5.96038L8.38247 5.91038L8.38247 5.91039L8.46907 5.96038ZM8.28709 5.28116L8.23708 5.36776H8.23708L8.28709 5.28116ZM7.4833 4.81708L7.43328 4.90367L7.4333 4.90368L7.4833 4.81708ZM6.80408 4.99906L6.89069 5.04907L6.89069 5.04905L6.80408 4.99906ZM15.7297 10.6891L15.7797 10.6025L15.7797 10.6025L15.7297 10.6891ZM16.5335 11.1532L16.5836 11.0666L16.5835 11.0666L16.5335 11.1532ZM15.5478 10.0099L15.6343 10.0599L15.6344 10.0599L15.5478 10.0099ZM16.227 9.82791L16.177 9.9145L16.177 9.91452L16.227 9.82791ZM17.0308 10.292L16.9808 10.3786L17.0308 10.292ZM17.2128 10.9712L17.1262 10.9212L17.1262 10.9212L17.2128 10.9712ZM6.98607 10.3206L7.03607 10.4072L7.03607 10.4072L6.98607 10.3206ZM7.78986 9.85655L7.83986 9.94315L7.83986 9.94315L7.78986 9.85655ZM6.80408 10.9999L6.89069 10.9499L6.89069 10.9499L6.80408 10.9999ZM7.4833 11.1818L7.53328 11.2685L7.5333 11.2684L7.4833 11.1818ZM8.28709 10.7178L8.23708 10.6312L8.23708 10.6312L8.28709 10.7178ZM8.46907 10.0385L8.55568 9.98854H8.55568L8.46907 10.0385ZM16.1938 6.11419L16.2438 6.2008L16.2438 6.20079L16.1938 6.11419ZM15.5146 5.9322L15.6012 5.88221L15.6012 5.8822L15.5146 5.9322ZM15.6966 5.25298L15.7466 5.33958L15.7466 5.33958L15.6966 5.25298ZM16.5004 4.78889L16.5504 4.8755L16.5504 4.87549L16.5004 4.78889ZM17.1796 4.97088L17.093 5.02087L17.093 5.02088L17.1796 4.97088ZM16.9976 5.65011L16.9476 5.5635L16.9476 5.5635L16.9976 5.65011ZM8.81791 12.5164L8.73131 12.4664H8.73131L8.81791 12.5164ZM9.28199 11.7126L9.3686 11.7626L9.3686 11.7626L9.28199 11.7126ZM8.9999 13.1957L9.04991 13.1091L9.0499 13.1091L8.9999 13.1957ZM9.67912 13.0137L9.59251 12.9637L9.59251 12.9637L9.67912 13.0137ZM10.1432 12.2099L10.2298 12.2599L10.1432 12.2099ZM9.96121 11.5306L9.91118 11.6172L9.91121 11.6172L9.96121 11.5306ZM14.01 4.45302L14.0601 4.36643L14.06 4.36642L14.01 4.45302ZM13.8281 3.7738L13.9147 3.82382L13.9147 3.8238L13.8281 3.7738ZM14.2921 2.97L14.3788 3.02001L14.3788 3.02L14.2921 2.97ZM14.9714 2.78802L14.9214 2.87461L14.9214 2.87462L14.9714 2.78802ZM15.1534 3.46724L15.24 3.51724V3.51724L15.1534 3.46724ZM14.6893 4.27104L14.6027 4.22104L14.6027 4.22104L14.6893 4.27104ZM12.3973 3.42541C12.3973 3.64479 12.2195 3.82264 12.0001 3.82264V4.02264C12.3299 4.02264 12.5973 3.75524 12.5973 3.42541H12.3973ZM12.3973 2.49724V3.42541H12.5973V2.49724H12.3973ZM12.0001 2.1C12.2195 2.1 12.3973 2.27786 12.3973 2.49724H12.5973C12.5973 2.1674 12.3299 1.9 12.0001 1.9V2.1ZM11.6029 2.49724C11.6029 2.27786 11.7807 2.1 12.0001 2.1V1.9C11.6703 1.9 11.4029 2.1674 11.4029 2.49724H11.6029ZM11.6029 3.42541V2.49724H11.4029V3.42541H11.6029ZM12.0001 3.82264C11.7807 3.82264 11.6029 3.64479 11.6029 3.42541H11.4029C11.4029 3.75524 11.6703 4.02264 12.0001 4.02264V3.82264ZM8.42056 8.03262C8.42056 6.05893 10.0264 4.45308 12.0001 4.45308V4.25308C9.91595 4.25308 8.22056 5.94847 8.22056 8.03262H8.42056ZM12.0001 11.6122C10.0264 11.6122 8.42056 10.0063 8.42056 8.03262H8.22056C8.22056 10.1168 9.91595 11.8122 12.0001 11.8122V11.6122ZM15.5796 8.03262C15.5796 10.0063 13.9738 11.6122 12.0001 11.6122V11.8122C14.0843 11.8122 15.7796 10.1168 15.7796 8.03262H15.5796ZM12.0001 4.45308C13.9738 4.45308 15.5796 6.05893 15.5796 8.03262H15.7796C15.7796 5.94847 14.0843 4.25308 12.0001 4.25308V4.45308ZM9.21503 8.03262C9.21503 9.56842 10.4643 10.8177 12.0001 10.8177V10.6177C10.5748 10.6177 9.41503 9.45796 9.41503 8.03262H9.21503ZM12.0001 5.24755C10.4643 5.24755 9.21503 6.49682 9.21503 8.03262H9.41503C9.41503 6.60728 10.5748 5.44755 12.0001 5.44755V5.24755ZM14.7852 8.03262C14.7852 6.49682 13.5359 5.24755 12.0001 5.24755V5.44755C13.4254 5.44755 14.5852 6.60728 14.5852 8.03262H14.7852ZM12.0001 10.8177C13.5359 10.8177 14.7852 9.56842 14.7852 8.03262H14.5852C14.5852 9.45796 13.4254 10.6177 12.0001 10.6177V10.8177ZM11.4358 12.5746V13.5027H11.6358V12.5746H11.4358ZM12.0331 11.9773C11.7032 11.9773 11.4358 12.2447 11.4358 12.5746H11.6358C11.6358 12.3552 11.8137 12.1773 12.0331 12.1773V11.9773ZM12.6303 12.5746C12.6303 12.2447 12.3629 11.9773 12.0331 11.9773V12.1773C12.2524 12.1773 12.4303 12.3552 12.4303 12.5746H12.6303ZM12.6303 13.5027V12.5746H12.4303V13.5027H12.6303ZM12.0331 14.1C12.3629 14.1 12.6303 13.8326 12.6303 13.5027H12.4303C12.4303 13.7221 12.2524 13.9 12.0331 13.9V14.1ZM11.4358 13.5027C11.4358 13.8326 11.7032 14.1 12.0331 14.1V13.9C11.8137 13.9 11.6358 13.7221 11.6358 13.5027H11.4358ZM9.71306 4.4355C9.57547 4.4355 9.4421 4.36413 9.3686 4.23682L9.19539 4.33681C9.30606 4.52852 9.50696 4.6355 9.71306 4.6355V4.4355ZM9.91117 4.38222C9.84859 4.41839 9.78034 4.4355 9.71306 4.4355V4.6355C9.81444 4.6355 9.91737 4.60964 10.0113 4.55538L9.91117 4.38222ZM10.0566 3.83958C10.1663 4.02956 10.1012 4.27251 9.91121 4.3822L10.0112 4.5554C10.2969 4.39048 10.3947 4.02522 10.2298 3.73958L10.0566 3.83958ZM9.59251 3.03578L10.0566 3.83958L10.2298 3.73958L9.76572 2.93578L9.59251 3.03578ZM9.04992 2.89038C9.23975 2.78072 9.48282 2.84579 9.59251 3.03578L9.76572 2.93578C9.6008 2.65015 9.2354 2.55226 8.94988 2.7172L9.04992 2.89038ZM8.90451 3.43301C8.79483 3.24303 8.85992 3.00008 9.0499 2.89039L8.9499 2.71719C8.66426 2.88211 8.56639 3.24738 8.73131 3.53302L8.90451 3.43301ZM9.3686 4.23681L8.90451 3.43301L8.73131 3.53302L9.19539 4.33681L9.3686 4.23681ZM14.0174 11.4276C13.7318 11.5925 13.6339 11.9578 13.7988 12.2434L13.972 12.1434C13.8623 11.9534 13.9274 11.7105 14.1174 11.6008L14.0174 11.4276ZM14.8333 11.6462C14.6684 11.3605 14.3029 11.2626 14.0174 11.4276L14.1175 11.6008C14.3073 11.4911 14.5504 11.5561 14.6601 11.7462L14.8333 11.6462ZM15.2974 12.45L14.8333 11.6462L14.6601 11.7462L15.1242 12.55L15.2974 12.45ZM15.0788 13.2658C15.3644 13.1009 15.4623 12.7356 15.2974 12.45L15.1242 12.55C15.2339 12.74 15.1688 12.9829 14.9788 13.0926L15.0788 13.2658ZM14.7806 13.3459C14.882 13.3459 14.9849 13.3201 15.0788 13.2658L14.9787 13.0926C14.9162 13.1288 14.8479 13.1459 14.7806 13.1459V13.3459ZM14.2629 13.0472C14.3736 13.2389 14.5745 13.3459 14.7806 13.3459V13.1459C14.643 13.1459 14.5096 13.0745 14.4361 12.9472L14.2629 13.0472ZM13.7988 12.2434L14.2629 13.0472L14.4361 12.9472L13.972 12.1434L13.7988 12.2434ZM7.83986 6.05577L7.03607 5.59169L6.93607 5.76489L7.73986 6.22897L7.83986 6.05577ZM8.03801 6.10907C7.97075 6.10907 7.90254 6.09197 7.83987 6.05578L7.73985 6.22897C7.83376 6.28321 7.93661 6.30907 8.03801 6.30907V6.10907ZM8.38247 5.91039C8.30897 6.0377 8.1756 6.10907 8.03801 6.10907V6.30907C8.2441 6.30907 8.445 6.20209 8.55568 6.01038L8.38247 5.91039ZM8.23708 5.36776C8.42706 5.47745 8.49216 5.7204 8.38247 5.91038L8.55568 6.01039C8.72059 5.72475 8.62272 5.35948 8.33709 5.19456L8.23708 5.36776ZM7.4333 4.90368L8.23708 5.36776L8.33709 5.19456L7.5333 4.73048L7.4333 4.90368ZM6.89069 5.04905C7.00038 4.85901 7.24331 4.79393 7.43328 4.90367L7.53332 4.73049C7.24767 4.56548 6.88239 4.66336 6.71748 4.94907L6.89069 5.04905ZM7.03607 5.59169C6.84609 5.482 6.781 5.23905 6.89069 5.04907L6.71748 4.94906C6.55257 5.2347 6.65043 5.59997 6.93607 5.76489L7.03607 5.59169ZM15.6797 10.7757L16.4835 11.2398L16.5835 11.0666L15.7797 10.6025L15.6797 10.7757ZM15.4612 9.95988C15.2962 10.2455 15.394 10.6108 15.6798 10.7757L15.7797 10.6025C15.5897 10.4928 15.5246 10.2499 15.6343 10.0599L15.4612 9.95988ZM16.277 9.74132C15.9913 9.57632 15.6261 9.6742 15.4611 9.95991L15.6344 10.0599C15.7441 9.86985 15.987 9.80477 16.177 9.9145L16.277 9.74132ZM17.0808 10.2054L16.277 9.74131L16.177 9.91452L16.9808 10.3786L17.0808 10.2054ZM17.2994 11.0212C17.4643 10.7356 17.3664 10.3703 17.0808 10.2054L16.9808 10.3786C17.1708 10.4883 17.2359 10.7312 17.1262 10.9212L17.2994 11.0212ZM16.7817 11.3199C16.9878 11.3199 17.1887 11.2129 17.2994 11.0212L17.1262 10.9212C17.0527 11.0486 16.9193 11.1199 16.7817 11.1199V11.3199ZM16.4835 11.2398C16.5775 11.2941 16.6803 11.3199 16.7817 11.3199V11.1199C16.7144 11.1199 16.6462 11.1028 16.5836 11.0666L16.4835 11.2398ZM7.42541 8.3969H6.49724V8.5969H7.42541V8.3969ZM7.82264 7.99966C7.82264 8.21904 7.64479 8.3969 7.42541 8.3969V8.5969C7.75524 8.5969 8.02264 8.3295 8.02264 7.99966H7.82264ZM7.42541 7.60243C7.64479 7.60243 7.82264 7.78028 7.82264 7.99966H8.02264C8.02264 7.66983 7.75524 7.40243 7.42541 7.40243V7.60243ZM6.49724 7.60243H7.42541V7.40243H6.49724V7.60243ZM6.1 7.99966C6.1 7.78028 6.27786 7.60243 6.49724 7.60243V7.40243C6.1674 7.40243 5.9 7.66983 5.9 7.99966H6.1ZM6.49724 8.3969C6.27786 8.3969 6.1 8.21904 6.1 7.99966H5.9C5.9 8.3295 6.1674 8.5969 6.49724 8.5969V8.3969ZM15.9773 7.96685C15.9773 8.29669 16.2447 8.56409 16.5746 8.56409V8.36409C16.3552 8.36409 16.1773 8.18623 16.1773 7.96685H15.9773ZM16.5746 7.36962C16.2447 7.36962 15.9773 7.63702 15.9773 7.96685H16.1773C16.1773 7.74747 16.3552 7.56962 16.5746 7.56962V7.36962ZM17.5027 7.36962H16.5746V7.56962H17.5027V7.36962ZM18.1 7.96685C18.1 7.63702 17.8326 7.36962 17.5027 7.36962V7.56962C17.7221 7.56962 17.9 7.74747 17.9 7.96685H18.1ZM17.5027 8.56409C17.8326 8.56409 18.1 8.29669 18.1 7.96685H17.9C17.9 8.18623 17.7221 8.36409 17.5027 8.36409V8.56409ZM16.5746 8.56409H17.5027V8.36409H16.5746V8.56409ZM7.03607 10.4072L7.83986 9.94315L7.73986 9.76995L6.93607 10.234L7.03607 10.4072ZM6.89069 10.9499C6.781 10.7599 6.84609 10.5169 7.03607 10.4072L6.93607 10.234C6.65043 10.399 6.55257 10.7642 6.71748 11.0499L6.89069 10.9499ZM7.23515 11.1485C7.09756 11.1485 6.96419 11.0772 6.89069 10.9499L6.71748 11.0499C6.82815 11.2416 7.02905 11.3485 7.23515 11.3485V11.1485ZM7.43331 11.0952C7.37066 11.1314 7.30238 11.1485 7.23515 11.1485V11.3485C7.33658 11.3485 7.43947 11.3226 7.53328 11.2685L7.43331 11.0952ZM8.23708 10.6312L7.4333 11.0952L7.5333 11.2684L8.33709 10.8044L8.23708 10.6312ZM8.38247 10.0885C8.49216 10.2785 8.42706 10.5215 8.23708 10.6312L8.33709 10.8044C8.62272 10.6394 8.72059 10.2742 8.55568 9.98854L8.38247 10.0885ZM7.83986 9.94315C8.02972 9.83352 8.27279 9.89857 8.38247 10.0885L8.55568 9.98854C8.39075 9.70288 8.02534 9.6051 7.73985 9.76995L7.83986 9.94315ZM15.9457 6.28089C16.0471 6.28089 16.15 6.25495 16.2438 6.2008L16.1438 6.02758C16.0812 6.06374 16.0129 6.08089 15.9457 6.08089V6.28089ZM15.428 5.9822C15.5387 6.17391 15.7396 6.28089 15.9457 6.28089V6.08089C15.8081 6.08089 15.6747 6.00952 15.6012 5.88221L15.428 5.9822ZM15.6466 5.16638C15.3609 5.3313 15.2631 5.69657 15.428 5.9822L15.6012 5.8822C15.4915 5.69222 15.5566 5.44927 15.7466 5.33958L15.6466 5.16638ZM16.4504 4.70229L15.6466 5.16638L15.7466 5.33958L16.5504 4.8755L16.4504 4.70229ZM17.2662 4.92089C17.1013 4.63514 16.7358 4.53746 16.4504 4.70229L16.5504 4.87549C16.7403 4.76586 16.9833 4.83087 17.093 5.02087L17.2662 4.92089ZM17.0476 5.73671C17.3332 5.57179 17.4311 5.20652 17.2662 4.92088L17.093 5.02088C17.2027 5.21087 17.1376 5.45382 16.9476 5.5635L17.0476 5.73671ZM16.2438 6.20079L17.0476 5.73671L16.9476 5.5635L16.1438 6.02759L16.2438 6.20079ZM8.90451 12.5664L9.3686 11.7626L9.19539 11.6626L8.73131 12.4664L8.90451 12.5664ZM9.0499 13.1091C8.85992 12.9994 8.79483 12.7564 8.90451 12.5664L8.73131 12.4664C8.56639 12.7521 8.66426 13.1173 8.9499 13.2823L9.0499 13.1091ZM9.24805 13.1624C9.18079 13.1624 9.11258 13.1453 9.04991 13.1091L8.94989 13.2823C9.04381 13.3365 9.14665 13.3624 9.24805 13.3624V13.1624ZM9.59251 12.9637C9.51901 13.091 9.38564 13.1624 9.24805 13.1624V13.3624C9.45415 13.3624 9.65505 13.2554 9.76572 13.0637L9.59251 12.9637ZM10.0566 12.1599L9.59251 12.9637L9.76572 13.0637L10.2298 12.2599L10.0566 12.1599ZM9.91121 11.6172C10.1012 11.7269 10.1663 11.9699 10.0566 12.1599L10.2298 12.2599C10.3947 11.9742 10.2969 11.609 10.0112 11.444L9.91121 11.6172ZM9.3686 11.7626C9.4783 11.5726 9.72117 11.5074 9.91118 11.6172L10.0112 11.4441C9.7255 11.279 9.36029 11.3769 9.19539 11.6626L9.3686 11.7626ZM13.96 4.53962C14.054 4.59386 14.1568 4.61972 14.2582 4.61972V4.41972C14.1909 4.41972 14.1227 4.40262 14.0601 4.36643L13.96 4.53962ZM13.7415 3.72378C13.5765 4.00943 13.6743 4.37472 13.9601 4.53963L14.06 4.36642C13.87 4.25672 13.8049 4.01379 13.9147 3.82382L13.7415 3.72378ZM14.2055 2.92L13.7415 3.7238L13.9147 3.8238L14.3788 3.02001L14.2055 2.92ZM15.0214 2.70142C14.7357 2.53642 14.3705 2.6343 14.2055 2.92001L14.3788 3.02C14.4884 2.82996 14.7314 2.76487 14.9214 2.87461L15.0214 2.70142ZM15.24 3.51724C15.4049 3.2316 15.307 2.86633 15.0214 2.70141L14.9214 2.87462C15.1114 2.98431 15.1765 3.22726 15.0668 3.41724L15.24 3.51724ZM14.7759 4.32104L15.24 3.51724L15.0668 3.41724L14.6027 4.22104L14.7759 4.32104ZM14.2582 4.61972C14.4643 4.61972 14.6652 4.51274 14.7759 4.32103L14.6027 4.22104C14.5292 4.34835 14.3958 4.41972 14.2582 4.41972V4.61972Z" fill="#2D2F35"/>
</svg>
