<svg width="24" height="24" viewBox="0 0 24 24" fill="none" xmlns="http://www.w3.org/2000/svg">
<path fill-rule="evenodd" clip-rule="evenodd" d="M21.6094 17.3125H20.3282C19.5779 17.3125 18.8971 16.869 18.5939 16.1828L17.3073 13.2701C16.4341 11.2935 14.529 9.97172 12.3906 9.82719V7.97656C12.3906 7.87297 12.3494 7.77359 12.2762 7.70035L11.1167 6.5409C10.9641 6.38836 10.7169 6.38836 10.5643 6.5409C10.4117 6.69344 10.4117 6.94078 10.5643 7.09336L11.057 7.58594H3.33367L7.19531 3.7243L8.0784 4.60738C8.23098 4.75992 8.47824 4.75992 8.63086 4.60738C8.7834 4.45484 8.7834 4.2075 8.63086 4.05496L7.47152 2.89562C7.39824 2.82242 7.29891 2.78125 7.19531 2.78125C7.09172 2.78125 6.99238 2.82242 6.9191 2.89566L2.11441 7.70035C2.04117 7.77363 2 7.87297 2 7.97656V20.8281C2 21.0439 2.17492 21.2188 2.39062 21.2188H12C12.2157 21.2188 12.3906 21.0439 12.3906 20.8281V13.7603C12.9795 13.8851 13.4859 14.2865 13.7342 14.8485L15.0209 17.7612C15.9487 19.8616 18.032 21.2188 20.3282 21.2188H21.6094C21.8251 21.2188 22 21.0439 22 20.8281V17.7031C22 17.4874 21.8251 17.3125 21.6094 17.3125ZM5.39844 20.4375V18.2891C5.39844 17.2983 6.20453 16.4922 7.19531 16.4922C8.18609 16.4922 8.99219 17.2983 8.99219 18.2891V20.4375H5.39844ZM9.77344 20.4375V18.2891C9.77344 16.8675 8.61691 15.7109 7.19531 15.7109C5.77371 15.7109 4.61719 16.8675 4.61719 18.2891V20.4375H2.78125V8.36719H11.6094V20.4375H9.77344ZM21.2188 20.4375H20.3282C18.3411 20.4375 16.5384 19.2631 15.7355 17.4455L14.4488 14.5328C14.0758 13.6884 13.29 13.1006 12.3906 12.9671V10.6098C14.2198 10.7527 15.8443 11.8915 16.5927 13.5857L17.8793 16.4984C18.3075 17.4675 19.2687 18.0938 20.3282 18.0938H21.2188V20.4375ZM7.19531 9.46094C5.77371 9.46094 4.61719 10.6175 4.61719 12.0391C4.61719 13.4607 5.77371 14.6172 7.19531 14.6172C8.61691 14.6172 9.77344 13.4607 9.77344 12.0391C9.77344 10.6175 8.61691 9.46094 7.19531 9.46094ZM7.19531 13.8359C6.20453 13.8359 5.39844 13.0298 5.39844 12.0391C5.39844 11.0483 6.20453 10.2422 7.19531 10.2422C8.18609 10.2422 8.99219 11.0483 8.99219 12.0391C8.99219 13.0298 8.18609 13.8359 7.19531 13.8359ZM9.87379 5.85039C9.80117 5.92305 9.70039 5.96484 9.59766 5.96484C9.49492 5.96484 9.39418 5.92305 9.32148 5.85039C9.24879 5.77773 9.20703 5.67734 9.20703 5.57422C9.20703 5.47148 9.24883 5.3707 9.32148 5.29805C9.39414 5.22539 9.49492 5.18359 9.59766 5.18359C9.70039 5.18359 9.80117 5.22539 9.87379 5.29805C9.94648 5.3707 9.98828 5.47148 9.98828 5.57422C9.98828 5.67695 9.94645 5.77773 9.87379 5.85039Z" fill="#2D2F35"/>
<path d="M18.5939 16.1828L18.411 16.2636L18.411 16.2636L18.5939 16.1828ZM17.3073 13.2701L17.4902 13.1893L17.4902 13.1893L17.3073 13.2701ZM12.3906 9.82719H12.1906V10.0141L12.3771 10.0267L12.3906 9.82719ZM12.2762 7.70035L12.4176 7.55893L12.2762 7.70035ZM11.1167 6.5409L11.2581 6.39948L11.2581 6.39946L11.1167 6.5409ZM10.5643 6.5409L10.4229 6.39944L10.4228 6.39948L10.5643 6.5409ZM10.5643 7.09336L10.4228 7.23476L10.4229 7.2348L10.5643 7.09336ZM11.057 7.58594V7.78594H11.5399L11.1984 7.4445L11.057 7.58594ZM3.33367 7.58594L3.19225 7.44452L2.85083 7.78594H3.33367V7.58594ZM7.19531 3.7243L7.33673 3.58288L7.19531 3.44145L7.05389 3.58288L7.19531 3.7243ZM8.0784 4.60738L7.93698 4.7488L7.937 4.74882L8.0784 4.60738ZM8.63086 4.60738L8.77224 4.74884L8.77228 4.7488L8.63086 4.60738ZM8.63086 4.05496L8.48944 4.19638V4.19638L8.63086 4.05496ZM7.47152 2.89562L7.61294 2.7542L7.61287 2.75413L7.47152 2.89562ZM6.9191 2.89566L6.77772 2.7542L6.77768 2.75424L6.9191 2.89566ZM2.11441 7.70035L1.97299 7.55893L1.97295 7.55897L2.11441 7.70035ZM12.3906 13.7603L12.4321 13.5647L12.1906 13.5135V13.7603H12.3906ZM13.7342 14.8485L13.9172 14.7677L13.9172 14.7677L13.7342 14.8485ZM15.0209 17.7612L14.8379 17.842L14.8379 17.842L15.0209 17.7612ZM5.39844 20.4375H5.19844V20.6375H5.39844V20.4375ZM8.99219 20.4375V20.6375H9.19219V20.4375H8.99219ZM9.77344 20.4375H9.57344V20.6375H9.77344V20.4375ZM4.61719 20.4375V20.6375H4.81719V20.4375H4.61719ZM2.78125 20.4375H2.58125V20.6375H2.78125V20.4375ZM2.78125 8.36719V8.16719H2.58125V8.36719H2.78125ZM11.6094 8.36719H11.8094V8.16719H11.6094V8.36719ZM11.6094 20.4375V20.6375H11.8094V20.4375H11.6094ZM21.2188 20.4375V20.6375H21.4188V20.4375H21.2188ZM15.7355 17.4455L15.5525 17.5263H15.5525L15.7355 17.4455ZM14.4488 14.5328L14.6318 14.452L14.6318 14.452L14.4488 14.5328ZM12.3906 12.9671H12.1906V13.1396L12.3613 13.1649L12.3906 12.9671ZM12.3906 10.6098L12.4062 10.4104L12.1906 10.3935V10.6098H12.3906ZM16.5927 13.5857L16.7756 13.5049H16.7756L16.5927 13.5857ZM17.8793 16.4984L17.6964 16.5793L17.6964 16.5793L17.8793 16.4984ZM21.2188 18.0938H21.4188V17.8938H21.2188V18.0938ZM9.87379 5.85039L9.73237 5.70897L9.73233 5.70901L9.87379 5.85039ZM9.32148 5.85039L9.1801 5.99185L9.1801 5.99185L9.32148 5.85039ZM9.32148 5.29805L9.18006 5.15663L9.18006 5.15663L9.32148 5.29805ZM9.87379 5.29805L9.73233 5.43943L9.73241 5.43951L9.87379 5.29805ZM20.3282 17.5125H21.6094V17.1125H20.3282V17.5125ZM18.411 16.2636C18.7462 17.0223 19.4987 17.5125 20.3282 17.5125V17.1125C19.6571 17.1125 19.0481 16.7158 18.7769 16.1019L18.411 16.2636ZM17.1244 13.3509L18.411 16.2636L18.7769 16.102L17.4902 13.1893L17.1244 13.3509ZM12.3771 10.0267C14.4418 10.1663 16.2814 11.4427 17.1244 13.3509L17.4902 13.1893C16.5868 11.1443 14.6162 9.77716 12.4041 9.62764L12.3771 10.0267ZM12.1906 7.97656V9.82719H12.5906V7.97656H12.1906ZM12.1348 7.84177C12.1705 7.87751 12.1906 7.92602 12.1906 7.97656H12.5906C12.5906 7.81992 12.5283 7.66967 12.4176 7.55893L12.1348 7.84177ZM10.9753 6.68232L12.1348 7.84177L12.4176 7.55893L11.2581 6.39948L10.9753 6.68232ZM10.7056 6.68236C10.7802 6.60786 10.9008 6.60789 10.9753 6.68234L11.2581 6.39946C11.0274 6.16883 10.6536 6.16886 10.4229 6.39944L10.7056 6.68236ZM10.7057 6.95196C10.6312 6.87747 10.6313 6.75674 10.7057 6.68232L10.4228 6.39948C10.1922 6.63013 10.1922 7.00409 10.4228 7.23476L10.7057 6.95196ZM11.1984 7.4445L10.7057 6.95192L10.4229 7.2348L10.9155 7.72738L11.1984 7.4445ZM3.33367 7.78594H11.057V7.38594H3.33367V7.78594ZM7.05389 3.58288L3.19225 7.44452L3.47509 7.72736L7.33673 3.86572L7.05389 3.58288ZM8.21982 4.46596L7.33673 3.58288L7.05389 3.86572L7.93698 4.7488L8.21982 4.46596ZM8.48947 4.46593C8.41494 4.54042 8.29427 4.54039 8.2198 4.46594L7.937 4.74882C8.16768 4.97945 8.54154 4.97943 8.77224 4.74884L8.48947 4.46593ZM8.48944 4.19638C8.56387 4.27082 8.56387 4.39153 8.48944 4.46596L8.77228 4.7488C9.00292 4.51816 9.00292 4.14418 8.77228 3.91354L8.48944 4.19638ZM7.3301 3.03705L8.48944 4.19638L8.77228 3.91354L7.61294 2.7542L7.3301 3.03705ZM7.19531 2.98125C7.24583 2.98125 7.29435 3.00133 7.33018 3.03712L7.61287 2.75413C7.50214 2.64351 7.35198 2.58125 7.19531 2.58125V2.98125ZM7.06049 3.03712C7.0963 3.00132 7.1448 2.98125 7.19531 2.98125V2.58125C7.03864 2.58125 6.88846 2.64352 6.77772 2.75421L7.06049 3.03712ZM2.25584 7.84177L7.06052 3.03709L6.77768 2.75424L1.97299 7.55893L2.25584 7.84177ZM2.2 7.97656C2.2 7.92605 2.22007 7.87755 2.25587 7.84174L1.97295 7.55897C1.86227 7.66971 1.8 7.81989 1.8 7.97656H2.2ZM2.2 20.8281V7.97656H1.8V20.8281H2.2ZM2.39062 21.0187C2.28537 21.0187 2.2 20.9334 2.2 20.8281H1.8C1.8 21.1543 2.06448 21.4188 2.39062 21.4188V21.0187ZM12 21.0187H2.39062V21.4188H12V21.0187ZM12.1906 20.8281C12.1906 20.9334 12.1053 21.0187 12 21.0187V21.4188C12.3261 21.4188 12.5906 21.1543 12.5906 20.8281H12.1906ZM12.1906 13.7603V20.8281H12.5906V13.7603H12.1906ZM13.9172 14.7677C13.6424 14.1458 13.0826 13.7025 12.4321 13.5647L12.3492 13.956C12.8763 14.0677 13.3294 14.4272 13.5513 14.9293L13.9172 14.7677ZM15.2038 17.6804L13.9172 14.7677L13.5513 14.9293L14.8379 17.842L15.2038 17.6804ZM20.3282 21.0187C18.1112 21.0187 16.0997 19.7083 15.2038 17.6804L14.8379 17.842C15.7978 20.0148 17.9528 21.4188 20.3282 21.4188V21.0187ZM21.6094 21.0187H20.3282V21.4188H21.6094V21.0187ZM21.8 20.8281C21.8 20.9334 21.7146 21.0187 21.6094 21.0187V21.4188C21.9355 21.4188 22.2 21.1543 22.2 20.8281H21.8ZM21.8 17.7031V20.8281H22.2V17.7031H21.8ZM21.6094 17.5125C21.7146 17.5125 21.8 17.5979 21.8 17.7031H22.2C22.2 17.3769 21.9355 17.1125 21.6094 17.1125V17.5125ZM5.19844 18.2891V20.4375H5.59844V18.2891H5.19844ZM7.19531 16.2922C6.09407 16.2922 5.19844 17.1878 5.19844 18.2891H5.59844C5.59844 17.4087 6.31499 16.6922 7.19531 16.6922V16.2922ZM9.19219 18.2891C9.19219 17.1878 8.29655 16.2922 7.19531 16.2922V16.6922C8.07564 16.6922 8.79219 17.4087 8.79219 18.2891H9.19219ZM9.19219 20.4375V18.2891H8.79219V20.4375H9.19219ZM5.39844 20.6375H8.99219V20.2375H5.39844V20.6375ZM9.57344 18.2891V20.4375H9.97344V18.2891H9.57344ZM7.19531 15.9109C8.50646 15.9109 9.57344 16.9779 9.57344 18.2891H9.97344C9.97344 16.757 8.72737 15.5109 7.19531 15.5109V15.9109ZM4.81719 18.2891C4.81719 16.9779 5.88417 15.9109 7.19531 15.9109V15.5109C5.66325 15.5109 4.41719 16.757 4.41719 18.2891H4.81719ZM4.81719 20.4375V18.2891H4.41719V20.4375H4.81719ZM2.78125 20.6375H4.61719V20.2375H2.78125V20.6375ZM2.58125 8.36719V20.4375H2.98125V8.36719H2.58125ZM11.6094 8.16719H2.78125V8.56719H11.6094V8.16719ZM11.8094 20.4375V8.36719H11.4094V20.4375H11.8094ZM9.77344 20.6375H11.6094V20.2375H9.77344V20.6375ZM20.3282 20.6375H21.2188V20.2375H20.3282V20.6375ZM15.5525 17.5263C16.3874 19.4164 18.2619 20.6375 20.3282 20.6375V20.2375C18.4203 20.2375 16.6893 19.1098 15.9184 17.3647L15.5525 17.5263ZM14.2659 14.6136L15.5525 17.5263L15.9184 17.3647L14.6318 14.452L14.2659 14.6136ZM12.3613 13.1649C13.1937 13.2885 13.9209 13.8328 14.2659 14.6136L14.6318 14.452C14.2306 13.5439 13.3863 12.9127 12.42 12.7693L12.3613 13.1649ZM12.1906 10.6098V12.9671H12.5906V10.6098H12.1906ZM16.7756 13.5049C15.9973 11.743 14.3082 10.559 12.4062 10.4104L12.375 10.8092C14.1313 10.9464 15.6913 12.0401 16.4097 13.6666L16.7756 13.5049ZM18.0623 16.4176L16.7756 13.5049L16.4097 13.6666L17.6964 16.5793L18.0623 16.4176ZM20.3282 17.8938C19.3479 17.8938 18.4584 17.3143 18.0623 16.4176L17.6964 16.5793C18.1566 17.6208 19.1895 18.2937 20.3282 18.2937V17.8938ZM21.2188 17.8938H20.3282V18.2937H21.2188V17.8938ZM21.4188 20.4375V18.0938H21.0187V20.4375H21.4188ZM4.81719 12.0391C4.81719 10.7279 5.88417 9.66094 7.19531 9.66094V9.26094C5.66325 9.26094 4.41719 10.507 4.41719 12.0391H4.81719ZM7.19531 14.4172C5.88417 14.4172 4.81719 13.3502 4.81719 12.0391H4.41719C4.41719 13.5711 5.66325 14.8172 7.19531 14.8172V14.4172ZM9.57344 12.0391C9.57344 13.3502 8.50646 14.4172 7.19531 14.4172V14.8172C8.72737 14.8172 9.97344 13.5711 9.97344 12.0391H9.57344ZM7.19531 9.66094C8.50646 9.66094 9.57344 10.7279 9.57344 12.0391H9.97344C9.97344 10.507 8.72737 9.26094 7.19531 9.26094V9.66094ZM5.19844 12.0391C5.19844 13.1403 6.09407 14.0359 7.19531 14.0359V13.6359C6.31499 13.6359 5.59844 12.9194 5.59844 12.0391H5.19844ZM7.19531 10.0422C6.09407 10.0422 5.19844 10.9378 5.19844 12.0391H5.59844C5.59844 11.1587 6.31499 10.4422 7.19531 10.4422V10.0422ZM9.19219 12.0391C9.19219 10.9378 8.29655 10.0422 7.19531 10.0422V10.4422C8.07564 10.4422 8.79219 11.1587 8.79219 12.0391H9.19219ZM7.19531 14.0359C8.29655 14.0359 9.19219 13.1403 9.19219 12.0391H8.79219C8.79219 12.9194 8.07564 13.6359 7.19531 13.6359V14.0359ZM9.59766 6.16484C9.7535 6.16484 9.90515 6.10193 10.0152 5.99177L9.73233 5.70901C9.69719 5.74416 9.64728 5.76484 9.59766 5.76484V6.16484ZM9.1801 5.99185C9.29021 6.1019 9.44178 6.16484 9.59766 6.16484V5.76484C9.54807 5.76484 9.49814 5.74419 9.46287 5.70893L9.1801 5.99185ZM9.00703 5.57422C9.00703 5.73052 9.06996 5.88176 9.1801 5.99185L9.46287 5.70893C9.42762 5.6737 9.40703 5.62417 9.40703 5.57422H9.00703ZM9.18006 5.15663C9.06995 5.26674 9.00703 5.41837 9.00703 5.57422H9.40703C9.40703 5.5246 9.42771 5.47467 9.46291 5.43947L9.18006 5.15663ZM9.59766 4.98359C9.44181 4.98359 9.29017 5.04651 9.18006 5.15663L9.46291 5.43947C9.49811 5.40427 9.54804 5.38359 9.59766 5.38359V4.98359ZM10.0152 5.15666C9.90515 5.04651 9.7535 4.98359 9.59766 4.98359V5.38359C9.64728 5.38359 9.69719 5.40427 9.73233 5.43943L10.0152 5.15666ZM10.1883 5.57422C10.1883 5.41836 10.1254 5.26671 10.0152 5.15659L9.73241 5.43951C9.76761 5.47469 9.78828 5.52461 9.78828 5.57422H10.1883ZM10.0152 5.99181C10.1253 5.88174 10.1883 5.73012 10.1883 5.57422H9.78828C9.78828 5.62379 9.7676 5.67373 9.73237 5.70897L10.0152 5.99181Z" fill="#2D2F35"/>
</svg>
