<svg width="20" height="20" viewBox="0 0 20 20" fill="none" xmlns="http://www.w3.org/2000/svg">
<g clip-path="url(#clip0)">
<path d="M6.66695 6.66667C5.51778 6.66667 4.58362 5.73167 4.58362 4.58333C4.58362 3.435 5.51778 2.5 6.66695 2.5C7.81612 2.5 8.75029 3.435 8.75029 4.58333C8.75029 5.73167 7.81612 6.66667 6.66695 6.66667ZM6.66695 3.75C6.20695 3.75 5.83362 4.12417 5.83362 4.58333C5.83362 5.0425 6.20695 5.41667 6.66695 5.41667C7.12695 5.41667 7.50028 5.0425 7.50028 4.58333C7.50028 4.12417 7.12695 3.75 6.66695 3.75Z" fill="#2D2F35" stroke="#2D2F35" stroke-width="0.1"/>
<path d="M7.29195 17.5H6.04195C5.23778 17.5 4.58362 16.8458 4.58362 16.0417V13.3625C4.58362 13.2925 4.54862 13.2275 4.49112 13.1892L3.98362 12.8508C3.57612 12.58 3.33362 12.1258 3.33362 11.6375V9.79167C3.33362 8.5275 4.36112 7.5 5.62528 7.5H7.70862C8.97278 7.5 10.0003 8.5275 10.0003 9.79167V11.6375C10.0003 12.1258 9.75778 12.58 9.35112 12.8508L8.84362 13.1892C8.78612 13.2275 8.75112 13.2925 8.75112 13.3625V16.0417C8.75029 16.8458 8.09612 17.5 7.29195 17.5ZM5.62528 8.75C5.05112 8.75 4.58362 9.2175 4.58362 9.79167V11.6375C4.58362 11.7075 4.61862 11.7725 4.67612 11.8108L5.18362 12.1492C5.59112 12.42 5.83362 12.8742 5.83362 13.3625V16.0417C5.83362 16.1567 5.92695 16.25 6.04195 16.25H7.29195C7.40695 16.25 7.50029 16.1567 7.50029 16.0417V13.3625C7.50029 12.8742 7.74279 12.42 8.14945 12.1492L8.65695 11.8108C8.71445 11.7725 8.74945 11.7075 8.74945 11.6375V9.79167C8.74945 9.2175 8.28195 8.75 7.70778 8.75H5.62528Z" fill="#2D2F35" stroke="#2D2F35" stroke-width="0.1"/>
<path d="M10.2086 20H3.12529C1.86112 20 0.833618 18.9725 0.833618 17.7083V2.29167C0.833618 1.0275 1.86112 0 3.12529 0H10.2086C11.4728 0 12.5003 1.0275 12.5003 2.29167V17.7083C12.5003 18.9725 11.4728 20 10.2086 20ZM3.12529 1.25C2.55112 1.25 2.08362 1.7175 2.08362 2.29167V17.7083C2.08362 18.2825 2.55112 18.75 3.12529 18.75H10.2086C10.7828 18.75 11.2503 18.2825 11.2503 17.7083V2.29167C11.2503 1.7175 10.7828 1.25 10.2086 1.25H3.12529Z" fill="#2D2F35" stroke="#2D2F35" stroke-width="0.1"/>
<path d="M17.0836 8.33333C16.7386 8.33333 16.4586 8.05333 16.4586 7.70833V4.375C16.4586 4.03 16.7386 3.75 17.0836 3.75C17.4286 3.75 17.7086 4.03 17.7086 4.375V7.70833C17.7086 8.05333 17.4286 8.33333 17.0836 8.33333Z" fill="#2D2F35" stroke="#2D2F35" stroke-width="0.1"/>
<path d="M15.6255 6.04175C15.463 6.04175 15.2988 5.97841 15.1771 5.85175C14.9363 5.60425 14.943 5.20841 15.1905 4.96758L16.6938 3.50925C16.813 3.39425 16.9705 3.32091 17.138 3.33341C17.3038 3.33591 17.4621 3.40425 17.5763 3.52341L18.9896 4.98175C19.2305 5.22925 19.2238 5.62508 18.9763 5.86591C18.7271 6.10591 18.3321 6.10008 18.0921 5.85175L17.113 4.84258L16.0588 5.86591C15.9396 5.98341 15.7821 6.04175 15.6255 6.04175Z" fill="#2D2F35" stroke="#2D2F35" stroke-width="0.1"/>
<path d="M17.1283 16.2503C16.7833 16.2503 16.5033 15.9703 16.5033 15.6253V12.292C16.5033 11.947 16.7833 11.667 17.1283 11.667C17.4733 11.667 17.7533 11.947 17.7533 12.292V15.6253C17.7533 15.9703 17.4733 16.2503 17.1283 16.2503Z" fill="#2D2F35" stroke="#2D2F35" stroke-width="0.1"/>
<path d="M17.0837 16.667C16.9237 16.667 16.7637 16.6061 16.6421 16.4836L15.1837 15.0253C14.9396 14.7811 14.9396 14.3853 15.1837 14.1411C15.4279 13.897 15.8237 13.897 16.0679 14.1411L17.0846 15.1578L18.1012 14.1411C18.3454 13.897 18.7412 13.897 18.9854 14.1411C19.2296 14.3853 19.2296 14.7811 18.9854 15.0253L17.5271 16.4836C17.4037 16.6061 17.2437 16.667 17.0837 16.667Z" fill="#2D2F35" stroke="#2D2F35" stroke-width="0.1"/>
</g>
<defs>
<clipPath id="clip0">
<rect width="20" height="20" fill="white"/>
</clipPath>
</defs>
</svg>
