<svg width="24" height="24" viewBox="0 0 24 24" fill="none" xmlns="http://www.w3.org/2000/svg">
<g clip-path="url(#clip0)">
<path d="M11.9702 13.5115C13.2908 13.5115 14.3651 12.4371 14.3651 11.1166C14.3651 9.79602 13.2908 8.72168 11.9702 8.72168C10.6497 8.72168 9.57532 9.79602 9.57532 11.1166C9.57532 12.4371 10.6497 13.5115 11.9702 13.5115ZM11.9702 9.89219C12.6454 9.89219 13.1946 10.4414 13.1946 11.1166C13.1946 11.7917 12.6454 12.341 11.9702 12.341C11.2951 12.341 10.7458 11.7917 10.7458 11.1166C10.7458 10.4414 11.2951 9.89219 11.9702 9.89219Z" fill="#2D2F35"/>
<path d="M5.42878 12.2271H4.67169C4.553 12.2271 4.45679 12.3233 4.45679 12.442V14.9446C4.45679 15.0633 4.553 15.1595 4.67169 15.1595H5.42878C5.54747 15.1595 5.64369 15.0633 5.64369 14.9446V12.442C5.64373 12.3233 5.54751 12.2271 5.42878 12.2271Z" fill="#2D2F35"/>
<path d="M5.42878 16.5146H4.67169C4.553 16.5146 4.45679 16.6109 4.45679 16.7296V19.2322C4.45679 19.3509 4.553 19.4471 4.67169 19.4471H5.42878C5.54747 19.4471 5.64369 19.3509 5.64369 19.2322V16.7296C5.64373 16.6109 5.54751 16.5146 5.42878 16.5146Z" fill="#2D2F35"/>
<path d="M18.571 15.1595H19.3281C19.4468 15.1595 19.543 15.0633 19.543 14.9446V12.442C19.543 12.3233 19.4468 12.2271 19.3281 12.2271H18.571C18.4523 12.2271 18.3561 12.3233 18.3561 12.442V14.9446C18.3561 15.0632 18.4523 15.1595 18.571 15.1595Z" fill="#2D2F35"/>
<path d="M18.571 19.4471H19.3281C19.4468 19.4471 19.543 19.3509 19.543 19.2322V16.7296C19.543 16.6109 19.4468 16.5146 19.3281 16.5146H18.571C18.4523 16.5146 18.3561 16.6109 18.3561 16.7296V19.2322C18.3561 19.3509 18.4523 19.4471 18.571 19.4471Z" fill="#2D2F35"/>
<path d="M21.4147 9.69156H17.0698V7.22732L18.2146 7.56919C18.975 7.75772 19.2596 6.68022 18.5496 6.4476L12.6209 4.67713V3.18418H15.8152C16.1384 3.18418 16.4004 2.92214 16.4004 2.59893C16.4004 2.27571 16.1384 2.01367 15.8152 2.01367H12.0356C11.7124 2.01367 11.4503 2.27571 11.4503 2.59893V4.67709L5.5216 6.44764C4.78359 6.71436 5.12436 7.75932 5.85652 7.56923L6.93015 7.24858V9.69156H2.58526C2.26204 9.69156 2 9.95359 2 10.2768V21.4009C2 21.7241 2.26204 21.9862 2.58526 21.9862H16.483C16.4833 21.9862 16.4835 21.9861 16.4838 21.9861C16.484 21.9861 16.4843 21.9862 16.4845 21.9862H21.4147C21.7379 21.9862 22 21.7241 22 21.4009V10.2768C22 9.95359 21.738 9.69156 21.4147 9.69156ZM12.0356 5.72396L15.8993 6.87781V20.8157H14.5959V17.0214C14.5959 15.5857 13.4278 14.4177 11.9922 14.4177C10.5565 14.4177 9.38853 15.5857 9.38853 17.0212V20.8157H8.1007V10.2768C8.1007 10.2765 8.10066 10.2763 8.10066 10.2761V6.89903L12.0356 5.72396ZM3.17051 10.8621H6.93015V20.8157H3.17051V10.8621ZM10.559 20.8157V17.0211C10.559 16.231 11.202 15.5882 11.9922 15.5882C12.7824 15.5882 13.4254 16.2311 13.4254 17.0213V20.8156H10.559V20.8157ZM20.8295 20.8157H17.0698V10.8621H20.8295V20.8157Z" fill="#2D2F35"/>
</g>
<defs>
<clipPath id="clip0">
<rect width="20" height="20" fill="white" transform="translate(2 2)"/>
</clipPath>
</defs>
</svg>
