<svg width="24" height="24" viewBox="0 0 24 24" fill="none" xmlns="http://www.w3.org/2000/svg">
<path d="M4.38281 18.4453C4.7064 18.4453 4.96875 18.183 4.96875 17.8594V9.65629C4.96875 7.57396 6.49933 5.84603 8.48436 5.5581V7.08759C7.09987 7.75333 6.14062 9.17969 6.14062 10.8281V21.414C6.14062 21.7376 6.40296 22 6.72655 22H13.7578C14.0814 22 14.3437 21.7376 14.3437 21.414V10.8281C14.3437 9.17969 13.3845 7.75333 12 7.08759V5.51568H13.6449L19.3995 7.81751C19.5811 7.89013 19.7856 7.867 19.9456 7.75868C20.1066 7.6497 20.2031 7.4679 20.2031 7.27349V2.58601C20.2031 2.39159 20.1066 2.2098 19.9456 2.10081C19.7846 1.99179 19.5801 1.9698 19.3995 2.04198L13.6449 4.34381C12.4643 4.34381 9.93646 4.34381 9.24767 4.34381L5.87968 2.09847C5.6105 1.91898 5.24667 1.99171 5.06714 2.26097C4.88765 2.53022 4.96043 2.89401 5.22968 3.0735L7.49721 4.58522C5.35535 5.26096 3.79688 7.27868 3.79688 9.65629V17.8594C3.79688 18.183 4.05922 18.4453 4.38281 18.4453ZM13.1718 18.4844H7.31249V11.4141H13.1718V18.4844ZM7.31249 20.8281V19.6563H13.1718V20.8281H7.31249ZM13.1143 10.2422H7.37006C7.63928 8.88497 8.82467 7.85942 10.2422 7.85942C11.6597 7.85942 12.845 8.88493 13.1143 10.2422ZM19.0312 3.45143V6.40802L15.3355 4.92975L19.0312 3.45143ZM10.8281 6.72997C10.6367 6.7022 10.4411 6.68755 10.2422 6.68755C10.0432 6.68755 9.84767 6.7022 9.65623 6.72997V5.51568H10.8281V6.72997Z" fill="#2D2F35" stroke="#2D2F35" stroke-width="0.2"/>
</svg>
