<svg width="24" height="24" viewBox="0 0 24 24" fill="none" xmlns="http://www.w3.org/2000/svg">
<path d="M19.3145 8.57187L18.3033 5.53848C17.9967 4.61816 17.1389 4 16.1689 4H7.83105C6.86113 4 6.00332 4.61816 5.69668 5.53848L4.68555 8.57187C3.71719 8.82285 3 9.7043 3 10.75V15.3C3 15.7143 3.33574 16.05 3.75 16.05H4.5V16.8C4.5 18.0406 5.50938 19.05 6.75 19.05C7.99062 19.05 9 18.0406 9 16.8V16.05H15V16.8C15 18.0406 16.0094 19.05 17.25 19.05C18.4906 19.05 19.5 18.0406 19.5 16.8V16.05H20.25C20.6643 16.05 21 15.7143 21 15.3V10.75C21 9.7043 20.2828 8.82285 19.3145 8.57187ZM7.83105 5.5H16.1689C16.4922 5.5 16.7781 5.70605 16.8803 6.01289L17.7094 8.5H16.0607L16.2803 8.28027C16.5732 7.9873 16.5732 7.5125 16.2803 7.21973C15.9875 6.92676 15.5127 6.92676 15.2197 7.21973L13.9393 8.5H10.0607L10.2803 8.28027C10.5732 7.9873 10.5732 7.5125 10.2803 7.21973C9.9875 6.92676 9.5127 6.92676 9.21973 7.21973L7.93926 8.5H6.29063L7.11953 6.01289C7.22188 5.70605 7.50781 5.5 7.83105 5.5ZM7.5 16.8C7.5 17.2135 7.16348 17.55 6.75 17.55C6.33652 17.55 6 17.2135 6 16.8V16.05H7.5V16.8ZM18 16.8C18 17.2135 17.6635 17.55 17.25 17.55C16.8365 17.55 16.5 17.2135 16.5 16.8V16.05H18V16.8ZM19.5 14.55H4.5V10.75C4.5 10.3371 4.83535 10.0012 5.24785 10.0002H5.2502C5.25176 10.0002 5.25332 10 5.25508 10H18.75C19.1635 10 19.5 10.3365 19.5 10.75V14.55Z" fill="#2D2F35"/>
<path d="M8.24976 11.5H6.74976C6.3355 11.5 5.99976 11.8357 5.99976 12.25C5.99976 12.6643 6.3355 13 6.74976 13H8.24976C8.66401 13 8.99976 12.6643 8.99976 12.25C8.99976 11.8357 8.66401 11.5 8.24976 11.5Z" fill="#2D2F35"/>
<path d="M17.2498 11.5H15.7498C15.3355 11.5 14.9998 11.8357 14.9998 12.25C14.9998 12.6643 15.3355 13 15.7498 13H17.2498C17.664 13 17.9998 12.6643 17.9998 12.25C17.9998 11.8357 17.664 11.5 17.2498 11.5Z" fill="#2D2F35"/>
</svg>
