<svg width="24" height="24" viewBox="0 0 24 24" fill="none" xmlns="http://www.w3.org/2000/svg">
<g clip-path="url(#clip0)">
<path d="M16.2568 18.4037H20.014C20.808 18.4037 21.2853 17.523 20.8519 16.8578L19.3213 14.5088H19.3795C20.1735 14.5088 20.6508 13.6281 20.2174 12.9629L18.3698 10.1273C19.0522 10.1273 19.4625 9.3703 19.09 8.79853L14.8464 2.28585C14.452 1.68041 13.5653 1.6804 13.1708 2.28584L10.5861 6.25259C9.57629 5.06609 8.7327 4.27956 8.64474 4.19832C8.39791 3.97045 8.01743 3.97045 7.7706 4.19832C7.53981 4.41148 2.11719 9.4677 2.11719 13.8883C2.11719 17.0289 4.50682 19.6217 7.56331 19.9447V21.7113H4.89941C4.54354 21.7113 4.25505 21.9998 4.25505 22.3556C4.25505 22.7115 4.54354 23 4.89941 23H18.4045C18.7604 23 19.0489 22.7115 19.0489 22.3556C19.0489 21.9998 18.7604 21.7113 18.4045 21.7113H16.2568V18.4037ZM13.11 21.7113V18.4037H14.968V21.7113H13.11ZM3.40591 13.8883C3.40591 10.7007 6.94933 6.84241 8.20801 5.57248C8.71021 6.07837 9.57529 6.99532 10.4308 8.1162C12.1177 10.3261 13.0093 12.3219 13.0093 13.8883C13.0093 16.3174 11.196 18.3308 8.85204 18.6466V16.8519L10.7278 14.9762C10.9794 14.7245 10.9794 14.3166 10.7278 14.0649C10.4762 13.8133 10.0682 13.8133 9.81657 14.0649L8.85204 15.0295V13.1056C8.85204 12.7497 8.56354 12.4612 8.20767 12.4612C7.8518 12.4612 7.56331 12.7497 7.56331 13.1056V15.0295L6.59886 14.065C6.34719 13.8133 5.93914 13.8134 5.6875 14.0651C5.43588 14.3167 5.4359 14.7247 5.68754 14.9763L7.56331 16.8521V18.6466C5.21916 18.3308 3.40591 16.3175 3.40591 13.8883ZM15.9919 8.83861L18.8468 13.2202H16.9436L19.4813 17.115H13.3708C13.9579 16.1787 14.2982 15.0726 14.2982 13.8883C14.2982 11.614 12.8627 9.17145 11.4375 7.30667L14.0086 3.3606L17.578 8.83861H15.9919ZM8.85204 21.7113V19.9447C9.9558 19.828 10.9726 19.4153 11.8212 18.7877V21.7113H8.85204Z" fill="#2D2F35"/>
</g>
<defs>
<clipPath id="clip0">
<rect width="22" height="22" fill="white" transform="translate(1 1)"/>
</clipPath>
</defs>
</svg>
