<svg width="24" height="24" viewBox="0 0 24 24" fill="none" xmlns="http://www.w3.org/2000/svg">
<g clip-path="url(#clip0)">
<path d="M20.6975 18.1011C20.3785 17.8798 19.9404 17.9588 19.719 18.2778C18.8279 19.5614 16.2345 19.5621 15.343 18.2778C15.2116 18.0885 14.9958 17.9756 14.7654 17.9756C14.5349 17.9756 14.3191 18.0885 14.1878 18.2778C13.2967 19.5614 10.7033 19.5621 9.81174 18.2778C9.68033 18.0885 9.46458 17.9756 9.23413 17.9756C9.00368 17.9756 8.78789 18.0886 8.65652 18.2778C7.76549 19.5615 5.17206 19.5621 4.28054 18.2778C4.05909 17.9588 3.62094 17.8798 3.302 18.1011C2.983 18.3226 2.9039 18.7606 3.12534 19.0796C4.4162 20.9393 7.5369 21.1406 9.23413 19.7107C10.7267 20.9681 13.2903 20.9534 14.7653 19.7107C16.4621 21.1402 19.5844 20.9376 20.8741 19.0796C21.0955 18.7606 21.0164 18.3226 20.6975 18.1011Z" fill="#2D2F35"/>
<path d="M6.44543 14.1086C6.83376 14.1086 7.14855 13.7938 7.14855 13.4055V12.3509H13.4766V13.4055C13.4766 13.7938 13.7914 14.1086 14.1797 14.1086C14.5681 14.1086 14.8828 13.7938 14.8828 13.4055V5.74203C14.8828 5.19929 15.3244 4.75773 15.8672 4.75773C16.41 4.75773 16.8516 5.19929 16.8516 5.74203C16.8516 6.13033 17.1664 6.44512 17.5547 6.44512C17.943 6.44512 18.2578 6.13033 18.2578 5.74203C18.2578 4.42393 17.1854 3.35156 15.8673 3.35156C14.5491 3.35156 13.4766 4.42393 13.4766 5.74203V7.78094H7.14855V5.74203C7.14855 5.19929 7.59011 4.75773 8.13292 4.75773C8.67573 4.75773 9.11729 5.19929 9.11729 5.74203C9.11729 6.13033 9.43208 6.44512 9.82041 6.44512C10.2087 6.44512 10.5235 6.13033 10.5235 5.74203C10.5235 4.42393 9.4511 3.35156 8.13292 3.35156C6.81475 3.35156 5.74231 4.42393 5.74231 5.74203V13.4056C5.74231 13.7938 6.0571 14.1086 6.44543 14.1086ZM7.14855 9.18708H13.4766V10.9448H7.14855V9.18708Z" fill="#2D2F35"/>
<path d="M9.23424 16.5467C9.9421 17.143 10.9239 17.4833 11.9998 17.4833C13.0758 17.4833 14.0575 17.143 14.7654 16.5467C16.4622 17.9761 19.5845 17.7735 20.8742 15.9156C21.0956 15.5966 21.0165 15.1585 20.6975 14.9371C20.3785 14.7157 19.9404 14.7948 19.719 15.1138C18.8279 16.3973 16.2345 16.3981 15.343 15.1138C15.2116 14.9245 14.9958 14.8116 14.7654 14.8116C14.5349 14.8116 14.3191 14.9245 14.1878 15.1137C13.2967 16.3973 10.7033 16.3981 9.81174 15.1137C9.68033 14.9245 9.46458 14.8116 9.23413 14.8116C9.00368 14.8116 8.78789 14.9245 8.65652 15.1138C7.76549 16.3974 5.17206 16.3981 4.28054 15.1138C4.05909 14.7947 3.62094 14.7157 3.302 14.9371C2.983 15.1585 2.9039 15.5966 3.12534 15.9156C4.4162 17.7752 7.5369 17.9765 9.23424 16.5467Z" fill="#2D2F35"/>
</g>
<defs>
<clipPath id="clip0">
<rect width="18" height="18" fill="white" transform="translate(3 3)"/>
</clipPath>
</defs>
</svg>
