<svg width="24" height="24" viewBox="0 0 24 24" fill="none" xmlns="http://www.w3.org/2000/svg">
<path fill-rule="evenodd" clip-rule="evenodd" d="M15.7433 5.52431C16.1011 5.7633 16.5217 5.89084 16.9519 5.89078C17.5286 5.8901 18.0815 5.66068 18.4893 5.25286C18.8971 4.84504 19.1264 4.29212 19.127 3.71541C19.127 3.28515 18.9994 2.86455 18.7604 2.50681C18.5213 2.14907 18.1816 1.87024 17.7841 1.7056C17.3865 1.54096 16.9491 1.4979 16.5272 1.58186C16.1052 1.66582 15.7175 1.87303 15.4133 2.17729C15.1091 2.48155 14.9019 2.86919 14.818 3.29119C14.7341 3.71319 14.7773 4.1506 14.942 4.54809C15.1066 4.94558 15.3855 5.28531 15.7433 5.52431ZM16.0607 2.38194C16.3245 2.20571 16.6347 2.11168 16.9519 2.11174C17.3771 2.11219 17.7848 2.2813 18.0854 2.58195C18.3861 2.88259 18.5552 3.29023 18.5556 3.71541C18.5557 4.03267 18.4616 4.34282 18.2854 4.60663C18.1092 4.87044 17.8587 5.07607 17.5656 5.19751C17.2725 5.31894 16.95 5.35073 16.6388 5.28885C16.3276 5.22697 16.0418 5.0742 15.8175 4.84987C15.5931 4.62553 15.4404 4.33971 15.3785 4.02854C15.3166 3.71738 15.3484 3.39485 15.4698 3.10176C15.5913 2.80866 15.7969 2.55816 16.0607 2.38194ZM14.6469 21.5399C14.3102 21.5392 13.9876 21.4049 13.7498 21.1666C13.5119 20.9282 13.3784 20.6052 13.3784 20.2685V16.1258L11.6741 14.765L9.97245 16.8355C9.8497 16.9854 9.69512 17.106 9.51993 17.1887C9.34474 17.2714 9.15334 17.314 8.95962 17.3135H4.94772C4.60859 17.3085 4.28505 17.1702 4.04701 16.9286C3.80897 16.687 3.67554 16.3614 3.67554 16.0222C3.67554 15.6831 3.80897 15.3575 4.04701 15.1159C4.28505 14.8743 4.60859 14.736 4.94772 14.731H8.15964L9.83805 12.6046C9.81498 12.5148 9.79647 12.4235 9.78268 12.331C9.68252 11.659 9.83968 10.974 10.2228 10.4128L11.867 8.01001L9.71363 7.81887L7.68197 9.76368C7.47206 9.95506 7.19766 10.0602 6.91361 10.0581C6.62956 10.056 6.35676 9.94674 6.14972 9.75225C6.04574 9.64941 5.96325 9.52691 5.90708 9.39187C5.85091 9.25683 5.82218 9.11197 5.82255 8.96572C5.82292 8.81947 5.85239 8.67475 5.90925 8.54001C5.96611 8.40526 6.04921 8.28317 6.15372 8.18086L8.5508 5.8495C8.81364 5.59351 9.16588 5.45002 9.53278 5.44951H13.5555C13.8967 5.45084 14.2287 5.56004 14.5041 5.7615L15.8343 6.75433C16.0922 6.948 16.2815 7.21894 16.3747 7.52769C16.4498 7.77675 16.4593 8.03991 16.4036 8.29193L18.013 9.92616H20.1969C20.3411 9.92616 20.4838 9.95454 20.6169 10.0097C20.75 10.0648 20.871 10.1457 20.9729 10.2476C21.0748 10.3495 21.1557 10.4705 21.2108 10.6036C21.266 10.7367 21.2943 10.8794 21.2943 11.0236C21.2943 11.1677 21.266 11.3104 21.2108 11.4435C21.1557 11.5767 21.0748 11.6976 20.9729 11.7995C20.871 11.9014 20.75 11.9823 20.6169 12.0374C20.4838 12.0926 20.3411 12.121 20.1969 12.121V12.1215H17.2853C17.1415 12.1213 16.9993 12.0924 16.8668 12.0366C16.7344 11.9807 16.6144 11.8989 16.5139 11.7961L15.1206 10.3642L13.6695 12.4885L15.5432 14.2581C15.6617 14.37 15.7562 14.505 15.8207 14.6547C15.8674 14.7631 15.8978 14.8777 15.9109 14.9946C15.9156 15.0036 15.9183 15.022 15.9183 15.0539L15.9183 15.1287V15.2544L15.9183 19.8552L15.9182 19.8816L15.9183 19.8914V20.2685C15.9177 20.6055 15.7842 20.9285 15.5469 21.1677C15.4294 21.2868 15.2892 21.3811 15.1346 21.445C14.9801 21.509 14.8142 21.5412 14.6469 21.5399ZM11.1207 13.5916L11.7615 14.1033C11.7817 14.1131 11.8008 14.1252 11.8182 14.1396C11.8337 14.1522 11.8477 14.1664 11.86 14.1819L13.8435 15.7658C13.877 15.7926 13.9041 15.8265 13.9227 15.8651C13.9413 15.9038 13.9509 15.9461 13.9509 15.9889V20.2685C13.9508 20.4536 14.0239 20.6311 14.1544 20.7623C14.2848 20.8935 14.4619 20.9676 14.6469 20.9685C14.7386 20.9694 14.8295 20.9518 14.9142 20.9169C14.999 20.882 15.0759 20.8305 15.1403 20.7654C15.272 20.6335 15.3463 20.4549 15.3469 20.2685V19.8914L15.3471 19.8818L15.3469 19.8552V15.1243C15.3465 15.0407 15.3292 14.9581 15.2962 14.8813C15.2626 14.8032 15.2133 14.7328 15.1515 14.6744L13.0995 12.7365C13.0501 12.6898 13.0189 12.627 13.0115 12.5594C13.0042 12.4918 13.0212 12.4238 13.0595 12.3676L14.8385 9.76316C14.843 9.75589 14.8478 9.74881 14.853 9.74195L15.7078 8.49057C15.7525 8.42518 15.7886 8.35419 15.8149 8.27943C15.8821 8.09067 15.8872 7.88539 15.8294 7.69352C15.7717 7.50166 15.6542 7.33326 15.4941 7.21289L14.1647 6.22063C13.9877 6.09148 13.7746 6.02149 13.5555 6.02063H9.53278C9.31512 6.02091 9.10617 6.10621 8.95051 6.25834L6.55228 8.59114C6.50234 8.64049 6.46268 8.69926 6.43562 8.76404C6.40855 8.82883 6.39462 8.89834 6.39462 8.96856C6.39462 9.03877 6.40855 9.10829 6.43562 9.17307C6.46268 9.23786 6.50234 9.29663 6.55228 9.34598C6.65172 9.43892 6.78243 9.49111 6.91853 9.49222C7.05463 9.49334 7.18619 9.44328 7.28712 9.35198L9.41335 7.31689C9.44283 7.28872 9.47799 7.26718 9.51648 7.25373C9.55496 7.24028 9.59588 7.23522 9.63649 7.23889L12.405 7.4846C12.4546 7.48904 12.5023 7.50639 12.5431 7.53494C12.584 7.56349 12.6167 7.60223 12.638 7.64732C12.6592 7.69241 12.6683 7.74228 12.6643 7.79197C12.6603 7.84167 12.6434 7.88945 12.6153 7.93058L10.6956 10.7362C10.394 11.1783 10.2702 11.7178 10.349 12.2472C10.4278 12.7765 10.7034 13.2566 11.1207 13.5916ZM9.53103 16.4727L11.2276 14.4085L10.763 14.0376C10.4808 13.8113 10.2496 13.5327 10.08 13.2203L8.5222 15.1938C8.49545 15.2277 8.46137 15.2551 8.42252 15.2739C8.38368 15.2927 8.34108 15.3024 8.29792 15.3024H4.94772C4.75929 15.3062 4.57985 15.3837 4.44792 15.5182C4.31598 15.6528 4.24208 15.8338 4.24208 16.0222C4.24208 16.2107 4.31598 16.3917 4.44792 16.5263C4.57985 16.6608 4.75929 16.7383 4.94772 16.7421H8.95962C9.0689 16.7425 9.17689 16.7185 9.27573 16.6719C9.37457 16.6253 9.46179 16.5572 9.53103 16.4727ZM15.4501 9.88182L16.9239 11.3973C16.971 11.4454 17.0272 11.4837 17.0892 11.5099C17.1513 11.5361 17.2179 11.5497 17.2853 11.5498H20.1969C20.3364 11.5498 20.4702 11.4944 20.5689 11.3958C20.6675 11.2971 20.7229 11.1633 20.7229 11.0238C20.7229 10.8843 20.6675 10.7506 20.5689 10.6519C20.4702 10.5533 20.3364 10.4979 20.1969 10.4979H17.8933C17.8553 10.4978 17.8178 10.4902 17.7828 10.4755C17.7478 10.4608 17.7161 10.4392 17.6896 10.4121L16.1533 8.85234L15.4501 9.88182Z" fill="#2D2F35"/>
<path d="M16.9519 5.89078L16.952 6.24078L16.9523 6.24078L16.9519 5.89078ZM15.7433 5.52431L15.9377 5.23327V5.23327L15.7433 5.52431ZM18.4893 5.25286L18.7368 5.50033V5.50033L18.4893 5.25286ZM19.127 3.71541L19.477 3.71578V3.71541H19.127ZM18.7604 2.50681L18.4694 2.70126V2.70126L18.7604 2.50681ZM17.7841 1.7056L17.6501 2.02897V2.02897L17.7841 1.7056ZM15.4133 2.17729L15.6608 2.42476L15.6608 2.42476L15.4133 2.17729ZM16.9519 2.11174L16.9523 1.76174L16.952 1.76174L16.9519 2.11174ZM16.0607 2.38194L15.8663 2.0909L16.0607 2.38194ZM18.5556 3.71541L18.9056 3.71535L18.9056 3.71504L18.5556 3.71541ZM18.2854 4.60663L18.5765 4.80104V4.80104L18.2854 4.60663ZM16.6388 5.28885L16.7071 4.94557H16.7071L16.6388 5.28885ZM15.3785 4.02854L15.7218 3.96028V3.96028L15.3785 4.02854ZM13.7498 21.1666L13.502 21.4138L13.502 21.4138L13.7498 21.1666ZM14.6469 21.5399L14.6496 21.19L14.6477 21.1899L14.6469 21.5399ZM13.3784 20.2685L13.7284 20.2686V20.2685H13.3784ZM13.3784 16.1258H13.7284V15.9574L13.5968 15.8523L13.3784 16.1258ZM11.6741 14.765L11.8924 14.4915L11.6228 14.2761L11.4037 14.5428L11.6741 14.765ZM9.97245 16.8355L9.70205 16.6133L9.70169 16.6137L9.97245 16.8355ZM9.51993 17.1887L9.37055 16.8722H9.37055L9.51993 17.1887ZM8.95962 17.3135L8.96054 16.9635H8.95962V17.3135ZM4.94772 17.3135L4.94252 17.6635H4.94772V17.3135ZM4.04701 16.9286L3.79769 17.1742H3.79769L4.04701 16.9286ZM4.04701 15.1159L3.79769 14.8703H3.79769L4.04701 15.1159ZM4.94772 14.731V14.381L4.94252 14.381L4.94772 14.731ZM8.15964 14.731V15.081H8.32927L8.43437 14.9478L8.15964 14.731ZM9.83805 12.6046L10.1128 12.8214L10.2202 12.6854L10.177 12.5175L9.83805 12.6046ZM9.78268 12.331L9.43651 12.3826L9.78268 12.331ZM10.2228 10.4128L9.93392 10.2151L9.93369 10.2155L10.2228 10.4128ZM11.867 8.01001L12.1558 8.20767L12.4935 7.71424L11.8979 7.66138L11.867 8.01001ZM9.71363 7.81887L9.74458 7.47024L9.58635 7.4562L9.47161 7.56604L9.71363 7.81887ZM7.68197 9.76368L7.91785 10.0224L7.92399 10.0165L7.68197 9.76368ZM6.91361 10.0581L6.91622 9.70809H6.91622L6.91361 10.0581ZM6.14972 9.75225L5.90353 10.0012L5.91009 10.0073L6.14972 9.75225ZM5.90708 9.39187L6.23024 9.25745L6.23024 9.25745L5.90708 9.39187ZM5.82255 8.96572L6.17255 8.96661L5.82255 8.96572ZM5.90925 8.54001L5.58678 8.40394H5.58678L5.90925 8.54001ZM6.15372 8.18086L5.9097 7.92996L5.90888 7.93076L6.15372 8.18086ZM8.5508 5.8495L8.79483 6.1004L8.79501 6.10023L8.5508 5.8495ZM9.53278 5.44951V5.09951L9.53229 5.09951L9.53278 5.44951ZM13.5555 5.44951L13.5569 5.09951H13.5555V5.44951ZM14.5041 5.7615L14.7134 5.481L14.7107 5.47903L14.5041 5.7615ZM15.8343 6.75433L16.0445 6.47446L16.0437 6.47384L15.8343 6.75433ZM16.3747 7.52769L16.7098 7.42657L16.3747 7.52769ZM16.4036 8.29193L16.0618 8.2164L16.0208 8.40205L16.1542 8.53751L16.4036 8.29193ZM18.013 9.92616L17.7636 10.1717L17.8665 10.2762H18.013V9.92616ZM20.6169 10.0097L20.7508 9.68633L20.7508 9.68633L20.6169 10.0097ZM20.9729 10.2476L20.7254 10.4951V10.4951L20.9729 10.2476ZM21.2108 10.6036L21.5342 10.4697V10.4697L21.2108 10.6036ZM21.2108 11.4435L21.5342 11.5775V11.5775L21.2108 11.4435ZM20.9729 11.7995L20.7254 11.5521V11.5521L20.9729 11.7995ZM20.6169 12.0374L20.7508 12.3608L20.7508 12.3608L20.6169 12.0374ZM20.1969 12.121V11.771H19.8469V12.121H20.1969ZM20.1969 12.1215V12.4715H20.5469V12.1215H20.1969ZM17.2853 12.1215L17.2848 12.4715H17.2853V12.1215ZM16.8668 12.0366L16.7308 12.359L16.8668 12.0366ZM16.5139 11.7961L16.263 12.0402L16.2636 12.0407L16.5139 11.7961ZM15.1206 10.3642L15.3715 10.1201L15.073 9.81335L14.8316 10.1667L15.1206 10.3642ZM13.6695 12.4885L13.3805 12.291L13.212 12.5378L13.4292 12.7429L13.6695 12.4885ZM15.5432 14.2581L15.3029 14.5126L15.303 14.5127L15.5432 14.2581ZM15.8207 14.6547L15.4993 14.7932L15.4993 14.7932L15.8207 14.6547ZM15.9109 14.9946L15.5631 15.0336L15.5705 15.1001L15.6019 15.1591L15.9109 14.9946ZM15.9183 15.0539L16.2683 15.0539V15.0539H15.9183ZM15.9183 15.1287L15.5683 15.1287V15.1287H15.9183ZM15.9183 15.2544H15.5683H15.9183ZM15.9183 19.8552L16.2683 19.8574V19.8552H15.9183ZM15.9182 19.8816L15.5681 19.8794L15.5682 19.8876L15.9182 19.8816ZM15.9183 19.8914H16.2684L16.2683 19.8854L15.9183 19.8914ZM15.9183 20.2685L16.2683 20.2692V20.2685H15.9183ZM15.5469 21.1677L15.2985 20.9211L15.2977 20.9219L15.5469 21.1677ZM15.1346 21.445L15.2684 21.7684L15.2684 21.7684L15.1346 21.445ZM11.7615 14.1033L11.5431 14.3768L11.5737 14.4012L11.6089 14.4182L11.7615 14.1033ZM11.1207 13.5916L10.9016 13.8645L10.9023 13.8651L11.1207 13.5916ZM11.8182 14.1396L12.0404 13.8691V13.8691L11.8182 14.1396ZM11.86 14.1819L11.5867 14.4005L11.6111 14.431L11.6416 14.4554L11.86 14.1819ZM13.8435 15.7658L14.0619 15.4923L14.0619 15.4923L13.8435 15.7658ZM13.9227 15.8651L13.6073 16.017L13.6073 16.017L13.9227 15.8651ZM13.9509 15.9889H14.3009V15.9888L13.9509 15.9889ZM13.9509 20.2685L14.3009 20.2688V20.2685H13.9509ZM14.1544 20.7623L13.9062 21.009L13.9062 21.009L14.1544 20.7623ZM14.6469 20.9685L14.6501 20.6185L14.6486 20.6185L14.6469 20.9685ZM14.9142 20.9169L15.0475 21.2406H15.0475L14.9142 20.9169ZM15.1403 20.7654L14.8927 20.5181L14.8917 20.5191L15.1403 20.7654ZM15.3469 20.2685L15.6969 20.2697V20.2685H15.3469ZM15.3469 19.8914L14.9969 19.8855V19.8914H15.3469ZM15.3471 19.8818L15.6971 19.8877L15.6971 19.8795L15.3471 19.8818ZM15.3469 19.8552H14.9969L14.9969 19.8574L15.3469 19.8552ZM15.3469 15.1243H15.6969L15.6969 15.1225L15.3469 15.1243ZM15.2962 14.8813L15.6177 14.743L15.6177 14.743L15.2962 14.8813ZM15.1515 14.6744L14.9112 14.9289L14.9113 14.9289L15.1515 14.6744ZM13.0995 12.7365L13.3399 12.482L13.3397 12.4818L13.0995 12.7365ZM13.0115 12.5594L12.6636 12.5971L12.6636 12.5971L13.0115 12.5594ZM13.0595 12.3676L12.7705 12.1702L12.7704 12.1704L13.0595 12.3676ZM14.8385 9.76316L15.1275 9.96057L15.132 9.95408L15.1361 9.9474L14.8385 9.76316ZM14.853 9.74195L15.1329 9.95214L15.1376 9.94585L15.142 9.93936L14.853 9.74195ZM15.7078 8.49057L15.419 8.29279L15.4187 8.29316L15.7078 8.49057ZM15.8149 8.27943L15.4852 8.1621L15.4848 8.16317L15.8149 8.27943ZM15.8294 7.69352L15.4943 7.79435L15.4943 7.79435L15.8294 7.69352ZM15.4941 7.21289L15.7043 6.9331L15.7034 6.93241L15.4941 7.21289ZM14.1647 6.22063L14.374 5.94013L14.371 5.93794L14.1647 6.22063ZM13.5555 6.02063L13.5569 5.67063H13.5555V6.02063ZM9.53278 6.02063V5.67063L9.53234 5.67063L9.53278 6.02063ZM8.95051 6.25834L9.19455 6.50923L9.19514 6.50865L8.95051 6.25834ZM6.55228 8.59114L6.30824 8.34025L6.3063 8.34216L6.55228 8.59114ZM6.43562 8.76404L6.75857 8.89896V8.89896L6.43562 8.76404ZM6.43562 9.17307L6.75857 9.03816L6.75857 9.03816L6.43562 9.17307ZM6.55228 9.34598L6.3062 9.59505L6.31329 9.60167L6.55228 9.34598ZM6.91853 9.49222L6.92139 9.14224H6.92139L6.91853 9.49222ZM7.28712 9.35198L7.52201 9.61164L7.52913 9.60482L7.28712 9.35198ZM9.41335 7.31689L9.17153 7.06386L9.17134 7.06404L9.41335 7.31689ZM9.51648 7.25373L9.63196 7.58413L9.63197 7.58413L9.51648 7.25373ZM9.63649 7.23889L9.60496 7.58747L9.60555 7.58752L9.63649 7.23889ZM12.405 7.4846L12.4362 7.13599L12.4359 7.13597L12.405 7.4846ZM12.5431 7.53494L12.3427 7.82187L12.3427 7.82188L12.5431 7.53494ZM12.6643 7.79197L12.3154 7.76403L12.6643 7.79197ZM12.6153 7.93058L12.3265 7.73284L12.3264 7.73294L12.6153 7.93058ZM10.6956 10.7362L10.4067 10.5386L10.4065 10.539L10.6956 10.7362ZM10.349 12.2472L10.6952 12.1956L10.349 12.2472ZM11.2276 14.4085L11.498 14.6308L11.7234 14.3565L11.446 14.135L11.2276 14.4085ZM9.53103 16.4727L9.26064 16.2504L9.26026 16.2509L9.53103 16.4727ZM10.763 14.0376L10.5441 14.3106L10.5446 14.3111L10.763 14.0376ZM10.08 13.2203L10.3876 13.0533L10.1343 12.5867L9.80529 13.0035L10.08 13.2203ZM8.5222 15.1938L8.79681 15.4108L8.79693 15.4107L8.5222 15.1938ZM8.29792 15.3024L8.29806 14.9524H8.29792V15.3024ZM4.94772 15.3024V14.9523L4.94075 14.9525L4.94772 15.3024ZM4.44792 15.5182L4.69786 15.7633L4.69786 15.7632L4.44792 15.5182ZM4.44792 16.5263L4.69786 16.2812L4.69786 16.2812L4.44792 16.5263ZM4.94772 16.7421L4.94075 17.0921H4.94772V16.7421ZM8.95962 16.7421L8.9608 16.3921H8.95962V16.7421ZM9.27573 16.6719L9.12647 16.3553L9.12647 16.3553L9.27573 16.6719ZM16.9239 11.3973L16.673 11.6413L16.6736 11.642L16.9239 11.3973ZM15.4501 9.88182L15.1611 9.6844L14.9997 9.92069L15.1992 10.1258L15.4501 9.88182ZM17.0892 11.5099L16.9531 11.8324L16.9531 11.8324L17.0892 11.5099ZM17.2853 11.5498L17.2845 11.8998H17.2853V11.5498ZM20.5689 11.3958L20.3214 11.1483L20.3214 11.1483L20.5689 11.3958ZM20.5689 10.6519L20.3214 10.8994L20.3214 10.8994L20.5689 10.6519ZM17.8933 10.4979L17.8929 10.8479H17.8933V10.4979ZM17.7828 10.4755L17.9186 10.1529L17.9185 10.1529L17.7828 10.4755ZM17.6896 10.4121L17.9395 10.1671L17.9389 10.1665L17.6896 10.4121ZM16.1533 8.85234L16.4027 8.60674L16.1042 8.3037L15.8643 8.65492L16.1533 8.85234ZM16.9519 5.54078C16.5909 5.54083 16.2379 5.43381 15.9377 5.23327L15.5489 5.81534C15.9642 6.09279 16.4525 6.24085 16.952 6.24078L16.9519 5.54078ZM18.2418 5.00539C17.8996 5.34767 17.4355 5.54021 16.9515 5.54078L16.9523 6.24078C17.6217 6.23999 18.2635 5.9737 18.7368 5.50033L18.2418 5.00539ZM18.777 3.71504C18.7765 4.19906 18.584 4.66312 18.2418 5.00539L18.7368 5.50033C19.2101 5.02696 19.4763 4.38518 19.477 3.71578L18.777 3.71504ZM18.4694 2.70126C18.67 3.00145 18.777 3.35438 18.777 3.71541H19.477C19.477 3.21593 19.3289 2.72766 19.0514 2.31236L18.4694 2.70126ZM17.6501 2.02897C17.9837 2.16712 18.2688 2.40108 18.4694 2.70126L19.0514 2.31236C18.7739 1.89705 18.3795 1.57337 17.918 1.38224L17.6501 2.02897ZM16.5954 1.92513C16.9495 1.85468 17.3166 1.89081 17.6501 2.02897L17.918 1.38224C17.4565 1.19111 16.9487 1.14112 16.4589 1.23859L16.5954 1.92513ZM15.6608 2.42476C15.9161 2.16946 16.2414 1.99558 16.5954 1.92513L16.4589 1.23859C15.969 1.33606 15.519 1.57661 15.1658 1.92982L15.6608 2.42476ZM15.1613 3.35945C15.2317 3.00534 15.4056 2.68007 15.6608 2.42476L15.1658 1.92982C14.8127 2.28303 14.5722 2.73304 14.4748 3.22294L15.1613 3.35945ZM15.2653 4.41412C15.1271 4.08058 15.0909 3.71355 15.1613 3.35945L14.4748 3.22294C14.3774 3.71284 14.4274 4.22061 14.6186 4.68206L15.2653 4.41412ZM15.9377 5.23327C15.6375 5.03272 15.4035 4.74766 15.2653 4.41412L14.6186 4.68206C14.8098 5.1435 15.1335 5.53789 15.5489 5.81534L15.9377 5.23327ZM16.952 1.76174C16.5655 1.76167 16.1877 1.87622 15.8663 2.0909L16.2551 2.67298C16.4614 2.53521 16.7038 2.4617 16.9519 2.46174L16.952 1.76174ZM18.3329 2.33446C17.9667 1.96826 17.4702 1.76229 16.9523 1.76174L16.9516 2.46174C17.284 2.46209 17.6028 2.59433 17.8379 2.82943L18.3329 2.33446ZM18.9056 3.71504C18.9051 3.19716 18.6991 2.70065 18.3329 2.33446L17.8379 2.82943C18.073 3.06454 18.2053 3.3833 18.2056 3.71579L18.9056 3.71504ZM18.5765 4.80104C18.7911 4.47966 18.9057 4.10184 18.9056 3.71535L18.2056 3.71547C18.2057 3.9635 18.1321 4.20597 17.9944 4.41222L18.5765 4.80104ZM17.6996 5.52085C18.0566 5.37292 18.3618 5.12242 18.5765 4.80104L17.9944 4.41222C17.8566 4.61847 17.6608 4.77922 17.4316 4.87416L17.6996 5.52085ZM16.5705 5.63213C16.9496 5.70751 17.3425 5.66879 17.6996 5.52085L17.4316 4.87416C17.2025 4.9691 16.9503 4.99395 16.7071 4.94557L16.5705 5.63213ZM15.57 5.09735C15.8433 5.37064 16.1915 5.55674 16.5705 5.63213L16.7071 4.94557C16.4638 4.89719 16.2404 4.77776 16.065 4.60238L15.57 5.09735ZM15.0352 4.09681C15.1106 4.47587 15.2967 4.82407 15.57 5.09735L16.065 4.60238C15.8896 4.427 15.7702 4.20354 15.7218 3.96028L15.0352 4.09681ZM15.1465 2.96779C14.9986 3.32484 14.9598 3.71775 15.0352 4.09681L15.7218 3.96028C15.6734 3.71701 15.6983 3.46487 15.7932 3.23573L15.1465 2.96779ZM15.8663 2.0909C15.5449 2.30557 15.2944 2.61074 15.1465 2.96779L15.7932 3.23573C15.8881 3.00659 16.0489 2.81075 16.2551 2.67298L15.8663 2.0909ZM13.502 21.4138C13.8053 21.7177 14.2168 21.889 14.6461 21.8899L14.6477 21.1899C14.4037 21.1894 14.1699 21.0921 13.9975 20.9193L13.502 21.4138ZM13.0284 20.2685C13.0284 20.6979 13.1987 21.1098 13.502 21.4138L13.9975 20.9193C13.8252 20.7466 13.7284 20.5126 13.7284 20.2686L13.0284 20.2685ZM13.0284 16.1258V20.2685H13.7284V16.1258H13.0284ZM11.4557 15.0385L13.16 16.3993L13.5968 15.8523L11.8924 14.4915L11.4557 15.0385ZM10.2429 17.0577L11.9445 14.9872L11.4037 14.5428L9.70205 16.6133L10.2429 17.0577ZM9.6693 17.5052C9.89148 17.4004 10.0875 17.2474 10.2432 17.0573L9.70169 16.6137C9.61186 16.7234 9.49875 16.8117 9.37055 16.8722L9.6693 17.5052ZM8.9587 17.6635C9.20438 17.6641 9.44712 17.6101 9.6693 17.5052L9.37055 16.8722C9.24235 16.9327 9.10229 16.9639 8.96054 16.9635L8.9587 17.6635ZM4.94772 17.6635H8.95962V16.9635H4.94772V17.6635ZM3.79769 17.1742C4.10025 17.4813 4.51147 17.657 4.94252 17.6635L4.95293 16.9635C4.70571 16.9599 4.46986 16.8591 4.29633 16.6829L3.79769 17.1742ZM3.32554 16.0222C3.32554 16.4533 3.49514 16.8671 3.79769 17.1742L4.29633 16.6829C4.12281 16.5068 4.02554 16.2695 4.02554 16.0222H3.32554ZM3.79769 14.8703C3.49514 15.1774 3.32554 15.5912 3.32554 16.0222H4.02554C4.02554 15.775 4.12281 15.5377 4.29633 15.3616L3.79769 14.8703ZM4.94252 14.381C4.51147 14.3874 4.10025 14.5632 3.79769 14.8703L4.29633 15.3616C4.46986 15.1854 4.70571 15.0846 4.95293 15.081L4.94252 14.381ZM8.15964 14.381H4.94772V15.081H8.15964V14.381ZM9.56332 12.3877L7.88491 14.5141L8.43437 14.9478L10.1128 12.8214L9.56332 12.3877ZM9.43651 12.3826C9.45208 12.4871 9.473 12.5902 9.49906 12.6917L10.177 12.5175C10.157 12.4394 10.1409 12.3599 10.1289 12.2794L9.43651 12.3826ZM9.93369 10.2155C9.50091 10.8495 9.32335 11.6234 9.43651 12.3826L10.1289 12.2794C10.0417 11.6946 10.1785 11.0985 10.5118 10.6101L9.93369 10.2155ZM11.5782 7.81235L9.93392 10.2151L10.5116 10.6105L12.1558 8.20767L11.5782 7.81235ZM9.68269 8.1675L11.8361 8.35864L11.8979 7.66138L9.74458 7.47024L9.68269 8.1675ZM7.92399 10.0165L9.95565 8.07171L9.47161 7.56604L7.43995 9.51085L7.92399 10.0165ZM6.911 10.4081C7.28319 10.4108 7.64273 10.2731 7.91778 10.0223L7.44616 9.50504C7.30138 9.63704 7.11213 9.70955 6.91622 9.70809L6.911 10.4081ZM5.91009 10.0073C6.18136 10.2622 6.53881 10.4053 6.911 10.4081L6.91622 9.70809C6.72031 9.70662 6.53216 9.6313 6.38936 9.49716L5.91009 10.0073ZM5.58393 9.52629C5.65793 9.70421 5.76661 9.86561 5.90361 10.0011L6.39583 9.5034C6.32487 9.43321 6.26857 9.3496 6.23024 9.25745L5.58393 9.52629ZM5.47255 8.96483C5.47206 9.15752 5.50992 9.34838 5.58393 9.52629L6.23024 9.25745C6.1919 9.16529 6.17229 9.06642 6.17255 8.96661L5.47255 8.96483ZM5.58678 8.40394C5.51187 8.58147 5.47304 8.77214 5.47255 8.96483L6.17255 8.96661C6.1728 8.8668 6.19292 8.76803 6.23172 8.67607L5.58678 8.40394ZM5.90888 7.93076C5.77119 8.06555 5.6617 8.2264 5.58678 8.40394L6.23172 8.67607C6.27052 8.58411 6.32724 8.50079 6.39856 8.43097L5.90888 7.93076ZM8.30678 5.59859L5.9097 7.92996L6.39775 8.43177L8.79483 6.1004L8.30678 5.59859ZM9.53229 5.09951C9.07434 5.10015 8.63466 5.27924 8.3066 5.59877L8.79501 6.10023C8.99261 5.90777 9.25743 5.7999 9.53327 5.79951L9.53229 5.09951ZM13.5555 5.09951H9.53278V5.79951H13.5555V5.09951ZM14.7107 5.47903C14.3758 5.23397 13.9719 5.10113 13.5569 5.09951L13.5542 5.7995C13.8215 5.80055 14.0817 5.88612 14.2974 6.04397L14.7107 5.47903ZM16.0437 6.47384L14.7134 5.48101L14.2947 6.04199L15.625 7.03482L16.0437 6.47384ZM16.7098 7.42657C16.5951 7.04646 16.362 6.71289 16.0445 6.47446L15.6241 7.0342C15.8224 7.1831 15.968 7.39141 16.0396 7.6288L16.7098 7.42657ZM16.7453 8.36746C16.8139 8.0572 16.8023 7.7332 16.7098 7.42657L16.0396 7.6288C16.0974 7.82029 16.1046 8.02263 16.0618 8.2164L16.7453 8.36746ZM18.2624 9.68057L16.653 8.04634L16.1542 8.53751L17.7636 10.1717L18.2624 9.68057ZM20.1969 9.57616H18.013V10.2762H20.1969V9.57616ZM20.7508 9.68633C20.5752 9.6136 20.387 9.57616 20.1969 9.57616V10.2762C20.2951 10.2762 20.3923 10.2955 20.483 10.3331L20.7508 9.68633ZM21.2204 10.0001C21.086 9.86569 20.9264 9.75907 20.7508 9.68633L20.483 10.333C20.5736 10.3706 20.656 10.4257 20.7254 10.4951L21.2204 10.0001ZM21.5342 10.4697C21.4614 10.2941 21.3548 10.1345 21.2204 10.0001L20.7254 10.4951C20.7948 10.5645 20.8499 10.6469 20.8875 10.7375L21.5342 10.4697ZM21.6444 11.0236C21.6444 10.8335 21.6069 10.6453 21.5342 10.4697L20.8875 10.7375C20.925 10.8282 20.9443 10.9254 20.9443 11.0236H21.6444ZM21.5342 11.5775C21.6069 11.4018 21.6444 11.2136 21.6444 11.0236H20.9443C20.9443 11.1217 20.925 11.2189 20.8875 11.3096L21.5342 11.5775ZM21.2204 12.047C21.3548 11.9126 21.4614 11.7531 21.5342 11.5775L20.8875 11.3096C20.8499 11.4003 20.7948 11.4826 20.7254 11.5521L21.2204 12.047ZM20.7508 12.3608C20.9264 12.288 21.086 12.1814 21.2204 12.047L20.7254 11.5521C20.656 11.6215 20.5736 11.6765 20.483 11.7141L20.7508 12.3608ZM20.1969 12.471C20.387 12.471 20.5752 12.4335 20.7508 12.3608L20.483 11.7141C20.3923 11.7516 20.2951 11.771 20.1969 11.771V12.471ZM20.5469 12.1215V12.121H19.8469V12.1215H20.5469ZM17.2853 12.4715H20.1969V11.7715H17.2853V12.4715ZM16.7308 12.359C16.9061 12.433 17.0945 12.4713 17.2848 12.4715L17.2858 11.7715C17.1886 11.7714 17.0924 11.7519 17.0028 11.7141L16.7308 12.359ZM16.2636 12.0407C16.3966 12.1768 16.5554 12.2851 16.7308 12.359L17.0028 11.7141C16.9133 11.6763 16.8322 11.621 16.7642 11.5515L16.2636 12.0407ZM14.8698 10.6082L16.263 12.0402L16.7647 11.552L15.3715 10.1201L14.8698 10.6082ZM13.9585 12.6859L15.4096 10.5616L14.8316 10.1667L13.3805 12.291L13.9585 12.6859ZM15.7835 14.0037L13.9099 12.234L13.4292 12.7429L15.3029 14.5126L15.7835 14.0037ZM16.1421 14.5161C16.0587 14.3226 15.9367 14.1482 15.7834 14.0036L15.303 14.5127C15.3868 14.5918 15.4536 14.6873 15.4993 14.7932L16.1421 14.5161ZM16.2587 14.9556C16.2417 14.8045 16.2025 14.6564 16.1421 14.5161L15.4993 14.7932C15.5323 14.8699 15.5538 14.9509 15.5631 15.0336L16.2587 14.9556ZM16.2683 15.0539C16.2683 15.0297 16.2674 15.0006 16.2634 14.9703C16.2603 14.9461 16.2517 14.89 16.2198 14.8301L15.6019 15.1591C15.5869 15.1309 15.5794 15.1067 15.5757 15.0928C15.5718 15.0781 15.5701 15.0668 15.5693 15.061C15.5679 15.0501 15.5683 15.0461 15.5683 15.0539H16.2683ZM16.2683 15.1287L16.2683 15.0539L15.5683 15.0538L15.5683 15.1287L16.2683 15.1287ZM16.2683 15.2544V15.1287H15.5683V15.2544H16.2683ZM16.2683 19.8552L16.2683 15.2544H15.5683L15.5683 19.8552H16.2683ZM16.2682 19.8839L16.2683 19.8574L15.5683 19.853L15.5682 19.8794L16.2682 19.8839ZM16.2683 19.8854L16.2681 19.8757L15.5682 19.8876L15.5684 19.8974L16.2683 19.8854ZM16.2683 20.2685V19.8914H15.5683V20.2685H16.2683ZM15.7953 21.4142C16.0976 21.1097 16.2675 20.6983 16.2683 20.2692L15.5683 20.2679C15.5679 20.5127 15.4709 20.7474 15.2985 20.9211L15.7953 21.4142ZM15.2684 21.7684C15.4663 21.6866 15.6457 21.5659 15.7961 21.4135L15.2977 20.9219C15.2131 21.0076 15.1122 21.0756 15.0009 21.1216L15.2684 21.7684ZM14.6442 21.8899C14.8583 21.8916 15.0706 21.8503 15.2684 21.7684L15.0009 21.1216C14.8895 21.1676 14.7701 21.1909 14.6496 21.19L14.6442 21.8899ZM11.9799 13.8298L11.3391 13.3181L10.9023 13.8651L11.5431 14.3768L11.9799 13.8298ZM12.0404 13.8691C12.0016 13.8372 11.9592 13.8101 11.9142 13.7883L11.6089 14.4182C11.6043 14.416 11.6 14.4133 11.5961 14.41L12.0404 13.8691ZM12.1334 13.9634C12.1058 13.9289 12.0747 13.8973 12.0404 13.8691L11.5961 14.41C11.5926 14.4072 11.5895 14.404 11.5867 14.4005L12.1334 13.9634ZM14.0619 15.4923L12.0784 13.9084L11.6416 14.4554L13.6251 16.0393L14.0619 15.4923ZM14.238 15.7133C14.1966 15.6274 14.1365 15.5518 14.0619 15.4923L13.6251 16.0393C13.6176 16.0333 13.6115 16.0257 13.6073 16.017L14.238 15.7133ZM14.3009 15.9888C14.3009 15.8934 14.2794 15.7993 14.238 15.7133L13.6073 16.017C13.6031 16.0083 13.601 15.9987 13.6009 15.9891L14.3009 15.9888ZM14.3009 20.2685V15.9889H13.6009V20.2685H14.3009ZM14.4026 20.5155C14.3374 20.4499 14.3009 20.3613 14.3009 20.2688L13.6009 20.2683C13.6007 20.5458 13.7105 20.8122 13.9062 21.009L14.4026 20.5155ZM14.6486 20.6185C14.5562 20.6181 14.4677 20.581 14.4026 20.5155L13.9062 21.009C14.1019 21.2059 14.3676 21.3172 14.6452 21.3185L14.6486 20.6185ZM14.781 20.5933C14.7395 20.6104 14.695 20.619 14.6501 20.6185L14.6437 21.3185C14.7822 21.3198 14.9194 21.2933 15.0475 21.2406L14.781 20.5933ZM14.8917 20.5191C14.8601 20.551 14.8225 20.5762 14.781 20.5933L15.0475 21.2406C15.1755 21.1879 15.2916 21.11 15.389 21.0117L14.8917 20.5191ZM14.9969 20.2674C14.9966 20.3614 14.9591 20.4515 14.8927 20.5181L15.388 21.0127C15.5849 20.8155 15.696 20.5484 15.6969 20.2697L14.9969 20.2674ZM14.9969 19.8914V20.2685H15.6969V19.8914H14.9969ZM14.9971 19.8759L14.997 19.8855L15.6969 19.8973L15.697 19.8877L14.9971 19.8759ZM14.9969 19.8574L14.9971 19.884L15.6971 19.8795L15.6969 19.853L14.9969 19.8574ZM14.9969 15.1243V19.8552H15.6969V15.1243H14.9969ZM14.9747 15.0196C14.9892 15.0533 14.9967 15.0895 14.9969 15.1261L15.6969 15.1225C15.6962 14.992 15.6693 14.8629 15.6177 14.743L14.9747 15.0196ZM14.9113 14.9289C14.9384 14.9545 14.9599 14.9854 14.9747 15.0196L15.6177 14.743C15.5652 14.621 15.4883 14.511 15.3917 14.4199L14.9113 14.9289ZM12.8592 12.9909L14.9112 14.9289L15.3918 14.42L13.3399 12.482L12.8592 12.9909ZM12.6636 12.5971C12.6799 12.7476 12.7493 12.8873 12.8594 12.9911L13.3397 12.4818C13.3508 12.4923 13.3578 12.5065 13.3595 12.5217L12.6636 12.5971ZM12.7704 12.1704C12.6851 12.2954 12.6473 12.4467 12.6636 12.5971L13.3595 12.5217C13.3611 12.5369 13.3573 12.5522 13.3487 12.5648L12.7704 12.1704ZM14.5495 9.56575L12.7705 12.1702L13.3486 12.565L15.1275 9.96057L14.5495 9.56575ZM14.5731 9.53176C14.5617 9.54703 14.5509 9.56277 14.5409 9.57892L15.1361 9.9474C15.1351 9.94901 15.134 9.95059 15.1329 9.95214L14.5731 9.53176ZM15.4187 8.29316L14.564 9.54454L15.142 9.93936L15.9968 8.68798L15.4187 8.29316ZM15.4848 8.16317C15.4686 8.20907 15.4465 8.25264 15.419 8.29279L15.9965 8.68835C16.0586 8.59771 16.1085 8.49932 16.145 8.3957L15.4848 8.16317ZM15.4943 7.79435C15.5305 7.91477 15.5273 8.04362 15.4852 8.1621L16.1446 8.39677C16.2368 8.13772 16.2438 7.856 16.1646 7.5927L15.4943 7.79435ZM15.2838 7.49268C15.3843 7.56823 15.4581 7.67393 15.4943 7.79435L16.1646 7.5927C16.0854 7.32939 15.9241 7.09829 15.7043 6.9331L15.2838 7.49268ZM13.9553 6.50111L15.2847 7.49337L15.7034 6.93241L14.374 5.94015L13.9553 6.50111ZM13.5542 6.37063C13.6995 6.3712 13.8409 6.41764 13.9583 6.50332L14.371 5.93794C14.1346 5.76533 13.8496 5.67178 13.5569 5.67064L13.5542 6.37063ZM9.53278 6.37063H13.5555V5.67063H9.53278V6.37063ZM9.19514 6.50865C9.28552 6.42032 9.40684 6.37079 9.53322 6.37063L9.53234 5.67063C9.22339 5.67102 8.92682 5.7921 8.70587 6.00804L9.19514 6.50865ZM6.79633 8.84202L9.19455 6.50923L8.70647 6.00746L6.30824 8.34025L6.79633 8.84202ZM6.75857 8.89896C6.76778 8.87691 6.78128 8.85691 6.79827 8.84012L6.3063 8.34216C6.2234 8.42406 6.15758 8.52161 6.11267 8.62913L6.75857 8.89896ZM6.74462 8.96856C6.74462 8.94466 6.74936 8.92101 6.75857 8.89896L6.11267 8.62913C6.06775 8.73665 6.04462 8.85203 6.04462 8.96856H6.74462ZM6.75857 9.03816C6.74936 9.01611 6.74462 8.99245 6.74462 8.96856H6.04462C6.04462 9.08509 6.06775 9.20046 6.11267 9.30799L6.75857 9.03816ZM6.79827 9.097C6.78128 9.08021 6.76778 9.06021 6.75857 9.03816L6.11267 9.30799C6.15759 9.41551 6.2234 9.51305 6.3063 9.59495L6.79827 9.097ZM6.92139 9.14224C6.87304 9.14184 6.82661 9.1233 6.79128 9.09028L6.31329 9.60167C6.47683 9.75453 6.69183 9.84038 6.91568 9.84221L6.92139 9.14224ZM7.05233 9.09241C7.01647 9.12485 6.96974 9.14263 6.92139 9.14224L6.91568 9.84221C7.13953 9.84404 7.3559 9.76171 7.52191 9.61154L7.05233 9.09241ZM9.17134 7.06404L7.04511 9.09913L7.52913 9.60482L9.65536 7.56973L9.17134 7.06404ZM9.40099 6.92333C9.31535 6.95327 9.23711 7.00118 9.17153 7.06386L9.65518 7.56991C9.64854 7.57625 9.64063 7.5811 9.63196 7.58413L9.40099 6.92333ZM9.66802 6.89031C9.57767 6.88214 9.48662 6.8934 9.40098 6.92333L9.63197 7.58413C9.62331 7.58715 9.6141 7.58829 9.60496 7.58747L9.66802 6.89031ZM12.4359 7.13597L9.66743 6.89026L9.60555 7.58752L12.374 7.83323L12.4359 7.13597ZM12.7436 7.24801C12.6526 7.18449 12.5467 7.14587 12.4362 7.13599L12.3738 7.8332C12.3626 7.83221 12.3519 7.8283 12.3427 7.82187L12.7436 7.24801ZM12.9545 7.49806C12.9072 7.39773 12.8345 7.31153 12.7436 7.24801L12.3427 7.82188C12.3335 7.81545 12.3262 7.80673 12.3214 7.79659L12.9545 7.49806ZM13.0132 7.81991C13.0221 7.70935 13.0018 7.59839 12.9545 7.49806L12.3214 7.79659C12.3166 7.78644 12.3145 7.77521 12.3154 7.76403L13.0132 7.81991ZM12.9041 8.12833C12.9667 8.03681 13.0044 7.93048 13.0132 7.81991L12.3154 7.76403C12.3163 7.75285 12.3201 7.7421 12.3265 7.73284L12.9041 8.12833ZM10.9845 10.9339L12.9041 8.12823L12.3264 7.73294L10.4067 10.5386L10.9845 10.9339ZM10.6952 12.1956C10.6294 11.7535 10.7328 11.3028 10.9847 10.9335L10.4065 10.539C10.0552 11.0538 9.91104 11.6822 10.0028 12.2987L10.6952 12.1956ZM11.3398 13.3186C10.9912 13.0388 10.761 12.6378 10.6952 12.1956L10.0028 12.2987C10.0946 12.9152 10.4156 13.4743 10.9016 13.8645L11.3398 13.3186ZM10.9572 14.1863L9.26065 16.2504L9.80142 16.6949L11.498 14.6308L10.9572 14.1863ZM10.5446 14.3111L11.0092 14.682L11.446 14.135L10.9814 13.7641L10.5446 14.3111ZM9.77243 13.3873C9.96406 13.7403 10.2253 14.055 10.5441 14.3106L10.982 13.7645C10.7364 13.5676 10.5352 13.3252 10.3876 13.0533L9.77243 13.3873ZM8.79693 15.4107L10.3547 13.4372L9.80529 13.0035L8.24748 14.977L8.79693 15.4107ZM8.57502 15.5889C8.66145 15.5471 8.73728 15.4862 8.79681 15.4108L8.24759 14.9768C8.25362 14.9692 8.26129 14.9631 8.27002 14.9588L8.57502 15.5889ZM8.29778 15.6524C8.3938 15.6524 8.48859 15.6307 8.57502 15.5889L8.27002 14.9588C8.27877 14.9546 8.28835 14.9524 8.29806 14.9524L8.29778 15.6524ZM4.94772 15.6524H8.29792V14.9524H4.94772V15.6524ZM4.69786 15.7632C4.76565 15.6941 4.85787 15.6543 4.9547 15.6523L4.94075 14.9525C4.66072 14.9581 4.39404 15.0732 4.19798 15.2732L4.69786 15.7632ZM4.59208 16.0222C4.59208 15.9254 4.63006 15.8324 4.69786 15.7633L4.19798 15.2732C4.00191 15.4732 3.89208 15.7422 3.89208 16.0222H4.59208ZM4.69786 16.2812C4.63006 16.2121 4.59208 16.1191 4.59208 16.0222H3.89208C3.89208 16.3023 4.00191 16.5713 4.19798 16.7713L4.69786 16.2812ZM4.9547 16.3922C4.85787 16.3902 4.76565 16.3504 4.69786 16.2812L4.19798 16.7713C4.39404 16.9713 4.66072 17.0864 4.94075 17.092L4.9547 16.3922ZM8.95962 16.3921H4.94772V17.0921H8.95962V16.3921ZM9.12647 16.3553C9.07466 16.3797 9.01807 16.3923 8.9608 16.3921L8.95844 17.0921C9.11973 17.0926 9.27911 17.0572 9.425 16.9884L9.12647 16.3553ZM9.26026 16.2509C9.22397 16.2952 9.17827 16.3309 9.12647 16.3553L9.42499 16.9884C9.57088 16.9196 9.6996 16.8192 9.8018 16.6944L9.26026 16.2509ZM17.1748 11.1533L15.701 9.6378L15.1992 10.1258L16.673 11.6413L17.1748 11.1533ZM17.2254 11.1875C17.2061 11.1793 17.1887 11.1675 17.1741 11.1526L16.6736 11.642C16.7532 11.7234 16.8482 11.7881 16.9531 11.8324L17.2254 11.1875ZM17.2861 11.1998C17.2652 11.1998 17.2446 11.1956 17.2254 11.1875L16.9531 11.8324C17.058 11.8766 17.1707 11.8996 17.2845 11.8998L17.2861 11.1998ZM20.1969 11.1998H17.2853V11.8998H20.1969V11.1998ZM20.3214 11.1483C20.2884 11.1813 20.2436 11.1998 20.1969 11.1998V11.8998C20.4293 11.8998 20.6521 11.8075 20.8164 11.6433L20.3214 11.1483ZM20.3729 11.0238C20.3729 11.0705 20.3544 11.1153 20.3214 11.1483L20.8164 11.6433C20.9806 11.479 21.0729 11.2562 21.0729 11.0238H20.3729ZM20.3214 10.8994C20.3544 10.9324 20.3729 10.9772 20.3729 11.0238H21.0729C21.0729 10.7915 20.9806 10.5687 20.8164 10.4044L20.3214 10.8994ZM20.1969 10.8479C20.2436 10.8479 20.2884 10.8664 20.3214 10.8994L20.8164 10.4044C20.6521 10.2401 20.4293 10.1479 20.1969 10.1479V10.8479ZM17.8933 10.8479H20.1969V10.1479H17.8933V10.8479ZM17.6471 10.7981C17.7249 10.8308 17.8085 10.8478 17.8929 10.8479L17.8937 10.1479C17.9022 10.1479 17.9107 10.1496 17.9186 10.1529L17.6471 10.7981ZM17.4396 10.6571C17.4987 10.7174 17.5692 10.7654 17.6471 10.7981L17.9185 10.1529C17.9264 10.1562 17.9336 10.1611 17.9395 10.1671L17.4396 10.6571ZM15.904 9.09793L17.4402 10.6577L17.9389 10.1665L16.4027 8.60674L15.904 9.09793ZM15.7391 10.0792L16.4423 9.04975L15.8643 8.65492L15.1611 9.6844L15.7391 10.0792Z" fill="#2D2F35"/>
<rect x="3" y="20" width="6" height="1.5" rx="0.75" fill="#2D2F35"/>
</svg>
