<svg width="24" height="24" viewBox="0 0 24 24" fill="none" xmlns="http://www.w3.org/2000/svg">
<path d="M21.0215 16.4884L15.2706 12.0068L14.5292 12.7479L13.284 11.5026L14.8719 9.91472L15.2653 10.3081C15.9178 10.9606 16.974 10.9607 17.6264 10.3081L21.9995 5.93504L21.2125 5.14806L18.02 8.34076L17.2329 7.55378L20.4256 4.36108L19.6386 3.5741L16.4459 6.76666L15.6589 5.97968L18.8516 2.78698L18.0645 2L13.6914 6.3731C13.0404 7.02411 13.0404 8.08317 13.6914 8.73418L14.0848 9.12774L12.4969 10.7156L11.0552 9.27386C12.2385 7.70338 11.6886 5.97214 10.258 4.5417C9.34017 3.62368 8.06975 2.81162 6.85993 2.36935C5.40238 1.83649 4.23358 1.90926 3.56865 2.57418C2.90359 3.2391 2.83082 4.40805 3.36368 5.8656C3.8061 7.07542 4.61815 8.34569 5.53603 9.26371C6.93676 10.6644 8.67988 11.2567 10.2679 10.0605L11.7099 11.5026L10.4646 12.7479L9.72344 12.0068L3.97294 16.4881C2.77602 17.4191 2.66672 19.1902 3.73797 20.2615C4.81356 21.3371 6.5835 21.2197 7.51108 20.027L11.9929 14.2761L11.2517 13.5349L12.4971 12.2896L13.7424 13.5349L13.0011 14.2761L17.4826 20.0266C18.4122 21.222 20.1825 21.3351 21.256 20.2615C22.3277 19.1899 22.2174 17.4186 21.0215 16.4884ZM14.4784 7.16022L14.8719 6.76666L17.2329 9.12774L16.8393 9.52116C16.622 9.73874 16.2699 9.73874 16.0525 9.52116L14.4784 7.9472C14.2614 7.7302 14.2614 7.37722 14.4784 7.16022ZM9.90173 8.90726C8.74207 10.0669 7.47832 9.6319 6.32301 8.47673C5.51399 7.66772 4.79848 6.54864 4.40898 5.48335C4.04977 4.50067 4.02933 3.68746 4.35549 3.36116C4.79326 2.92353 5.89364 3.20112 6.47768 3.41465C7.54297 3.80415 8.66205 4.51966 9.47106 5.32868C10.6262 6.48385 11.0614 7.74759 9.90173 8.90726ZM6.63293 19.3434C6.11296 20.0119 5.12348 20.073 4.52509 19.4746C3.92772 18.8772 3.98642 17.8877 4.65671 17.3664L9.63182 13.4891L10.5104 14.3677L6.63293 19.3434ZM20.4689 19.4746C19.8704 20.0731 18.881 20.0118 18.3608 19.3429L14.4836 14.3677L15.3622 13.4891L20.3377 17.3667C21.0063 17.8867 21.0674 18.876 20.4689 19.4746Z" fill="#2D2F35" stroke="#2D2F35" stroke-width="0.2"/>
</svg>
