<svg width="24" height="24" viewBox="0 0 24 24" fill="none" xmlns="http://www.w3.org/2000/svg">
<g clip-path="url(#clip0)">
<path d="M20.3483 7.07775H19.9612C19.8049 7.07775 19.6538 7.10006 19.5104 7.14084C19.3642 6.37853 18.6928 5.80064 17.8885 5.80064H17.5014C16.5907 5.80064 15.8497 6.54162 15.8497 7.45232V10.1183H8.15023V7.1258C8.15023 6.21506 7.40926 5.47412 6.49855 5.47412H6.11148C5.30723 5.47412 4.63578 6.05201 4.48969 6.81432C4.34625 6.77354 4.19512 6.75123 4.03879 6.75123H3.65172C2.74098 6.75123 2 7.49213 2 8.40291V15.2701C2 16.1808 2.74098 16.9218 3.65168 16.9218H4.03875C4.19508 16.9218 4.34621 16.8995 4.48965 16.8587C4.63578 17.621 5.30723 18.1989 6.11145 18.1989H6.49852C7.40926 18.1989 8.1502 17.4579 8.1502 16.5472V14.1487H15.8497V16.8738C15.8497 17.7845 16.5907 18.5254 17.5014 18.5254H17.8885C18.6927 18.5254 19.3642 17.9475 19.5103 17.1853C19.6537 17.226 19.8049 17.2483 19.9612 17.2483H20.3483C21.259 17.2483 22 16.5074 22 15.5967V8.72943C22 7.81869 21.259 7.07775 20.3483 7.07775ZM4.4598 15.2701C4.4598 15.5023 4.27094 15.6912 4.03875 15.6912H3.65168C3.41949 15.6912 3.23063 15.5023 3.23063 15.2701V8.40291C3.23063 8.17072 3.41949 7.98186 3.65168 7.98186H4.03875C4.27094 7.98186 4.4598 8.17072 4.4598 8.40291V15.2701ZM6.91961 16.5472C6.91961 16.7794 6.73074 16.9683 6.49855 16.9683H6.11148C5.8793 16.9683 5.69043 16.7794 5.69043 16.5472V7.12572C5.69043 6.89354 5.87934 6.70467 6.11148 6.70467H6.49855C6.73074 6.70467 6.91961 6.89354 6.91961 7.12572V16.5472ZM15.8498 12.9181H8.15023V11.3488H15.8497V12.9181H15.8498ZM18.3096 16.8738C18.3096 17.106 18.1207 17.2949 17.8885 17.2949H17.5014C17.2692 17.2949 17.0803 17.106 17.0803 16.8738V7.45229C17.0803 7.2201 17.2692 7.03123 17.5014 7.03123H17.8885C18.1207 7.03123 18.3096 7.2201 18.3096 7.45229V16.8738ZM20.7694 15.5966C20.7694 15.8288 20.5805 16.0177 20.3483 16.0177H19.9612C19.7291 16.0177 19.5402 15.8288 19.5402 15.5966V8.72943C19.5402 8.49725 19.729 8.30838 19.9612 8.30838H20.3483C20.5805 8.30838 20.7694 8.49725 20.7694 8.72943V15.5966Z" fill="#2D2F35" stroke="#2D2F35" stroke-width="0.1"/>
</g>
<defs>
<clipPath id="clip0">
<rect width="20" height="20" fill="white" transform="translate(2 2)"/>
</clipPath>
</defs>
</svg>
