<svg width="24" height="24" viewBox="0 0 24 24" fill="none" xmlns="http://www.w3.org/2000/svg">
<path fill-rule="evenodd" clip-rule="evenodd" d="M9.69819 4.74209C9.69819 3.22746 10.9303 2 12.4403 2C13.9503 2 15.1824 3.22746 15.1824 4.73746C15.1824 6.25209 13.9503 7.47955 12.4403 7.47955C10.9303 7.47955 9.69819 6.25209 9.69819 4.74209ZM11.009 4.74209C11.009 5.52951 11.6482 6.17335 12.4403 6.17335C13.2277 6.17335 13.8715 5.53415 13.8715 4.74209C13.8715 3.95003 13.2323 3.3062 12.4403 3.3062C11.6482 3.3062 11.009 3.95003 11.009 4.74209ZM16.9009 13.9915H21.3753C21.7366 13.9915 22.0284 14.2879 22.0238 14.6492C22.0238 15.0105 21.7319 15.3023 21.3707 15.3023H20.2636V21.3469C20.2636 21.7082 19.9718 22 19.6105 22C19.2492 22 18.9574 21.7082 18.9574 21.3469V15.3023H5.91862V21.3423C5.91862 21.7036 5.62681 21.9954 5.26552 21.9954C4.90423 21.9954 4.61242 21.7036 4.61242 21.3423V15.2977H3.50539C3.1441 15.2977 2.85229 15.0058 2.85229 14.6446C2.85229 14.2833 3.1441 13.9915 3.50539 13.9915H7.98445C7.99046 13.5074 7.97696 12.5395 7.96674 11.807C7.96122 11.4109 7.95666 11.0837 7.95666 10.939C7.95666 9.01021 10.148 8.70946 10.8625 8.61139C10.9064 8.60537 10.9448 8.60011 10.9767 8.59528C11.2592 8.5536 11.5325 8.69719 11.6575 8.94731L12.4403 10.499L13.2278 8.94731C13.3528 8.69255 13.6307 8.5536 13.9087 8.59528C13.9382 8.59979 13.9734 8.60474 14.0136 8.61037C14.7156 8.70896 16.9287 9.01974 16.9287 10.9344C16.9287 11.0859 16.924 11.4237 16.9184 11.829C16.9082 12.5635 16.8949 13.5198 16.9009 13.9915ZM9.28601 13.9915H15.59C15.584 13.5074 15.5975 12.5395 15.6077 11.807C15.6133 11.4109 15.6178 11.0837 15.6178 10.939C15.6178 10.2397 14.6676 10.0639 14.2649 9.98943C14.2275 9.98251 14.1948 9.97647 14.168 9.97096L13.024 12.2406C12.9128 12.4583 12.6858 12.5973 12.4403 12.5973C12.1949 12.5973 11.9679 12.4583 11.8567 12.2406L10.708 9.97096C10.6702 9.9793 10.6205 9.98785 10.5624 9.99785C10.1368 10.0711 9.25822 10.2223 9.25822 10.9437C9.25822 11.0817 9.26267 11.3994 9.2681 11.7871C9.27834 12.5182 9.29207 13.4981 9.28601 13.9915Z" fill="#2D2F35"/>
</svg>
