<svg width="24" height="24" viewBox="0 0 24 24" fill="none" xmlns="http://www.w3.org/2000/svg">
<path fill-rule="evenodd" clip-rule="evenodd" d="M10.3744 5.31825C10.2328 5.17089 10.237 4.93685 10.3836 4.79473C10.391 4.78749 10.6644 4.51378 10.7924 4.10904C10.9537 3.59892 10.8116 3.09911 10.37 2.62361C10.2306 2.4734 10.2392 2.23861 10.3894 2.09916C10.5396 1.95971 10.7744 1.96839 10.9139 2.11857C11.7195 2.98619 11.6713 3.81997 11.489 4.36661C11.2972 4.9416 10.9152 5.3132 10.8991 5.32871C10.7534 5.46865 10.5144 5.46397 10.3744 5.31825ZM17.1613 6.40443C17.2517 6.40443 17.3423 6.37162 17.4137 6.30527C17.5639 6.16582 17.5726 5.93104 17.4332 5.78086C16.9916 5.30532 16.8495 4.80555 17.0108 4.29539C17.1385 3.89158 17.411 3.61817 17.4195 3.60975C17.5661 3.46762 17.5704 3.23358 17.4288 3.08619C17.2868 2.93842 17.0519 2.93375 16.9041 3.07572C16.8879 3.09124 16.5059 3.46284 16.3142 4.03782C16.1319 4.58446 16.0837 5.41824 16.8893 6.28587C16.9624 6.36457 17.0617 6.40443 17.1613 6.40443ZM20.1062 12.4551C20.0357 12.3754 19.9345 12.3298 19.8281 12.3298H18.6595C18.8921 11.8963 18.8843 11.3876 18.6351 10.9602C18.3996 10.558 17.9179 10.2818 17.4543 10.2818C17.2876 10.2818 17.1308 10.2168 17.0127 10.0987L16.4859 9.57223C16.3797 9.4661 16.2628 9.37466 16.1378 9.29863V8.19593C16.1378 7.7064 15.9411 7.22726 15.5976 6.87911C15.0171 6.21547 14.1795 5.83511 13.2974 5.83511H12.6587C11.7752 5.83511 10.9447 6.17914 10.3201 6.80378C10.2746 6.84922 10.2297 6.89541 10.185 6.94149C9.86134 7.2746 9.54315 7.60212 9.02845 7.60212C8.54375 7.60212 8.08568 7.79197 7.73724 8.13767C7.40561 8.46667 7.20582 8.91464 7.17966 9.38008H7.0926C6.56396 9.38008 6.06693 9.58596 5.69311 9.95978L5.17842 10.4745C4.67802 10.9749 4.38694 11.6288 4.34839 12.3298H3.37107C3.26472 12.3298 3.16345 12.3755 3.09302 12.4552C3.02259 12.5349 2.98975 12.641 3.00281 12.7466L3.7711 18.9476V20.629C3.7711 20.8339 3.93727 21.0001 4.14218 21.0001H19.057C19.262 21.0001 19.4281 20.8339 19.4281 20.629V18.9476L20.1964 12.7465C20.2094 12.6409 20.1766 12.5348 20.1062 12.4551ZM18.7291 18.5537H14.7019L15.0035 13.0719H19.4082L18.7291 18.5537ZM16.4879 10.6236C16.7461 10.8818 17.0893 11.0239 17.4543 11.0239C17.7326 11.0239 17.924 11.2404 18.0013 11.3471C18.1148 11.5517 18.1131 11.7937 17.9961 11.9975C17.8765 12.2055 17.6619 12.3298 17.422 12.3298H11.4349V11.408C11.4349 11.1137 11.5495 10.8371 11.7576 10.629L12.2897 10.0969C12.495 9.89162 12.7777 9.7745 13.0682 9.7745H15.1825C15.4726 9.7745 15.7558 9.89188 15.961 10.0971L16.4879 10.6236ZM8.25994 8.66449C8.47042 8.45568 8.74688 8.34306 9.03736 8.34429C9.7695 8.35067 10.4358 7.87383 10.8629 7.31068C11.3453 6.83751 11.9819 6.57727 12.6586 6.57727H13.2973C13.9685 6.57727 14.6057 6.86809 15.0454 7.37513C15.2528 7.6143 15.3956 7.86934 15.3956 8.19593V9.04455C15.3256 9.03646 15.2529 9.03234 15.1826 9.03234H13.0683C12.6124 9.03464 12.1699 9.20185 11.8315 9.50873C11.8088 9.52929 11.2329 10.1042 11.2329 10.1042C11.0046 10.3324 10.8372 10.6204 10.7543 10.9325L9.87789 10.0563C9.47056 9.649 8.97238 9.37533 8.38192 9.38001H7.92326C7.94731 9.10916 8.06472 8.85816 8.25994 8.66449ZM5.7032 10.9992L6.21789 10.4845C6.45152 10.2509 6.76215 10.1222 7.09256 10.1222H8.38188C8.78142 10.1222 9.08656 10.3148 9.35864 10.5868L10.3306 11.5587C10.5316 11.7597 10.6578 12.0282 10.6865 12.3098L10.6868 12.3126L10.6875 12.3224L10.6881 12.3298H5.09173C5.12925 11.827 5.34299 11.3594 5.7032 10.9992ZM8.19567 13.0719L8.49732 18.5537H4.47014L3.79095 13.0719H8.19567ZM18.6859 20.2579H4.51326V19.2959H9.99148C10.1964 19.2959 10.3626 19.1297 10.3626 18.9248C10.3626 18.7198 10.1964 18.5537 9.99148 18.5537H9.24063L8.93898 13.072H14.2602L13.9585 18.5537H13.218C13.0131 18.5537 12.8469 18.7198 12.8469 18.9248C12.8469 19.1297 13.0131 19.2959 13.218 19.2959H18.6859V20.2579ZM5.33459 5.67374C5.38469 5.72186 6.54661 6.86709 5.31978 8.18832C5.18033 8.3385 5.18905 8.57332 5.33919 8.71277C5.48729 8.85022 5.72615 8.84135 5.86364 8.69336C6.75661 7.73167 6.70377 6.80924 6.50216 6.20475C6.3046 5.61225 5.92554 5.21519 5.85848 5.14818C5.35099 4.59886 5.18924 4.0202 5.37771 3.42807C5.52603 2.96203 5.84004 2.64776 5.8498 2.63815C5.9966 2.49606 6.00098 2.26184 5.8593 2.11441C5.71729 1.96664 5.48243 1.96201 5.33459 2.10394C5.3167 2.12116 4.89389 2.53239 4.68126 3.17006C4.47966 3.77455 4.42681 4.69698 5.31978 5.65867C5.32457 5.66383 5.32951 5.66884 5.33459 5.67374ZM11.4782 18.5814C11.6654 18.5041 11.8848 18.5955 11.9625 18.7822C12.0403 18.9688 11.9485 19.1897 11.7618 19.2668C11.5742 19.3443 11.3558 19.2524 11.2775 19.0661C11.1992 18.8796 11.2918 18.6584 11.4782 18.5814Z" fill="#2D2F35"/>
<path d="M10.3836 4.79473L10.5924 5.01014L10.5936 5.009L10.3836 4.79473ZM10.3744 5.31825L10.158 5.52612L10.1581 5.52612L10.3744 5.31825ZM10.7924 4.10904L11.0784 4.1995V4.19949L10.7924 4.10904ZM10.37 2.62361L10.1502 2.82772L10.1502 2.82775L10.37 2.62361ZM10.3894 2.09916L10.1853 1.8793L10.1853 1.87933L10.3894 2.09916ZM10.9139 2.11857L11.1337 1.91444L11.1337 1.9144L10.9139 2.11857ZM11.489 4.36661L11.7736 4.46153L11.7736 4.46151L11.489 4.36661ZM10.8991 5.32871L10.6915 5.11215L10.6912 5.11238L10.8991 5.32871ZM17.4137 6.30527L17.6179 6.52514L17.6179 6.52511L17.4137 6.30527ZM17.4332 5.78086L17.2133 5.98499L17.2133 5.985L17.4332 5.78086ZM17.0108 4.29539L17.2969 4.38585L17.2969 4.38582L17.0108 4.29539ZM17.4195 3.60975L17.2107 3.39431L17.2088 3.39622L17.4195 3.60975ZM17.4288 3.08619L17.6452 2.87835L17.6451 2.87831L17.4288 3.08619ZM16.9041 3.07572L17.1117 3.29228L17.112 3.29205L16.9041 3.07572ZM16.3142 4.03782L16.5988 4.13274L16.5988 4.13273L16.3142 4.03782ZM16.8893 6.28587L16.6695 6.49L16.6695 6.49003L16.8893 6.28587ZM20.1062 12.4551L19.8814 12.6538L19.8814 12.6538L20.1062 12.4551ZM18.6595 12.3298L18.3952 12.1879L18.1581 12.6298H18.6595V12.3298ZM18.6351 10.9602L18.8942 10.8091L18.8939 10.8086L18.6351 10.9602ZM17.0127 10.0987L17.2249 9.88658L17.2247 9.88647L17.0127 10.0987ZM16.4859 9.57223L16.2737 9.78436L16.2738 9.78443L16.4859 9.57223ZM16.1378 9.29863H15.8378V9.46733L15.9819 9.55497L16.1378 9.29863ZM15.5976 6.87911L15.3718 7.07663L15.3778 7.0834L15.3841 7.08979L15.5976 6.87911ZM10.3201 6.80378L10.5321 7.01607L10.5322 7.01591L10.3201 6.80378ZM10.185 6.94149L10.4001 7.15053L10.4001 7.15053L10.185 6.94149ZM7.73724 8.13767L7.94852 8.35064L7.94853 8.35064L7.73724 8.13767ZM7.17966 9.38008V9.68008H7.46327L7.47918 9.39692L7.17966 9.38008ZM5.69311 9.95978L5.48098 9.74765L5.48097 9.74766L5.69311 9.95978ZM5.17842 10.4745L4.96628 10.2624L4.96628 10.2624L5.17842 10.4745ZM4.34839 12.3298V12.6298H4.63234L4.64793 12.3463L4.34839 12.3298ZM3.09302 12.4552L3.31783 12.6538L3.09302 12.4552ZM3.00281 12.7466L2.70508 12.7834L2.70509 12.7834L3.00281 12.7466ZM3.7711 18.9476H4.0711V18.9291L4.06882 18.9108L3.7711 18.9476ZM19.4281 18.9476L19.1304 18.9107L19.1281 18.9291V18.9476H19.4281ZM20.1964 12.7465L20.4941 12.7834L20.4941 12.7833L20.1964 12.7465ZM14.7019 18.5537L14.4023 18.5372L14.3849 18.8537H14.7019V18.5537ZM18.7291 18.5537V18.8537H18.9942L19.0268 18.5906L18.7291 18.5537ZM15.0035 13.0719V12.7719H14.7196L14.704 13.0554L15.0035 13.0719ZM19.4082 13.0719L19.706 13.1088L19.7477 12.7719H19.4082V13.0719ZM16.4879 10.6236L16.7001 10.4114L16.7 10.4113L16.4879 10.6236ZM18.0013 11.3471L18.2637 11.2016L18.2549 11.1857L18.2442 11.171L18.0013 11.3471ZM17.9961 11.9975L17.7359 11.848L17.7359 11.848L17.9961 11.9975ZM11.4349 12.3298H11.1349V12.6298H11.4349V12.3298ZM11.7576 10.629L11.9697 10.8411L11.9698 10.8411L11.7576 10.629ZM12.2897 10.0969L12.5018 10.3091V10.3091L12.2897 10.0969ZM15.961 10.0971L15.7489 10.3092L15.749 10.3093L15.961 10.0971ZM9.03736 8.34429L9.03997 8.04429L9.03862 8.04429L9.03736 8.34429ZM8.25994 8.66449L8.47122 8.87747L8.47123 8.87746L8.25994 8.66449ZM10.8629 7.31068L10.6528 7.09651L10.6371 7.1119L10.6238 7.12941L10.8629 7.31068ZM15.0454 7.37513L15.2721 7.17859L15.2721 7.17858L15.0454 7.37513ZM15.3956 9.04455L15.3611 9.34257L15.6956 9.38122V9.04455H15.3956ZM13.0683 9.03234V8.73234L13.0667 8.73235L13.0683 9.03234ZM11.8315 9.50873L12.033 9.73098L12.0331 9.73095L11.8315 9.50873ZM11.2329 10.1042L11.021 9.89184L11.0208 9.89204L11.2329 10.1042ZM10.7543 10.9325L10.5422 11.1447L10.9106 11.5129L11.0443 11.0095L10.7543 10.9325ZM9.87789 10.0563L9.66576 10.2685L9.66579 10.2685L9.87789 10.0563ZM8.38192 9.38001V9.68002L8.38429 9.68L8.38192 9.38001ZM7.92326 9.38001L7.62444 9.35348L7.59545 9.68001H7.92326V9.38001ZM6.21789 10.4845L6.00576 10.2724L6.21789 10.4845ZM5.7032 10.9992L5.91533 11.2113L5.7032 10.9992ZM9.35864 10.5868L9.57077 10.3746L9.57074 10.3746L9.35864 10.5868ZM10.3306 11.5587L10.5427 11.3466L10.5427 11.3466L10.3306 11.5587ZM10.6865 12.3098L10.388 12.3402L10.3881 12.3412L10.6865 12.3098ZM10.6868 12.3126L10.986 12.2894L10.9851 12.2812L10.6868 12.3126ZM10.6875 12.3224L10.9867 12.3005L10.9866 12.2993L10.6875 12.3224ZM10.6881 12.3298V12.6298H11.0108L10.9873 12.3079L10.6881 12.3298ZM5.09173 12.3298L4.79257 12.3075L4.76851 12.6298H5.09173V12.3298ZM8.49732 18.5537V18.8537H8.81429L8.79687 18.5372L8.49732 18.5537ZM8.19567 13.0719L8.49522 13.0554L8.47962 12.7719H8.19567V13.0719ZM4.47014 18.5537L4.17241 18.5906L4.20501 18.8537H4.47014V18.5537ZM3.79095 13.0719V12.7719H3.45149L3.49323 13.1088L3.79095 13.0719ZM4.51326 20.2579H4.21326V20.5579H4.51326V20.2579ZM18.6859 20.2579V20.5579H18.9859V20.2579H18.6859ZM4.51326 19.2959V18.9959H4.21326V19.2959H4.51326ZM9.24063 18.5537L8.94109 18.5702L8.95669 18.8537H9.24063V18.5537ZM8.93898 13.072V12.772H8.62202L8.63944 13.0884L8.93898 13.072ZM14.2602 13.072L14.5597 13.0884L14.5771 12.772H14.2602V13.072ZM13.9585 18.5537V18.8537H14.2425L14.2581 18.5702L13.9585 18.5537ZM18.6859 19.2959H18.9859V18.9959H18.6859V19.2959ZM5.31978 8.18832L5.53962 8.39246L5.53962 8.39246L5.31978 8.18832ZM5.33459 5.67374L5.12644 5.88977L5.12675 5.89007L5.33459 5.67374ZM5.33919 8.71277L5.13503 8.93258L5.13511 8.93266L5.33919 8.71277ZM5.86364 8.69336L6.08343 8.89755L6.08348 8.8975L5.86364 8.69336ZM6.50216 6.20475L6.21756 6.29965L6.21757 6.29967L6.50216 6.20475ZM5.85848 5.14818L5.63795 5.35191L5.64641 5.36037L5.85848 5.14818ZM5.37771 3.42807L5.66358 3.51906L5.66358 3.51905L5.37771 3.42807ZM5.8498 2.63815L5.64115 2.42258L5.6393 2.4244L5.8498 2.63815ZM5.8593 2.11441L6.07561 1.90654L6.0756 1.90653L5.8593 2.11441ZM5.33459 2.10394L5.12682 1.88754L5.12653 1.88781L5.33459 2.10394ZM4.68126 3.17006L4.96585 3.26497L4.96586 3.26496L4.68126 3.17006ZM5.31978 5.65867L5.53968 5.4546L5.53963 5.45454L5.31978 5.65867ZM11.9625 18.7822L11.6856 18.8975L11.6856 18.8976L11.9625 18.7822ZM11.4782 18.5814L11.5927 18.8587L11.5928 18.8587L11.4782 18.5814ZM11.7618 19.2668L11.6473 18.9895L11.6472 18.9895L11.7618 19.2668ZM11.2775 19.0661L11.0009 19.1822L11.0009 19.1822L11.2775 19.0661ZM10.1748 4.57932C9.90968 4.83635 9.90193 5.2596 10.158 5.52612L10.5907 5.11038C10.5636 5.08218 10.5644 5.03735 10.5924 5.01013L10.1748 4.57932ZM10.5063 4.01859C10.4004 4.35362 10.1683 4.58566 10.1737 4.58045L10.5936 5.009C10.6137 4.98932 10.9284 4.67395 11.0784 4.1995L10.5063 4.01859ZM10.1502 2.82775C10.5367 3.24401 10.6277 3.63493 10.5063 4.01859L11.0784 4.19949C11.2797 3.56291 11.0864 2.95421 10.5899 2.41947L10.1502 2.82775ZM10.1853 1.87933C9.91367 2.13154 9.89802 2.55613 10.1502 2.82772L10.5899 2.4195C10.5631 2.39066 10.5648 2.34568 10.5936 2.319L10.1853 1.87933ZM11.1337 1.9144C10.8814 1.64284 10.4569 1.62715 10.1853 1.8793L10.5935 2.31902C10.6224 2.29227 10.6673 2.29394 10.6941 2.32274L11.1337 1.9144ZM11.7736 4.46151C11.9839 3.83093 12.0273 2.87682 11.1337 1.91444L10.694 2.3227C11.4117 3.09557 11.3587 3.80901 11.2044 4.27171L11.7736 4.46151ZM11.1067 5.54527C11.1359 5.51722 11.559 5.10492 11.7736 4.46153L11.2044 4.27169C11.1209 4.52204 10.9947 4.73124 10.8857 4.88078C10.7771 5.0299 10.6901 5.11344 10.6915 5.11215L11.1067 5.54527ZM10.1581 5.52612C10.4129 5.79134 10.8418 5.79971 11.1069 5.54504L10.6912 5.11238C10.6797 5.12343 10.6622 5.13109 10.6406 5.13066C10.619 5.13023 10.6017 5.1219 10.5907 5.11037L10.1581 5.52612ZM17.2096 6.08541C17.1958 6.09825 17.179 6.10443 17.1613 6.10443V6.70443C17.3244 6.70443 17.4887 6.64499 17.6179 6.52514L17.2096 6.08541ZM17.2133 5.985C17.24 6.01377 17.2384 6.05874 17.2096 6.08544L17.6179 6.52511C17.8895 6.27291 17.9052 5.8483 17.653 5.57673L17.2133 5.985ZM16.7248 4.20493C16.5235 4.84155 16.7168 5.45022 17.2133 5.98499L17.653 5.57673C17.2665 5.16043 17.1755 4.76955 17.2969 4.38585L16.7248 4.20493ZM17.2088 3.39622C17.1883 3.41639 16.8745 3.73144 16.7248 4.20497L17.2969 4.38582C17.4025 4.05173 17.6336 3.81995 17.6302 3.82327L17.2088 3.39622ZM17.2125 3.29403C17.2396 3.32228 17.2388 3.36711 17.2107 3.39432L17.6283 3.82518C17.8935 3.56813 17.9012 3.14488 17.6452 2.87835L17.2125 3.29403ZM17.112 3.29205C17.1403 3.26487 17.1853 3.26575 17.2125 3.29407L17.6451 2.87831C17.3883 2.6111 16.9635 2.60263 16.6963 2.8594L17.112 3.29205ZM16.5988 4.13273C16.6823 3.88239 16.8085 3.67319 16.9174 3.52365C17.0261 3.37454 17.1131 3.291 17.1117 3.29228L16.6965 2.85917C16.6672 2.88722 16.2442 3.29952 16.0296 3.94292L16.5988 4.13273ZM17.1091 6.08174C16.3915 5.30887 16.4445 4.59542 16.5988 4.13274L16.0296 3.94291C15.8193 4.5735 15.7759 5.52762 16.6695 6.49L17.1091 6.08174ZM17.1613 6.10443C17.1416 6.10443 17.1231 6.0968 17.1091 6.0817L16.6695 6.49003C16.8017 6.63235 16.9818 6.70443 17.1613 6.70443V6.10443ZM19.8281 12.6298C19.8485 12.6298 19.8679 12.6385 19.8814 12.6538L20.331 12.2565C20.2036 12.1123 20.0204 12.0298 19.8281 12.0298V12.6298ZM18.6595 12.6298H19.8281V12.0298H18.6595V12.6298ZM18.3759 11.1113C18.5724 11.4484 18.5786 11.8461 18.3952 12.1879L18.9239 12.4716C19.2057 11.9464 19.1961 11.3267 18.8942 10.8091L18.3759 11.1113ZM17.4543 10.5818C17.811 10.5818 18.1943 10.8012 18.3762 11.1118L18.8939 10.8086C18.6048 10.3148 18.0248 9.98177 17.4543 9.98177V10.5818ZM16.8005 10.3108C16.9748 10.4851 17.2079 10.5818 17.4543 10.5818V9.98177C17.3672 9.98177 17.2867 9.94847 17.2249 9.88658L16.8005 10.3108ZM16.2738 9.78443L16.8006 10.3109L17.2247 9.88647L16.6979 9.36002L16.2738 9.78443ZM15.9819 9.55497C16.0866 9.61864 16.1846 9.69526 16.2737 9.78436L16.698 9.36009C16.5748 9.23694 16.439 9.13069 16.2936 9.04229L15.9819 9.55497ZM15.8378 8.19593V9.29863H16.4378V8.19593H15.8378ZM15.3841 7.08979C15.6721 7.38181 15.8378 7.78526 15.8378 8.19593H16.4378C16.4378 7.62753 16.21 7.07271 15.8112 6.66843L15.3841 7.08979ZM13.2974 6.13511C14.0929 6.13511 14.8483 6.4781 15.3718 7.07663L15.8235 6.68159C15.186 5.95285 14.266 5.53511 13.2974 5.53511V6.13511ZM12.6587 6.13511H13.2974V5.53511H12.6587V6.13511ZM10.5322 7.01591C11.1006 6.44753 11.8548 6.13511 12.6587 6.13511V5.53511C11.6957 5.53511 10.7889 5.91075 10.108 6.59165L10.5322 7.01591ZM10.4001 7.15053C10.4452 7.10418 10.4885 7.05963 10.5321 7.01607L10.1081 6.59149C10.0607 6.63881 10.0143 6.68664 9.96979 6.73245L10.4001 7.15053ZM9.02845 7.90212C9.68785 7.90212 10.0902 7.46951 10.4001 7.15053L9.96979 6.73245C9.63244 7.07969 9.39845 7.30212 9.02845 7.30212V7.90212ZM7.94853 8.35064C8.24152 8.05996 8.62393 7.90212 9.02845 7.90212V7.30212C8.46357 7.30212 7.92985 7.52398 7.52595 7.9247L7.94853 8.35064ZM7.47918 9.39692C7.50122 9.00485 7.67 8.62695 7.94852 8.35064L7.52596 7.92469C7.14121 8.30638 6.91041 8.82442 6.88013 9.36325L7.47918 9.39692ZM7.0926 9.68008H7.17966V9.08008H7.0926V9.68008ZM5.90524 10.1719C6.22281 9.85435 6.64353 9.68008 7.0926 9.68008V9.08008C6.48439 9.08008 5.91106 9.31757 5.48098 9.74765L5.90524 10.1719ZM5.39056 10.6866L5.90525 10.1719L5.48097 9.74766L4.96628 10.2624L5.39056 10.6866ZM4.64793 12.3463C4.68243 11.719 4.94237 11.1349 5.39056 10.6866L4.96628 10.2624C4.41366 10.815 4.09145 11.5385 4.04884 12.3134L4.64793 12.3463ZM3.37107 12.6298H4.34839V12.0298H3.37107V12.6298ZM3.31783 12.6538C3.33131 12.6386 3.3507 12.6298 3.37107 12.6298V12.0298C3.17874 12.0298 2.9956 12.1124 2.86821 12.2565L3.31783 12.6538ZM3.30054 12.7097C3.29803 12.6894 3.30434 12.6691 3.31783 12.6538L2.86821 12.2565C2.74084 12.4007 2.68147 12.5925 2.70508 12.7834L3.30054 12.7097ZM4.06882 18.9108L3.30054 12.7097L2.70509 12.7834L3.47337 18.9845L4.06882 18.9108ZM4.0711 20.629V18.9476H3.4711V20.629H4.0711ZM4.14218 20.7001C4.10293 20.7001 4.0711 20.6682 4.0711 20.629H3.4711C3.4711 20.9996 3.7716 21.3001 4.14218 21.3001V20.7001ZM19.057 20.7001H4.14218V21.3001H19.057V20.7001ZM19.1281 20.629C19.1281 20.6682 19.0963 20.7001 19.057 20.7001V21.3001C19.4276 21.3001 19.7281 20.9996 19.7281 20.629H19.1281ZM19.1281 18.9476V20.629H19.7281V18.9476H19.1281ZM19.8986 12.7096L19.1304 18.9107L19.7258 18.9845L20.4941 12.7834L19.8986 12.7096ZM19.8814 12.6538C19.8948 12.669 19.9012 12.6893 19.8986 12.7096L20.4941 12.7833C20.5177 12.5925 20.4584 12.4006 20.3309 12.2564L19.8814 12.6538ZM14.7019 18.8537H18.7291V18.2537H14.7019V18.8537ZM14.704 13.0554L14.4023 18.5372L15.0014 18.5702L15.3031 13.0884L14.704 13.0554ZM19.4082 12.7719H15.0035V13.3719H19.4082V12.7719ZM19.0268 18.5906L19.706 13.1088L19.1105 13.035L18.4314 18.5168L19.0268 18.5906ZM17.4543 10.7239C17.1689 10.7239 16.902 10.6134 16.7001 10.4114L16.2758 10.8357C16.5903 11.1501 17.0097 11.3239 17.4543 11.3239V10.7239ZM18.2442 11.171C18.1588 11.0532 17.8889 10.7239 17.4543 10.7239V11.3239C17.5123 11.3239 17.569 11.3459 17.6262 11.3877C17.6845 11.4304 17.7306 11.4847 17.7585 11.5232L18.2442 11.171ZM18.2562 12.1469C18.4256 11.8521 18.4282 11.4982 18.2637 11.2016L17.739 11.4926C17.8014 11.6052 17.8007 11.7353 17.7359 11.848L18.2562 12.1469ZM17.422 12.6298C17.7694 12.6298 18.0832 12.4481 18.2562 12.1469L17.7359 11.848C17.6699 11.963 17.5545 12.0298 17.422 12.0298V12.6298ZM11.4349 12.6298H17.422V12.0298H11.4349V12.6298ZM11.1349 11.408V12.3298H11.7349V11.408H11.1349ZM11.5455 10.4168C11.2811 10.6812 11.1349 11.0342 11.1349 11.408H11.7349C11.7349 11.1933 11.8179 10.9929 11.9697 10.8411L11.5455 10.4168ZM12.0776 9.8848L11.5455 10.4169L11.9698 10.8411L12.5018 10.3091L12.0776 9.8848ZM13.0682 9.4745C12.6982 9.4745 12.3391 9.62322 12.0776 9.8848L12.5018 10.3091C12.6509 10.16 12.8573 10.0745 13.0682 10.0745V9.4745ZM15.1825 9.4745H13.0682V10.0745H15.1825V9.4745ZM16.1732 9.88501C15.9118 9.62352 15.5522 9.4745 15.1825 9.4745V10.0745C15.3929 10.0745 15.5999 10.1602 15.7489 10.3092L16.1732 9.88501ZM16.7 10.4113L16.1731 9.8849L15.749 10.3093L16.2759 10.8358L16.7 10.4113ZM9.03862 8.04429C8.66808 8.04273 8.3153 8.18699 8.04866 8.45151L8.47123 8.87746C8.62554 8.72438 8.82567 8.6434 9.03609 8.64428L9.03862 8.04429ZM10.6238 7.12941C10.2281 7.65124 9.64134 8.04954 9.03997 8.0443L9.03474 8.64427C9.89766 8.6518 10.6436 8.09641 11.1019 7.49195L10.6238 7.12941ZM12.6586 6.27727C11.9033 6.27727 11.1913 6.56831 10.6528 7.09651L11.073 7.52484C11.4992 7.10671 12.0604 6.87727 12.6586 6.87727V6.27727ZM13.2973 6.27727H12.6586V6.87727H13.2973V6.27727ZM15.2721 7.17858C14.7754 6.60583 14.0555 6.27727 13.2973 6.27727V6.87727C13.8816 6.87727 14.4361 7.13035 14.8188 7.57169L15.2721 7.17858ZM15.6956 8.19593C15.6956 7.76925 15.5046 7.44672 15.2721 7.17859L14.8188 7.57168C15.0011 7.78187 15.0956 7.96942 15.0956 8.19593H15.6956ZM15.6956 9.04455V8.19593H15.0956V9.04455H15.6956ZM15.1826 9.33234C15.2415 9.33234 15.3027 9.33582 15.3611 9.34257L15.43 8.74653C15.3484 8.7371 15.2642 8.73234 15.1826 8.73234V9.33234ZM13.0683 9.33234H15.1826V8.73234H13.0683V9.33234ZM12.0331 9.73095C12.3151 9.47516 12.6858 9.33428 13.0698 9.33234L13.0667 8.73235C12.539 8.73501 12.0247 8.92854 11.63 9.28652L12.0331 9.73095ZM11.2329 10.1042C11.4448 10.3165 11.4448 10.3165 11.4448 10.3165C11.4448 10.3165 11.4448 10.3165 11.4448 10.3165C11.4449 10.3165 11.4449 10.3164 11.4449 10.3164C11.445 10.3163 11.4451 10.3162 11.4452 10.3161C11.4455 10.3158 11.4459 10.3154 11.4465 10.3149C11.4476 10.3138 11.4492 10.3122 11.4513 10.3101C11.4555 10.3058 11.4617 10.2997 11.4696 10.2918C11.4854 10.276 11.5079 10.2535 11.5351 10.2264C11.5894 10.1722 11.6621 10.0998 11.7354 10.0267C11.8088 9.95357 11.8828 9.87992 11.9398 9.82332C12.0018 9.76178 12.034 9.73007 12.033 9.73098L11.63 9.28649C11.6117 9.30308 11.453 9.46107 11.312 9.60164C11.2385 9.67484 11.1657 9.74739 11.1114 9.80163C11.0842 9.82875 11.0616 9.8513 11.0458 9.86707C11.0379 9.87496 11.0317 9.88115 11.0274 9.88537C11.0253 9.88748 11.0237 9.88909 11.0226 9.89018C11.0221 9.89073 11.0217 9.89114 11.0214 9.89142C11.0212 9.89156 11.0211 9.89166 11.0211 9.89173C11.021 9.89177 11.021 9.89179 11.021 9.89181C11.021 9.89182 11.021 9.89183 11.021 9.89183C11.021 9.89184 11.021 9.89184 11.2329 10.1042ZM11.0443 11.0095C11.1134 10.7493 11.2535 10.5078 11.445 10.3163L11.0208 9.89204C10.7557 10.1571 10.5611 10.4914 10.4644 10.8555L11.0443 11.0095ZM9.66579 10.2685L10.5422 11.1447L10.9664 10.7203L10.09 9.84417L9.66579 10.2685ZM8.38429 9.68C8.87178 9.67614 9.29701 9.89972 9.66576 10.2685L10.09 9.84421C9.6441 9.39829 9.07298 9.07453 8.37954 9.08002L8.38429 9.68ZM7.92326 9.68001H8.38192V9.08001H7.92326V9.68001ZM8.04866 8.45151C7.80324 8.69497 7.65475 9.01199 7.62444 9.35348L8.22209 9.40654C8.23986 9.20632 8.3262 9.02134 8.47122 8.87747L8.04866 8.45151ZM6.00576 10.2724L5.49107 10.7871L5.91533 11.2113L6.43002 10.6967L6.00576 10.2724ZM7.09256 9.8222C6.68257 9.8222 6.29564 9.98251 6.00576 10.2724L6.43002 10.6967C6.6074 10.5193 6.84173 10.4222 7.09256 10.4222V9.8222ZM8.38188 9.8222H7.09256V10.4222H8.38188V9.8222ZM9.57074 10.3746C9.26962 10.0736 8.89259 9.8222 8.38188 9.8222V10.4222C8.67025 10.4222 8.9035 10.556 9.14654 10.7989L9.57074 10.3746ZM10.5427 11.3466L9.57077 10.3746L9.14651 10.7989L10.1185 11.7709L10.5427 11.3466ZM10.9849 12.2794C10.9493 11.9299 10.7932 11.597 10.5427 11.3466L10.1185 11.7709C10.2701 11.9225 10.3662 12.1265 10.388 12.3402L10.9849 12.2794ZM10.9851 12.2812L10.9848 12.2784L10.3881 12.3412L10.3884 12.344L10.9851 12.2812ZM10.9866 12.2993L10.9859 12.2895L10.3877 12.3358L10.3884 12.3456L10.9866 12.2993ZM10.9873 12.3079L10.9867 12.3005L10.3883 12.3443L10.3889 12.3517L10.9873 12.3079ZM5.09173 12.6298H10.6881V12.0298H5.09173V12.6298ZM5.49107 10.7871C5.08015 11.198 4.83544 11.7329 4.79257 12.3075L5.3909 12.3521C5.42306 11.9211 5.60584 11.5208 5.91533 11.2113L5.49107 10.7871ZM8.79687 18.5372L8.49522 13.0554L7.89613 13.0884L8.19778 18.5702L8.79687 18.5372ZM4.47014 18.8537H8.49732V18.2537H4.47014V18.8537ZM3.49323 13.1088L4.17241 18.5906L4.76786 18.5168L4.08867 13.035L3.49323 13.1088ZM8.19567 12.7719H3.79095V13.3719H8.19567V12.7719ZM4.51326 20.5579H18.6859V19.9579H4.51326V20.5579ZM4.21326 19.2959V20.2579H4.81326V19.2959H4.21326ZM9.99148 18.9959H4.51326V19.5959H9.99148V18.9959ZM10.0626 18.9248C10.0626 18.964 10.0307 18.9959 9.99148 18.9959V19.5959C10.3621 19.5959 10.6626 19.2954 10.6626 18.9248H10.0626ZM9.99148 18.8537C10.0307 18.8537 10.0626 18.8855 10.0626 18.9248H10.6626C10.6626 18.5541 10.3621 18.2537 9.99148 18.2537V18.8537ZM9.24063 18.8537H9.99148V18.2537H9.24063V18.8537ZM8.63944 13.0884L8.94109 18.5702L9.54018 18.5372L9.23853 13.0555L8.63944 13.0884ZM14.2602 12.772H8.93898V13.372H14.2602V12.772ZM14.2581 18.5702L14.5597 13.0884L13.9606 13.0555L13.659 18.5372L14.2581 18.5702ZM13.218 18.8537H13.9585V18.2537H13.218V18.8537ZM13.1469 18.9248C13.1469 18.8855 13.1787 18.8537 13.218 18.8537V18.2537C12.8474 18.2537 12.5469 18.5541 12.5469 18.9248H13.1469ZM13.218 18.9959C13.1787 18.9959 13.1469 18.964 13.1469 18.9248H12.5469C12.5469 19.2954 12.8474 19.5959 13.218 19.5959V18.9959ZM18.6859 18.9959H13.218V19.5959H18.6859V18.9959ZM18.9859 20.2579V19.2959H18.3859V20.2579H18.9859ZM5.53962 8.39246C6.23 7.64896 6.26626 6.91889 6.0923 6.36389C5.92652 5.83498 5.58082 5.49428 5.54243 5.4574L5.12675 5.89007C5.13846 5.90132 5.39877 6.1573 5.51977 6.54334C5.63259 6.9033 5.6364 7.40646 5.09994 7.98419L5.53962 8.39246ZM5.54336 8.49296C5.51457 8.46623 5.51293 8.4212 5.53962 8.39246L5.09995 7.98419C4.84773 8.2558 4.86353 8.68041 5.13503 8.93258L5.54336 8.49296ZM5.64385 8.48917C5.63298 8.50087 5.61588 8.50951 5.59429 8.51031C5.5727 8.51111 5.555 8.50377 5.54327 8.49288L5.13511 8.93266C5.40461 9.18278 5.83321 9.16688 6.08343 8.89755L5.64385 8.48917ZM6.21757 6.29967C6.39107 6.81987 6.44899 7.62207 5.6438 8.48923L6.08348 8.8975C7.06423 7.84127 7.01647 6.79861 6.78675 6.10984L6.21757 6.29967ZM5.64641 5.36037C5.69992 5.41385 6.04148 5.77157 6.21756 6.29965L6.78675 6.10986C6.56771 5.45293 6.15115 5.01653 6.07055 4.93598L5.64641 5.36037ZM5.09184 3.33708C4.86345 4.05462 5.07505 4.74227 5.63813 5.35175L6.07884 4.9446C5.62694 4.45546 5.51502 3.98579 5.66358 3.51906L5.09184 3.33708ZM5.6393 2.4244C5.61754 2.44582 5.26227 2.80157 5.09184 3.33709L5.66358 3.51905C5.78979 3.12249 6.06254 2.8497 6.0603 2.8519L5.6393 2.4244ZM5.64299 2.32228C5.67007 2.35046 5.66929 2.39536 5.64116 2.42259L6.05844 2.85372C6.32391 2.59677 6.33188 2.17321 6.07561 1.90654L5.64299 2.32228ZM5.54236 2.32035C5.57081 2.29303 5.61584 2.29403 5.643 2.32229L6.0756 1.90653C5.81873 1.63926 5.39404 1.63098 5.12682 1.88754L5.54236 2.32035ZM4.96586 3.26496C5.15567 2.69573 5.53734 2.32518 5.54265 2.32007L5.12653 1.88781C5.09606 1.91715 4.63212 2.36906 4.39667 3.07516L4.96586 3.26496ZM5.53963 5.45454C4.73443 4.58738 4.79236 3.78517 4.96585 3.26497L4.39668 3.07514C4.16696 3.76392 4.1192 4.80658 5.09994 5.8628L5.53963 5.45454ZM5.54274 5.4577C5.5414 5.45641 5.54041 5.45538 5.53968 5.4546L5.09989 5.86274C5.10873 5.87227 5.11761 5.88127 5.12644 5.88977L5.54274 5.4577ZM12.2395 18.6668C12.0984 18.3282 11.7044 18.1634 11.3637 18.3041L11.5928 18.8587C11.6082 18.8523 11.6271 18.8519 11.6464 18.8599C11.6657 18.8679 11.6791 18.8818 11.6856 18.8975L12.2395 18.6668ZM11.8763 19.5441C12.216 19.4038 12.3814 19.0071 12.2394 18.6667L11.6856 18.8976C11.6917 18.9121 11.6924 18.9308 11.6842 18.9506C11.676 18.9704 11.662 18.9834 11.6473 18.9895L11.8763 19.5441ZM11.0009 19.1822C11.1422 19.5187 11.5342 19.6854 11.8763 19.5441L11.6472 18.9895C11.6317 18.996 11.613 18.9963 11.594 18.9884C11.5748 18.9804 11.561 18.9663 11.5541 18.9499L11.0009 19.1822ZM11.3637 18.3041C11.0251 18.444 10.8575 18.8408 11.0009 19.1822L11.5541 18.9499C11.5483 18.9361 11.5474 18.9177 11.5556 18.8978C11.5639 18.8778 11.5781 18.8647 11.5927 18.8587L11.3637 18.3041Z" fill="#2D2F35"/>
</svg>
