<svg width="24" height="24" viewBox="0 0 24 24" fill="none" xmlns="http://www.w3.org/2000/svg">
<path fill-rule="evenodd" clip-rule="evenodd" d="M12.732 4.12978L20.2901 7.2405C20.8417 7.46751 21.1289 8.08956 20.944 8.65667L19.6312 12.6815V14.3218C19.6312 15.5541 19.6312 16.8284 18.5639 17.7659C17.4667 18.7298 15.4423 19.1596 12 19.1596C8.5577 19.1596 6.53328 18.7298 5.43608 17.7659C4.36879 16.8284 4.36879 15.5541 4.36879 14.3218V12.6815L3.056 8.65674C2.87107 8.08963 3.15826 7.46758 3.70987 7.2405L11.2679 4.12985C11.5289 4.02253 11.8101 4 12 4C12.19 4 12.4712 4.0225 12.732 4.12978ZM5.42336 13.7945H18.5766V13.125H5.42336V13.7945ZM12 18.105C15.0819 18.105 17.0013 17.735 17.8679 16.9737C18.4629 16.451 18.5584 15.736 18.5737 14.8491H12H5.42627C5.4416 15.736 5.53707 16.451 6.13206 16.9737C6.99873 17.735 8.91815 18.105 12 18.105ZM18.7213 12.0704L19.9414 8.32972C19.9538 8.29169 19.9258 8.23091 19.8887 8.21565L12.3308 5.10501C12.2715 5.08065 12.1534 5.05453 12 5.05453C11.8466 5.05453 11.7285 5.08065 11.6691 5.10508L4.11127 8.21569C4.07425 8.23091 4.04617 8.29165 4.05861 8.32972L5.27871 12.0704H18.7213ZM9.38495 7.74208C9.4992 7.53799 10.5429 5.74814 12.0003 5.74814C13.4577 5.74814 14.5014 7.53802 14.6156 7.74211C14.6883 7.87193 14.7027 8.02642 14.6554 8.16745C14.6449 8.19856 14.3949 8.93792 13.9877 9.68799C13.3621 10.8403 12.712 11.4005 12.0003 11.4005C11.2887 11.4005 10.6386 10.8404 10.0129 9.68799C9.60574 8.93795 9.35567 8.19856 9.34523 8.16745C9.29784 8.02639 9.31233 7.8719 9.38495 7.74208ZM12.0003 10.3459C12.1976 10.3459 12.5921 10.0447 13.0549 9.19583C13.2924 8.76022 13.474 8.31738 13.5727 8.05883C13.2654 7.59549 12.613 6.80271 12.0003 6.80271C11.3879 6.80271 10.7356 7.59504 10.4279 8.0589C10.5266 8.31734 10.7082 8.76019 10.9457 9.19583C11.4085 10.0447 11.8031 10.3459 12.0003 10.3459Z" fill="#2D2F35"/>
<path d="M20.2901 7.2405L20.252 7.33297L20.2901 7.2405ZM12.732 4.12978L12.7701 4.03731L12.7701 4.0373L12.732 4.12978ZM20.944 8.65667L21.0391 8.68768L21.0391 8.68767L20.944 8.65667ZM19.6312 12.6815L19.5361 12.6505L19.5312 12.6656V12.6815H19.6312ZM18.5639 17.7659L18.6299 17.8411L18.6299 17.8411L18.5639 17.7659ZM5.43608 17.7659L5.50208 17.6908L5.50208 17.6908L5.43608 17.7659ZM4.36879 12.6815H4.46879V12.6656L4.46386 12.6505L4.36879 12.6815ZM3.056 8.65674L2.96093 8.68775L2.96093 8.68775L3.056 8.65674ZM3.70987 7.2405L3.67181 7.14802L3.6718 7.14803L3.70987 7.2405ZM11.2679 4.12985L11.2299 4.03737L11.2298 4.03738L11.2679 4.12985ZM18.5766 13.7945V13.8945H18.6767V13.7945H18.5766ZM5.42336 13.7945H5.32336V13.8945H5.42336V13.7945ZM18.5766 13.125H18.6767V13.025H18.5766V13.125ZM5.42336 13.125V13.025H5.32336V13.125H5.42336ZM17.8679 16.9737L17.9339 17.0488L17.9339 17.0488L17.8679 16.9737ZM18.5737 14.8491L18.6737 14.8508L18.6755 14.7491H18.5737V14.8491ZM5.42627 14.8491V14.7491H5.32453L5.32629 14.8508L5.42627 14.8491ZM6.13206 16.9737L6.06606 17.0488L6.06606 17.0488L6.13206 16.9737ZM19.9414 8.32972L19.8464 8.29871L19.8464 8.29871L19.9414 8.32972ZM18.7213 12.0704V12.1704H18.7939L18.8164 12.1014L18.7213 12.0704ZM19.8887 8.21565L19.9268 8.12319L19.9268 8.12318L19.8887 8.21565ZM12.3308 5.10501L12.3688 5.01253L12.3688 5.01252L12.3308 5.10501ZM11.6691 5.10508L11.6311 5.01259L11.6311 5.0126L11.6691 5.10508ZM4.11127 8.21569L4.1493 8.30817L4.14933 8.30816L4.11127 8.21569ZM4.05861 8.32972L4.15368 8.29871L4.15366 8.29865L4.05861 8.32972ZM5.27871 12.0704L5.18363 12.1014L5.20614 12.1704H5.27871V12.0704ZM9.38495 7.74208L9.29769 7.69323L9.29768 7.69326L9.38495 7.74208ZM14.6156 7.74211L14.7029 7.69329L14.7029 7.69328L14.6156 7.74211ZM14.6554 8.16745L14.5606 8.13561L14.5606 8.13564L14.6554 8.16745ZM13.9877 9.68799L14.0756 9.73571V9.73571L13.9877 9.68799ZM10.0129 9.68799L10.1008 9.64028L10.1008 9.64028L10.0129 9.68799ZM9.34523 8.16745L9.44003 8.13564L9.44002 8.13561L9.34523 8.16745ZM13.0549 9.19583L13.1427 9.2437V9.2437L13.0549 9.19583ZM13.5727 8.05883L13.6661 8.09449L13.6845 8.04643L13.656 8.00356L13.5727 8.05883ZM10.4279 8.0589L10.3446 8.00363L10.3161 8.0465L10.3345 8.09456L10.4279 8.0589ZM10.9457 9.19583L10.8579 9.24369L10.8579 9.2437L10.9457 9.19583ZM20.3282 7.14803L12.7701 4.03731L12.694 4.22226L20.252 7.33297L20.3282 7.14803ZM21.0391 8.68767C21.2402 8.07083 20.9281 7.39495 20.3282 7.14803L20.252 7.33297C20.7552 7.54008 21.0176 8.1083 20.8489 8.62567L21.0391 8.68767ZM19.7262 12.7125L21.0391 8.68768L20.8489 8.62566L19.5361 12.6505L19.7262 12.7125ZM19.7312 14.3218V12.6815H19.5312V14.3218H19.7312ZM18.6299 17.8411C19.7359 16.8695 19.7312 15.5468 19.7312 14.3218H19.5312C19.5312 15.5614 19.5264 16.7873 18.4979 17.6908L18.6299 17.8411ZM12 19.2596C13.7245 19.2596 15.0989 19.152 16.1822 18.922C17.2653 18.692 18.0639 18.3383 18.6299 17.8411L18.4979 17.6908C17.9668 18.1574 17.2046 18.5005 16.1406 18.7264C15.0768 18.9523 13.7179 19.0596 12 19.0596V19.2596ZM5.37008 17.8411C5.93615 18.3383 6.73475 18.692 7.81786 18.922C8.90109 19.152 10.2756 19.2596 12 19.2596V19.0596C10.2822 19.0596 8.92327 18.9523 7.8594 18.7264C6.79543 18.5005 6.03321 18.1574 5.50208 17.6908L5.37008 17.8411ZM4.26879 14.3218C4.26879 15.5468 4.26403 16.8695 5.37009 17.8411L5.50208 17.6908C4.47356 16.7873 4.46879 15.5614 4.46879 14.3218H4.26879ZM4.26879 12.6815V14.3218H4.46879V12.6815H4.26879ZM2.96093 8.68775L4.27372 12.7125L4.46386 12.6505L3.15107 8.62573L2.96093 8.68775ZM3.6718 7.14803C3.07182 7.39502 2.75977 8.0709 2.96093 8.68775L3.15107 8.62574C2.98236 8.10837 3.2447 7.54014 3.74793 7.33297L3.6718 7.14803ZM11.2298 4.03738L3.67181 7.14802L3.74793 7.33297L11.3059 4.22233L11.2298 4.03738ZM12 3.9C11.804 3.9 11.508 3.92299 11.2299 4.03737L11.3059 4.22234C11.5497 4.12207 11.8162 4.1 12 4.1V3.9ZM12.7701 4.0373C12.4921 3.92295 12.196 3.9 12 3.9V4.1C12.1839 4.1 12.4503 4.12204 12.694 4.22226L12.7701 4.0373ZM18.5766 13.6945H5.42336V13.8945H18.5766V13.6945ZM18.4766 13.125V13.7945H18.6767V13.125H18.4766ZM5.42336 13.225H18.5766V13.025H5.42336V13.225ZM5.52336 13.7945V13.125H5.32336V13.7945H5.52336ZM17.8019 16.8985C17.3884 17.2618 16.7126 17.5402 15.7458 17.7266C14.7811 17.9126 13.5377 18.005 12 18.005V18.205C13.5442 18.205 14.8015 18.1124 15.7836 17.923C16.7637 17.7341 17.4809 17.4468 17.9339 17.0488L17.8019 16.8985ZM18.4737 14.8473C18.4584 15.7333 18.3615 16.4069 17.8019 16.8985L17.9339 17.0488C18.5642 16.4951 18.6583 15.7387 18.6737 14.8508L18.4737 14.8473ZM12 14.9491H18.5737V14.7491H12V14.9491ZM5.42627 14.9491H12V14.7491H5.42627V14.9491ZM6.19806 16.8985C5.63842 16.4069 5.54157 15.7333 5.52626 14.8473L5.32629 14.8508C5.34163 15.7387 5.43572 16.4951 6.06606 17.0488L6.19806 16.8985ZM12 18.005C10.4623 18.005 9.219 17.9126 8.25427 17.7266C7.28746 17.5402 6.61165 17.2618 6.19805 16.8985L6.06606 17.0488C6.51914 17.4468 7.23637 17.7341 8.21641 17.923C9.19854 18.1124 10.4559 18.205 12 18.205V18.005ZM19.8464 8.29871L18.6262 12.0394L18.8164 12.1014L20.0365 8.36073L19.8464 8.29871ZM19.8507 8.30812C19.8466 8.30645 19.8439 8.30466 19.8424 8.30356C19.8409 8.30245 19.8403 8.30172 19.8402 8.30171C19.8402 8.30169 19.8406 8.30208 19.8411 8.30293C19.8417 8.30378 19.8423 8.30485 19.8428 8.30607C19.8434 8.3073 19.8438 8.30845 19.8441 8.30941C19.8444 8.31039 19.8445 8.3109 19.8445 8.31086C19.8445 8.31085 19.8443 8.30987 19.8445 8.30801C19.8446 8.30616 19.845 8.30291 19.8464 8.29871L20.0365 8.36074C20.0534 8.30902 20.0405 8.25702 20.0244 8.22222C20.0083 8.18741 19.9771 8.1439 19.9268 8.12319L19.8507 8.30812ZM12.2927 5.19748L19.8507 8.30813L19.9268 8.12318L12.3688 5.01253L12.2927 5.19748ZM12 5.15453C12.1441 5.15453 12.2486 5.17935 12.2928 5.1975L12.3688 5.01252C12.2944 4.98194 12.1627 4.95453 12 4.95453V5.15453ZM11.7071 5.19756C11.7514 5.17935 11.8559 5.15453 12 5.15453V4.95453C11.8373 4.95453 11.7056 4.98195 11.6311 5.01259L11.7071 5.19756ZM4.14933 8.30816L11.7072 5.19755L11.6311 5.0126L4.07321 8.12321L4.14933 8.30816ZM4.15366 8.29865C4.15503 8.30285 4.15544 8.3061 4.15557 8.30796C4.15569 8.30983 4.15556 8.31081 4.15555 8.31083C4.15555 8.31087 4.15562 8.31037 4.1559 8.3094C4.15619 8.30844 4.15661 8.30729 4.15717 8.30608C4.15774 8.30486 4.15833 8.30379 4.15888 8.30295C4.15944 8.3021 4.15978 8.30172 4.15975 8.30175C4.15975 8.30176 4.15909 8.30249 4.1576 8.3036C4.15611 8.30471 4.15338 8.3065 4.1493 8.30817L4.07324 8.1232C4.02294 8.14388 3.99169 8.18739 3.97561 8.2222C3.95953 8.25701 3.94664 8.30904 3.96356 8.36079L4.15366 8.29865ZM5.37378 12.0394L4.15368 8.29871L3.96354 8.36073L5.18363 12.1014L5.37378 12.0394ZM18.7213 11.9704H5.27871V12.1704H18.7213V11.9704ZM12.0003 5.64814C11.2307 5.64814 10.5808 6.11958 10.1171 6.59906C9.65109 7.08092 9.35669 7.58783 9.29769 7.69323L9.47221 7.79092C9.52746 7.69223 9.81205 7.20218 10.2608 6.73809C10.7119 6.27163 11.3126 5.84814 12.0003 5.84814V5.64814ZM14.7029 7.69328C14.6439 7.58787 14.3495 7.08095 13.8836 6.59908C13.4199 6.11959 12.77 5.64814 12.0003 5.64814V5.84814C12.688 5.84814 13.2887 6.27164 13.7398 6.73811C14.1886 7.2022 14.4731 7.69226 14.5284 7.79095L14.7029 7.69328ZM14.7502 8.1993C14.8065 8.03149 14.7893 7.8477 14.7029 7.69329L14.5284 7.79094C14.5872 7.89616 14.599 8.02136 14.5606 8.13561L14.7502 8.1993ZM14.0756 9.73571C14.4869 8.97804 14.7391 8.23227 14.7502 8.19927L14.5606 8.13564C14.5507 8.16486 14.3029 8.8978 13.8998 9.64028L14.0756 9.73571ZM12.0003 11.5005C12.7717 11.5005 13.4472 10.8931 14.0756 9.73571L13.8998 9.64028C13.2769 10.7875 12.6524 11.3005 12.0003 11.3005V11.5005ZM9.92506 9.73571C10.5534 10.8931 11.229 11.5005 12.0003 11.5005V11.3005C11.3483 11.3005 10.7237 10.7876 10.1008 9.64028L9.92506 9.73571ZM9.25043 8.19927C9.2615 8.23227 9.51374 8.97808 9.92506 9.73571L10.1008 9.64028C9.69775 8.89783 9.44984 8.16486 9.44003 8.13564L9.25043 8.19927ZM9.29768 7.69326C9.2113 7.84767 9.19406 8.03146 9.25043 8.1993L9.44002 8.13561C9.40163 8.02132 9.41336 7.89612 9.47222 7.7909L9.29768 7.69326ZM12.9671 9.14796C12.7387 9.56697 12.5297 9.8459 12.3573 10.0186C12.2711 10.1049 12.1957 10.163 12.1333 10.199C12.0698 10.2356 12.0257 10.2459 12.0003 10.2459V10.4459C12.0736 10.4459 12.1528 10.4186 12.2332 10.3722C12.3147 10.3252 12.4039 10.255 12.4988 10.1599C12.6887 9.9697 12.9083 9.67358 13.1427 9.2437L12.9671 9.14796ZM13.4793 8.02318C13.3814 8.27962 13.2016 8.71787 12.9671 9.14796L13.1427 9.2437C13.3832 8.80258 13.5667 8.35513 13.6661 8.09449L13.4793 8.02318ZM12.0003 6.90271C12.2671 6.90271 12.5591 7.07807 12.8333 7.33058C13.1036 7.57949 13.3385 7.88657 13.4894 8.11411L13.656 8.00356C13.4996 7.76776 13.2547 7.44677 12.9688 7.18346C12.6868 6.92374 12.3463 6.70271 12.0003 6.70271V6.90271ZM10.5113 8.11418C10.6624 7.88638 10.8973 7.57929 11.1676 7.33042C11.4418 7.07796 11.7337 6.90271 12.0003 6.90271V6.70271C11.6545 6.70271 11.3141 6.92362 11.0321 7.18329C10.7462 7.44656 10.5012 7.76756 10.3446 8.00363L10.5113 8.11418ZM11.0335 9.14797C10.799 8.71783 10.6192 8.27958 10.5213 8.02325L10.3345 8.09456C10.4339 8.3551 10.6174 8.80255 10.8579 9.24369L11.0335 9.14797ZM12.0003 10.2459C11.975 10.2459 11.9309 10.2356 11.8674 10.199C11.805 10.163 11.7296 10.1049 11.6434 10.0186C11.471 9.8459 11.2619 9.56696 11.0335 9.14796L10.8579 9.2437C11.0923 9.67359 11.312 9.9697 11.5019 10.1599C11.5968 10.255 11.6859 10.3252 11.7675 10.3722C11.8479 10.4186 11.9271 10.4459 12.0003 10.4459V10.2459Z" fill="#2D2F35"/>
</svg>
