<svg width="24" height="24" viewBox="0 0 24 24" fill="none" xmlns="http://www.w3.org/2000/svg">
<g clip-path="url(#clip0)">
<path d="M19.5 20.7097H18.2097V4.90323C18.2097 4.54694 17.9209 4.25806 17.5645 4.25806H12.7258V2.64516C12.7258 2.28887 12.437 2 12.0807 2H7.60486C7.24857 2 6.9597 2.28887 6.9597 2.64516V4.25806H6.4355C6.07921 4.25806 5.79034 4.54694 5.79034 4.90323V20.7097H4.50002C4.14373 20.7097 3.85486 20.9985 3.85486 21.3548C3.85486 21.7111 4.14373 22 4.50002 22H19.5C19.8564 22 20.1452 21.7111 20.1452 21.3548C20.1452 20.9985 19.8564 20.7097 19.5 20.7097ZM8.25002 3.29032H11.4355V4.25806H8.25002V3.29032ZM10.7097 20.7097V17.9677H13.2903V20.7097H10.7097ZM14.5807 20.7097V17.9677H14.8629C15.2193 17.9677 15.5081 17.6789 15.5081 17.3226C15.5081 16.9663 15.2193 16.6774 14.8629 16.6774C12.6188 16.6774 11.2157 16.6774 9.13712 16.6774C8.78083 16.6774 8.49196 16.9663 8.49196 17.3226C8.49196 17.6789 8.78083 17.9677 9.13712 17.9677H9.41937V20.7097H7.08067V5.54839H16.9194V20.7097H14.5807ZM11.0726 7.44355C11.0726 7.79984 10.7837 8.08871 10.4274 8.08871H9.70163C9.34534 8.08871 9.05647 7.79984 9.05647 7.44355C9.05647 7.08726 9.34534 6.79839 9.70163 6.79839H10.4274C10.7837 6.79839 11.0726 7.08726 11.0726 7.44355ZM14.9032 7.44355C14.9032 7.79984 14.6144 8.08871 14.2581 8.08871H13.5323C13.1759 8.08871 12.8871 7.79984 12.8871 7.44355C12.8871 7.08726 13.1759 6.79839 13.5323 6.79839H14.2581C14.6144 6.79839 14.9032 7.08726 14.9032 7.44355ZM11.0726 9.8629C11.0726 10.2192 10.7837 10.5081 10.4274 10.5081H9.70163C9.34534 10.5081 9.05647 10.2192 9.05647 9.8629C9.05647 9.50661 9.34534 9.21774 9.70163 9.21774H10.4274C10.7837 9.21774 11.0726 9.50661 11.0726 9.8629ZM14.9032 9.8629C14.9032 10.2192 14.6144 10.5081 14.2581 10.5081H13.5323C13.1759 10.5081 12.8871 10.2192 12.8871 9.8629C12.8871 9.50661 13.1759 9.21774 13.5323 9.21774H14.2581C14.6144 9.21774 14.9032 9.50661 14.9032 9.8629ZM11.0726 12.2823C11.0726 12.6385 10.7837 12.9274 10.4274 12.9274H9.70163C9.34534 12.9274 9.05647 12.6385 9.05647 12.2823C9.05647 11.926 9.34534 11.6371 9.70163 11.6371H10.4274C10.7837 11.6371 11.0726 11.926 11.0726 12.2823ZM14.9032 12.2823C14.9032 12.6385 14.6144 12.9274 14.2581 12.9274H13.5323C13.1759 12.9274 12.8871 12.6385 12.8871 12.2823C12.8871 11.926 13.1759 11.6371 13.5323 11.6371H14.2581C14.6144 11.6371 14.9032 11.926 14.9032 12.2823ZM11.0726 14.7016C11.0726 15.0579 10.7837 15.3468 10.4274 15.3468H9.70163C9.34534 15.3468 9.05647 15.0579 9.05647 14.7016C9.05647 14.3453 9.34534 14.0565 9.70163 14.0565H10.4274C10.7837 14.0565 11.0726 14.3453 11.0726 14.7016ZM14.9032 14.7016C14.9032 15.0579 14.6144 15.3468 14.2581 15.3468H13.5323C13.1759 15.3468 12.8871 15.0579 12.8871 14.7016C12.8871 14.3453 13.1759 14.0565 13.5323 14.0565H14.2581C14.6144 14.0565 14.9032 14.3453 14.9032 14.7016Z" fill="#2D2F35"/>
</g>
<defs>
<clipPath id="clip0">
<rect width="20" height="20" fill="white" transform="translate(2 2)"/>
</clipPath>
</defs>
</svg>
