<svg width="24" height="24" viewBox="0 0 24 24" fill="none" xmlns="http://www.w3.org/2000/svg">
<path d="M21.4141 14.9092H20.8019C21.5807 13.6926 22 12.2749 22 10.8077C22 10.484 21.7377 10.2217 21.4141 10.2217H12.7083L7.03372 5.67323C7.31403 5.02992 7.19211 4.25172 6.6666 3.72621C5.97964 3.03926 4.86758 3.0391 4.18063 3.72621L2.52322 5.38346C1.83795 6.06889 1.83795 7.184 2.52322 7.86943C3.03668 8.38288 3.78848 8.50999 4.4202 8.25792L5.70605 10.2217H2.58594C2.2623 10.2217 2 10.484 2 10.8077C2 14.4029 4.50397 17.424 7.85938 18.2198V20.1827C7.85938 20.5063 8.12167 20.7686 8.44531 20.7686H17.8984C20.1601 20.7686 22 18.9287 22 16.667V15.4952C22 15.1715 21.7377 14.9092 21.4141 14.9092ZM17.999 16.667C17.999 17.4497 17.6943 18.1853 17.1408 18.7387L16.7266 19.153L16.3123 18.7387C15.7589 18.1853 15.4541 17.4497 15.4541 16.667C15.4541 16.4678 15.4741 16.2715 15.5129 16.0805C15.5136 16.0768 15.5146 16.0732 15.5153 16.0695C15.6298 15.5148 15.9026 15.0052 16.3123 14.5955L16.7266 14.1812L17.1408 14.5955C17.5505 15.005 17.8235 15.5148 17.9378 16.0693C17.9386 16.0732 17.9395 16.0768 17.9402 16.0805C17.979 16.2715 17.999 16.4678 17.999 16.667ZM15.4836 19.5673L15.512 19.5957C13.9162 19.5726 12.625 18.2681 12.625 16.667V16.0811H13.2109C13.5852 16.0811 13.9553 16.153 14.2995 16.2904C14.2882 16.415 14.2823 16.5405 14.2823 16.667C14.2823 17.7626 14.7089 18.7926 15.4836 19.5673ZM3.35193 7.04072C3.1235 6.8123 3.1235 6.44059 3.35193 6.21202L5.00919 4.55476C5.23822 4.32573 5.60886 4.32573 5.83789 4.55476C6.06631 4.78334 6.06631 5.15504 5.83789 5.38346C5.83789 5.38346 4.18124 7.03996 4.18033 7.04103C3.9519 7.26915 3.58035 7.26915 3.35193 7.04072ZM5.34595 7.53267L6.29535 6.58326L10.8345 10.2217H7.10681L5.34595 7.53267ZM3.19827 11.3936H20.8017C20.68 12.7376 20.1409 14.0065 19.2514 15.031C19.1255 15.0623 19.0012 15.0995 18.879 15.1424C18.6754 14.6333 18.3689 14.1661 17.9695 13.7668L17.1408 12.9382C17.031 12.8282 16.8819 12.7666 16.7266 12.7666C16.5712 12.7666 16.4221 12.8282 16.3123 12.9382L15.4836 13.7668C15.0843 14.1661 14.7777 14.6335 14.5742 15.1424C14.1382 14.9892 13.6768 14.9092 13.2109 14.9092H12.0391C11.7156 14.9092 11.4531 15.1715 11.4531 15.4952V16.667C11.4531 16.866 11.4676 17.0615 11.4952 17.253H9.61719C6.26056 17.253 3.49506 14.6742 3.19827 11.3936ZM9.03125 19.5967V18.4026C9.5235 18.4401 9.71317 18.4187 11.8494 18.4248C12.0586 18.864 12.3436 19.2603 12.6874 19.5967H9.03125ZM20.8281 16.667C20.8281 18.2681 19.5369 19.5726 17.9412 19.5957L17.9695 19.5673C18.7442 18.7926 19.1709 17.7626 19.1709 16.667C19.1709 16.5405 19.1649 16.415 19.1536 16.2904C19.4979 16.153 19.8679 16.0811 20.2422 16.0811H20.8281V16.667Z" fill="#2D2F35" stroke="#2D2F35" stroke-width="0.1"/>
</svg>
