<svg width="24" height="24" viewBox="0 0 24 24" fill="none" xmlns="http://www.w3.org/2000/svg">
<g clip-path="url(#clip0)">
<path d="M19.2349 6.25875L18.7557 5.74012C18.7553 5.73978 18.7553 5.73978 18.755 5.73943L18.4276 5.38423L18.4117 5.39062C16.8304 3.86622 14.703 3 12.5 3C10.297 3 8.16959 3.86622 6.58829 5.39028L6.57238 5.38388L6.24502 5.73908C6.24467 5.73943 6.24467 5.73943 6.24432 5.73978L5.76513 6.2584L5.79037 6.28175C4.63328 7.7688 4 9.59532 4 11.5C4 13.4047 4.63328 15.2312 5.79037 16.7179L5.76513 16.7413L6.24432 17.2599C6.24467 17.2602 6.24467 17.2602 6.24502 17.2606L6.57238 17.6158L6.58829 17.6094C8.16959 19.1338 10.297 20 12.5 20C14.703 20 16.8304 19.1338 18.4117 17.6097L18.4276 17.6161L18.755 17.2609C18.7553 17.2606 18.7553 17.2606 18.7557 17.2602L19.2349 16.7416L19.2096 16.7183C20.3667 15.2312 21 13.4047 21 11.5C21 9.59532 20.3667 7.7688 19.2096 6.28209L19.2349 6.25875ZM5.41667 11.5C5.41667 9.88256 5.96141 8.3317 6.96009 7.08035C8.61904 7.91942 9.66667 9.60483 9.66667 11.5C9.66667 13.3952 8.61904 15.0806 6.96009 15.9196C5.96141 14.6683 5.41667 13.1174 5.41667 11.5ZM12.5 18.5833C10.8535 18.5833 9.26183 17.9964 7.9989 16.9605C9.90082 15.8237 11.0833 13.7808 11.0833 11.5C11.0833 9.21919 9.90082 7.17633 7.9989 6.03947C9.26183 5.0036 10.8535 4.41667 12.5 4.41667C14.1465 4.41667 15.7382 5.0036 17.0011 6.03947C15.0992 7.17633 13.9167 9.21919 13.9167 11.5C13.9167 13.7808 15.0992 15.8237 17.0011 16.9605C15.7382 17.9964 14.1465 18.5833 12.5 18.5833ZM19.5833 11.5C19.5833 13.1174 19.0386 14.6683 18.0399 15.9196C16.381 15.0806 15.3333 13.3952 15.3333 11.5C15.3333 9.60483 16.381 7.91942 18.0399 7.08035C19.0386 8.3317 19.5833 9.88256 19.5833 11.5Z" fill="#2D2F35"/>
</g>
<defs>
<clipPath id="clip0">
<rect width="17" height="17" fill="white" transform="translate(4 3)"/>
</clipPath>
</defs>
</svg>
