<svg width="24" height="24" viewBox="0 0 24 24" fill="none" xmlns="http://www.w3.org/2000/svg">
<path fill-rule="evenodd" clip-rule="evenodd" d="M22.5703 8.8239C21.4486 8.8239 20.3693 9.19738 19.4944 9.86989V6.73991C19.4944 6.5026 19.3021 6.31023 19.0647 6.31023C17.4974 6.31023 16.1279 7.17136 15.403 8.44496C14.8971 6.68736 13.7929 5.134 12.2424 4.07486C12.0962 3.97505 11.9038 3.97505 11.7577 4.07486C10.2071 5.134 9.10283 6.68749 8.597 8.44517C7.87204 7.17149 6.50266 6.31023 4.93525 6.31023C4.69798 6.31023 4.50556 6.5026 4.50556 6.73991V9.86989C3.63072 9.19738 2.55134 8.8239 1.42969 8.8239C1.19237 8.8239 1 9.01627 1 9.25358V10.3228C1 13.8002 3.56223 16.6902 6.89789 17.2045C6.38785 17.7017 6.07031 18.3954 6.07031 19.1623V20.1462C6.07031 20.3 6.15251 20.4421 6.28593 20.5187C6.35223 20.5568 6.42614 20.5758 6.5 20.5758C6.57472 20.5758 6.64953 20.5563 6.71635 20.5174L7.51075 20.0545C8.22786 19.6366 9.04568 19.4157 9.87567 19.4157C10.5591 19.4157 11.2013 19.1492 11.684 18.6653C11.8028 18.5462 11.9083 18.4173 12 18.2807C12.0917 18.4173 12.1972 18.5462 12.316 18.6653C12.7986 19.1492 13.4409 19.4157 14.1243 19.4157C14.9543 19.4157 15.7721 19.6366 16.4892 20.0545L17.2836 20.5175C17.3505 20.5564 17.4252 20.5759 17.5 20.5759C17.5739 20.5759 17.6478 20.5569 17.714 20.5187C17.8474 20.4421 17.9296 20.3 17.9296 20.1462V19.1623C17.9296 18.3951 17.6118 17.7012 17.1015 17.2039C17.8826 17.0832 18.6407 16.8308 19.3352 16.4566C19.5441 16.3441 19.6222 16.0835 19.5097 15.8746C19.3972 15.6656 19.1365 15.5875 18.9276 15.7001C18.1193 16.1355 17.2123 16.3823 16.2898 16.4206C18.1589 15.3344 19.4329 13.3323 19.4922 11.0332C20.1864 10.2803 21.1291 9.80964 22.1406 9.70536V10.3229C22.1406 11.3109 21.8992 12.292 21.4425 13.1602C21.3321 13.3702 21.4128 13.6301 21.6228 13.7405C21.6866 13.7741 21.755 13.79 21.8224 13.79C21.9769 13.79 22.1262 13.7065 22.2031 13.5603C22.7244 12.5692 23 11.4497 23 10.3228V9.25358C23 9.01627 22.8076 8.8239 22.5703 8.8239ZM12 4.95757C13.7924 6.29484 14.8538 8.39833 14.8538 10.643C14.8538 12.8876 13.7924 14.9911 12 16.3283C10.2076 14.9911 9.14619 12.8876 9.14619 10.643C9.14619 8.39833 10.2076 6.29484 12 4.95757ZM5.36494 7.19701C7.0109 7.40851 8.28681 8.81861 8.28681 10.5212L8.2887 10.5212L8.28791 10.5635C8.28736 10.59 8.28681 10.6165 8.28681 10.643C8.28681 12.8496 9.20175 14.9341 10.7814 16.4247C7.78154 16.3477 5.36494 13.8834 5.36494 10.8653V7.19701ZM1.85938 10.3228V9.70532C2.87086 9.80956 3.81355 10.2802 4.50775 11.0332C4.56705 13.3325 5.84125 15.3347 7.7106 16.4209C4.46165 16.288 1.85938 13.6038 1.85938 10.3228ZM9.87567 18.5563C8.89379 18.5563 7.92643 18.8177 7.07806 19.312L6.92969 19.3985V19.1623C6.92969 18.1277 7.7714 17.2859 8.806 17.2859H11.5168C11.4425 17.5755 11.2923 17.8411 11.0755 18.0584C10.7553 18.3795 10.3292 18.5563 9.87567 18.5563ZM17.0703 19.3985L16.9219 19.312C16.0736 18.8177 15.1062 18.5563 14.1243 18.5563C13.6708 18.5563 13.2447 18.3795 12.9245 18.0584C12.7078 17.8411 12.5575 17.5755 12.4832 17.2859H15.194C16.2286 17.2859 17.0703 18.1277 17.0703 19.1623V19.3985ZM18.6351 10.8653C18.6351 13.8834 16.2185 16.3476 13.2186 16.4247C14.7983 14.934 15.7132 12.8496 15.7132 10.643C15.7132 10.6155 15.7126 10.5882 15.7121 10.5608V10.5608L15.7113 10.5211L15.7132 10.5212C15.7132 8.81861 16.9891 7.40851 18.6351 7.19701V10.8653ZM12.3037 10.1798C12.2239 10.2597 12.113 10.3057 12 10.3057C11.887 10.3057 11.7761 10.2597 11.6962 10.1798C11.6162 10.0998 11.5703 9.98941 11.5703 9.87598C11.5703 9.76297 11.6163 9.65211 11.6962 9.57219C11.7761 9.49227 11.887 9.44629 12 9.44629C12.113 9.44629 12.2239 9.49227 12.3037 9.57219C12.3837 9.65211 12.4297 9.76297 12.4297 9.87598C12.4297 9.98898 12.3837 10.0998 12.3037 10.1798ZM12 12.0459C12.113 12.0459 12.2239 11.9999 12.3037 11.92C12.3837 11.8401 12.4297 11.7292 12.4297 11.6162C12.4297 11.5032 12.3837 11.3923 12.3037 11.3124C12.2239 11.2325 12.113 11.1865 12 11.1865C11.887 11.1865 11.7761 11.2325 11.6962 11.3124C11.6163 11.3923 11.5703 11.5032 11.5703 11.6162C11.5703 11.7296 11.6162 11.8401 11.6962 11.92C11.7761 11.9999 11.887 12.0459 12 12.0459ZM12 13.7861C12.113 13.7861 12.2239 13.7402 12.3037 13.6602C12.3837 13.5803 12.4297 13.4695 12.4297 13.3564C12.4297 13.2434 12.3837 13.1326 12.3037 13.0527C12.2239 12.9727 12.113 12.9268 12 12.9268C11.887 12.9268 11.7761 12.9727 11.6962 13.0527C11.6163 13.1326 11.5703 13.2434 11.5703 13.3564C11.5703 13.4695 11.6162 13.5803 11.6962 13.6602C11.7761 13.7402 11.887 13.7861 12 13.7861ZM20.3759 14.6156C20.4558 14.5353 20.5662 14.4897 20.6797 14.4897C20.7927 14.4897 20.9031 14.5353 20.9834 14.6156C21.0634 14.6956 21.1089 14.806 21.1089 14.9194C21.1089 15.0324 21.0634 15.1433 20.9834 15.2232C20.9031 15.3031 20.7927 15.3491 20.6797 15.3491C20.5662 15.3491 20.4558 15.3031 20.3759 15.2232C20.2955 15.1433 20.25 15.0324 20.25 14.9194C20.25 14.806 20.2955 14.6956 20.3759 14.6156Z" fill="#2D2F35"/>
<path d="M19.4944 9.86989H19.3444V10.1744L19.5859 9.98881L19.4944 9.86989ZM15.403 8.44496L15.2588 8.48644L15.3572 8.82848L15.5333 8.51916L15.403 8.44496ZM12.2424 4.07486L12.327 3.951L12.327 3.95099L12.2424 4.07486ZM11.7577 4.07486L11.6731 3.95099L11.673 3.951L11.7577 4.07486ZM8.597 8.44517L8.46664 8.51937L8.64272 8.82871L8.74115 8.48665L8.597 8.44517ZM4.50556 9.86989L4.41414 9.98881L4.65556 10.1744V9.86989H4.50556ZM6.89789 17.2045L7.00259 17.3119L7.21787 17.1021L6.92075 17.0563L6.89789 17.2045ZM6.28593 20.5187L6.36069 20.3887L6.36062 20.3886L6.28593 20.5187ZM6.71635 20.5174L6.79186 20.647L6.79187 20.647L6.71635 20.5174ZM7.51075 20.0545L7.58627 20.1841L7.58628 20.1841L7.51075 20.0545ZM11.684 18.6653L11.5778 18.5594L11.5778 18.5594L11.684 18.6653ZM12 18.2807L12.1246 18.1971L12 18.0115L11.8754 18.1971L12 18.2807ZM12.316 18.6653L12.2098 18.7712L12.2098 18.7713L12.316 18.6653ZM16.4892 20.0545L16.4137 20.1841L16.4137 20.1841L16.4892 20.0545ZM17.2836 20.5175L17.2081 20.6471L17.2081 20.6471L17.2836 20.5175ZM17.714 20.5187L17.6393 20.3887L17.6392 20.3887L17.714 20.5187ZM17.1015 17.2039L17.0786 17.0557L16.7815 17.1016L16.9968 17.3114L17.1015 17.2039ZM19.3352 16.4566L19.4063 16.5887L19.4064 16.5887L19.3352 16.4566ZM19.5097 15.8746L19.3776 15.9457L19.5097 15.8746ZM18.9276 15.7001L18.8565 15.568L18.8564 15.568L18.9276 15.7001ZM16.2898 16.4206L16.2145 16.291L16.2961 16.5705L16.2898 16.4206ZM19.4922 11.0332L19.3819 10.9315L19.3437 10.973L19.3423 11.0294L19.4922 11.0332ZM22.1406 9.70536H22.2906V9.5391L22.1252 9.55615L22.1406 9.70536ZM21.4425 13.1602L21.3098 13.0904L21.3097 13.0904L21.4425 13.1602ZM21.6228 13.7405L21.6927 13.6078L21.6926 13.6077L21.6228 13.7405ZM22.2031 13.5603L22.0703 13.4904L22.0703 13.4904L22.2031 13.5603ZM12 4.95757L12.0897 4.83734L12 4.77042L11.9103 4.83734L12 4.95757ZM12 16.3283L11.9103 16.4486L12 16.5155L12.0897 16.4486L12 16.3283ZM8.28681 10.5212H8.13681V10.6678L8.28345 10.6711L8.28681 10.5212ZM5.36494 7.19701L5.38405 7.04824L5.21494 7.02651V7.19701H5.36494ZM8.2887 10.5212L8.43868 10.524L8.44148 10.3746L8.29207 10.3712L8.2887 10.5212ZM8.28791 10.5635L8.43788 10.5667L8.43788 10.5664L8.28791 10.5635ZM10.7814 16.4247L10.7776 16.5747L11.1695 16.5847L10.8844 16.3156L10.7814 16.4247ZM1.85938 9.70532L1.87475 9.55611L1.70938 9.53906V9.70532H1.85938ZM4.50775 11.0332L4.6577 11.0293L4.65625 10.973L4.61804 10.9315L4.50775 11.0332ZM7.7106 16.4209L7.70447 16.5708L7.78596 16.2912L7.7106 16.4209ZM7.07806 19.312L7.00254 19.1824L7.00251 19.1824L7.07806 19.312ZM6.92969 19.3985H6.77969V19.6595L7.00523 19.528L6.92969 19.3985ZM11.5168 17.2859L11.6621 17.3232L11.7102 17.1359H11.5168V17.2859ZM11.0755 18.0584L11.1817 18.1644L11.1817 18.1644L11.0755 18.0584ZM16.9219 19.312L16.9975 19.1824L16.9975 19.1824L16.9219 19.312ZM17.0703 19.3985L16.9948 19.528L17.2203 19.6595V19.3985H17.0703ZM12.9245 18.0584L12.8183 18.1644L12.8183 18.1644L12.9245 18.0584ZM12.4832 17.2859V17.1359H12.2898L12.3379 17.3232L12.4832 17.2859ZM13.2186 16.4247L13.1156 16.3156L12.8305 16.5847L13.2224 16.5746L13.2186 16.4247ZM15.7121 10.5608H15.562L15.5621 10.5639L15.7121 10.5608ZM15.7121 10.5608H15.8621L15.862 10.5579L15.7121 10.5608ZM15.7113 10.5211L15.7181 10.3712L15.5583 10.364L15.5613 10.5239L15.7113 10.5211ZM15.7132 10.5212L15.7064 10.671L15.8632 10.6781V10.5212H15.7132ZM18.6351 7.19701H18.7851V7.02651L18.6159 7.04824L18.6351 7.19701ZM12.3037 10.1798L12.1977 10.0737L12.1977 10.0737L12.3037 10.1798ZM11.6962 10.1798L11.8023 10.0737L11.8022 10.0737L11.6962 10.1798ZM11.6962 9.57219L11.8023 9.67825L11.8023 9.67825L11.6962 9.57219ZM12.3037 9.57219L12.1977 9.67822L12.1977 9.67828L12.3037 9.57219ZM12.3037 11.92L12.1977 11.8139L12.1977 11.814L12.3037 11.92ZM12.3037 11.3124L12.1977 11.4185L12.1977 11.4185L12.3037 11.3124ZM11.6962 11.3124L11.8023 11.4185L11.8023 11.4185L11.6962 11.3124ZM11.6962 11.92L11.8023 11.8139L11.8022 11.8139L11.6962 11.92ZM12.3037 13.6602L12.1977 13.5542L12.1977 13.5542L12.3037 13.6602ZM12.3037 13.0527L12.1977 13.1587L12.1977 13.1588L12.3037 13.0527ZM11.6962 13.6602L11.8023 13.5542L11.8022 13.5541L11.6962 13.6602ZM20.3759 14.6156L20.4817 14.722L20.4822 14.7214L20.3759 14.6156ZM20.9834 14.6156L20.8773 14.7217L20.8774 14.7217L20.9834 14.6156ZM20.9834 15.2232L21.0892 15.3295L21.0895 15.3293L20.9834 15.2232ZM20.3759 15.2232L20.482 15.1172L20.4817 15.1169L20.3759 15.2232ZM19.5859 9.98881C20.4347 9.33626 21.482 8.9739 22.5703 8.9739V8.6739C21.4152 8.6739 20.3038 9.0585 19.403 9.75096L19.5859 9.98881ZM19.3444 6.73991V9.86989H19.6444V6.73991H19.3444ZM19.0647 6.46023C19.2192 6.46023 19.3444 6.58544 19.3444 6.73991H19.6444C19.6444 6.41975 19.3849 6.16023 19.0647 6.16023V6.46023ZM15.5333 8.51916C16.2328 7.29031 17.5537 6.46023 19.0647 6.46023V6.16023C17.4411 6.16023 16.023 7.05241 15.2726 8.37075L15.5333 8.51916ZM12.1578 4.19872C13.6791 5.23795 14.7625 6.76202 15.2588 8.48644L15.5471 8.40347C15.0317 6.6127 13.9066 5.03005 12.327 3.951L12.1578 4.19872ZM11.8422 4.19874C11.9374 4.13375 12.0626 4.13375 12.1578 4.19874L12.327 3.95099C12.1298 3.81634 11.8703 3.81634 11.6731 3.95099L11.8422 4.19874ZM8.74115 8.48665C9.23744 6.76214 10.3208 5.23794 11.8423 4.19872L11.673 3.951C10.0933 5.03005 8.96823 6.61284 8.45285 8.40369L8.74115 8.48665ZM4.93525 6.46023C6.44635 6.46023 7.76714 7.29043 8.46664 8.51937L8.72737 8.37097C7.97693 7.05255 6.55898 6.16023 4.93525 6.16023V6.46023ZM4.65556 6.73991C4.65556 6.58545 4.78081 6.46023 4.93525 6.46023V6.16023C4.61514 6.16023 4.35556 6.41974 4.35556 6.73991H4.65556ZM4.65556 9.86989V6.73991H4.35556V9.86989H4.65556ZM1.42969 8.9739C2.51796 8.9739 3.56526 9.33626 4.41414 9.98881L4.59698 9.75096C3.69617 9.0585 2.58472 8.6739 1.42969 8.6739V8.9739ZM1.15 9.25358C1.15 9.09911 1.27521 8.9739 1.42969 8.9739V8.6739C1.10953 8.6739 0.85 8.93343 0.85 9.25358H1.15ZM1.15 10.3228V9.25358H0.85V10.3228H1.15ZM6.92075 17.0563C3.65702 16.5531 1.15 13.7249 1.15 10.3228H0.85C0.85 13.8754 3.46744 16.8274 6.87503 17.3528L6.92075 17.0563ZM6.22031 19.1623C6.22031 18.4377 6.52017 17.7822 7.00259 17.3119L6.79319 17.0971C6.25554 17.6212 5.92031 18.3531 5.92031 19.1623H6.22031ZM6.22031 20.1462V19.1623H5.92031V20.1462H6.22031ZM6.36062 20.3886C6.27382 20.3388 6.22031 20.2463 6.22031 20.1462H5.92031C5.92031 20.3537 6.0312 20.5454 6.21123 20.6488L6.36062 20.3886ZM6.5 20.4258C6.4519 20.4258 6.40384 20.4135 6.36069 20.3887L6.21117 20.6487C6.30062 20.7002 6.40037 20.7258 6.5 20.7258V20.4258ZM6.64084 20.3878C6.59734 20.4131 6.54865 20.4258 6.5 20.4258V20.7258C6.60079 20.7258 6.70173 20.6995 6.79186 20.647L6.64084 20.3878ZM7.43523 19.9249L6.64083 20.3878L6.79187 20.647L7.58627 20.1841L7.43523 19.9249ZM9.87567 19.2657C9.01915 19.2657 8.17526 19.4936 7.43523 19.9249L7.58628 20.1841C8.28046 19.7796 9.07222 19.5657 9.87567 19.5657V19.2657ZM11.5778 18.5594C11.1233 19.0151 10.5192 19.2657 9.87567 19.2657V19.5657C10.5989 19.5657 11.2794 19.2833 11.7902 18.7713L11.5778 18.5594ZM11.8754 18.1971C11.7891 18.3258 11.6898 18.4471 11.5778 18.5594L11.7902 18.7713C11.9159 18.6452 12.0275 18.5089 12.1246 18.3643L11.8754 18.1971ZM12.4222 18.5594C12.3103 18.4471 12.2109 18.3258 12.1246 18.1971L11.8754 18.3643C11.9725 18.5089 12.0841 18.6452 12.2098 18.7712L12.4222 18.5594ZM14.1243 19.2657C13.4807 19.2657 12.8767 19.0151 12.4222 18.5594L12.2098 18.7713C12.7206 19.2833 13.401 19.5657 14.1243 19.5657V19.2657ZM16.5647 19.9249C15.8247 19.4936 14.9809 19.2657 14.1243 19.2657V19.5657C14.9278 19.5657 15.7195 19.7796 16.4137 20.1841L16.5647 19.9249ZM17.3591 20.3879L16.5647 19.9249L16.4137 20.1841L17.2081 20.6471L17.3591 20.3879ZM17.5 20.4259C17.4513 20.4259 17.4027 20.4132 17.3591 20.3878L17.2081 20.6471C17.2983 20.6996 17.3991 20.7259 17.5 20.7259V20.4259ZM17.6392 20.3887C17.5962 20.4135 17.5481 20.4259 17.5 20.4259V20.7259C17.5996 20.7259 17.6994 20.7002 17.7888 20.6488L17.6392 20.3887ZM17.7796 20.1462C17.7796 20.2463 17.7261 20.3388 17.6393 20.3887L17.7888 20.6488C17.9687 20.5454 18.0796 20.3538 18.0796 20.1462H17.7796ZM17.7796 19.1623V20.1462H18.0796V19.1623H17.7796ZM16.9968 17.3114C17.4795 17.7817 17.7796 18.4375 17.7796 19.1623H18.0796C18.0796 18.3528 17.7441 17.6207 17.2061 17.0965L16.9968 17.3114ZM19.264 16.3246C18.5848 16.6905 17.8431 16.9375 17.0786 17.0557L17.1244 17.3522C17.9222 17.2289 18.6966 16.9711 19.4063 16.5887L19.264 16.3246ZM19.3776 15.9457C19.4509 16.0817 19.4 16.2513 19.264 16.3246L19.4064 16.5887C19.6882 16.4368 19.7936 16.0853 19.6418 15.8034L19.3776 15.9457ZM18.9987 15.8321C19.1347 15.7589 19.3044 15.8097 19.3776 15.9457L19.6418 15.8034C19.4899 15.5216 19.1383 15.4162 18.8565 15.568L18.9987 15.8321ZM16.2961 16.5705C17.241 16.5312 18.1702 16.2785 18.9987 15.8321L18.8564 15.568C18.0684 15.9926 17.1837 16.2333 16.2836 16.2708L16.2961 16.5705ZM19.3423 11.0294C19.2844 13.2742 18.0405 15.2297 16.2145 16.291L16.3652 16.5503C18.2774 15.439 19.5815 13.3904 19.6422 11.0371L19.3423 11.0294ZM22.1252 9.55615C21.0773 9.66418 20.101 10.1517 19.3819 10.9315L19.6025 11.1349C20.2719 10.4088 21.1808 9.9551 22.156 9.85457L22.1252 9.55615ZM22.2906 10.3229V9.70536H21.9906V10.3229H22.2906ZM21.5753 13.23C22.0433 12.3402 22.2906 11.335 22.2906 10.3229H21.9906C21.9906 11.2867 21.755 12.2439 21.3098 13.0904L21.5753 13.23ZM21.6926 13.6077C21.5559 13.5359 21.5034 13.3668 21.5753 13.23L21.3097 13.0904C21.1608 13.3737 21.2696 13.7243 21.5529 13.8733L21.6926 13.6077ZM21.8224 13.64C21.7787 13.64 21.7344 13.6297 21.6927 13.6078L21.5529 13.8732C21.6388 13.9185 21.7313 13.94 21.8224 13.94V13.64ZM22.0703 13.4904C22.0204 13.5854 21.9234 13.64 21.8224 13.64V13.94C22.0304 13.94 22.232 13.8275 22.3359 13.6301L22.0703 13.4904ZM22.85 10.3228C22.85 11.4255 22.5803 12.521 22.0703 13.4904L22.3359 13.6301C22.8686 12.6173 23.15 11.4739 23.15 10.3228H22.85ZM22.85 9.25358V10.3228H23.15V9.25358H22.85ZM22.5703 8.9739C22.7248 8.9739 22.85 9.09912 22.85 9.25358H23.15C23.15 8.93342 22.8904 8.6739 22.5703 8.6739V8.9739ZM15.0038 10.643C15.0038 8.35079 13.9199 6.20281 12.0897 4.83734L11.9103 5.0778C13.6649 6.38687 14.7038 8.44588 14.7038 10.643H15.0038ZM12.0897 16.4486C13.9199 15.0831 15.0038 12.9351 15.0038 10.643H14.7038C14.7038 12.84 13.6649 14.8991 11.9103 16.2081L12.0897 16.4486ZM8.99619 10.643C8.99619 12.9351 10.0801 15.0831 11.9103 16.4486L12.0897 16.2081C10.3351 14.8991 9.29619 12.84 9.29619 10.643H8.99619ZM11.9103 4.83734C10.0801 6.20281 8.99619 8.35079 8.99619 10.643H9.29619C9.29619 8.44588 10.3351 6.38687 12.0897 5.0778L11.9103 4.83734ZM8.43681 10.5212C8.43681 8.74212 7.10382 7.26921 5.38405 7.04824L5.34582 7.34579C6.91798 7.5478 8.13681 8.8951 8.13681 10.5212H8.43681ZM8.29207 10.3712L8.29018 10.3712L8.28345 10.6711L8.28534 10.6712L8.29207 10.3712ZM8.43788 10.5664L8.43868 10.524L8.13873 10.5184L8.13794 10.5607L8.43788 10.5664ZM8.43681 10.643C8.43681 10.6183 8.43732 10.5934 8.43788 10.5667L8.13794 10.5604C8.1374 10.5866 8.13681 10.6147 8.13681 10.643H8.43681ZM10.8844 16.3156C9.33444 14.853 8.43681 12.8079 8.43681 10.643H8.13681C8.13681 12.8913 9.06905 15.0151 10.6785 16.5338L10.8844 16.3156ZM5.21494 10.8653C5.21494 13.965 7.69661 16.4955 10.7776 16.5747L10.7853 16.2748C7.86648 16.1998 5.51494 13.8019 5.51494 10.8653H5.21494ZM5.21494 7.19701V10.8653H5.51494V7.19701H5.21494ZM1.70938 9.70532V10.3228H2.00937V9.70532H1.70938ZM4.61804 10.9315C3.89904 10.1516 2.9226 9.6641 1.87475 9.55611L1.844 9.85452C2.81912 9.95502 3.72806 10.4088 4.39747 11.1349L4.61804 10.9315ZM7.78596 16.2912C5.95971 15.2301 4.7156 13.2744 4.6577 11.0293L4.3578 11.037C4.4185 13.3906 5.72279 15.4394 7.63524 16.5506L7.78596 16.2912ZM1.70938 10.3228C1.70938 13.6847 4.37551 16.4346 7.70447 16.5708L7.71673 16.271C4.54779 16.1414 2.00937 13.523 2.00937 10.3228H1.70938ZM7.15357 19.4416C7.97903 18.9606 8.92033 18.7063 9.87567 18.7063V18.4063C8.86725 18.4063 7.87384 18.6747 7.00254 19.1824L7.15357 19.4416ZM7.00523 19.528L7.1536 19.4416L7.00251 19.1824L6.85414 19.2689L7.00523 19.528ZM6.77969 19.1623V19.3985H7.07969V19.1623H6.77969ZM8.806 17.1359C7.68856 17.1359 6.77969 18.0448 6.77969 19.1623H7.07969C7.07969 18.2105 7.85425 17.4359 8.806 17.4359V17.1359ZM11.5168 17.1359H8.806V17.4359H11.5168V17.1359ZM11.1817 18.1644C11.4174 17.9281 11.5811 17.6388 11.6621 17.3232L11.3715 17.2487C11.3039 17.5122 11.1672 17.7542 10.9693 17.9525L11.1817 18.1644ZM9.87567 18.7063C10.369 18.7063 10.8333 18.5136 11.1817 18.1644L10.9693 17.9525C10.6772 18.2454 10.2893 18.4063 9.87567 18.4063V18.7063ZM16.8464 19.4416L16.9948 19.528L17.1459 19.2689L16.9975 19.1824L16.8464 19.4416ZM14.1243 18.7063C15.0797 18.7063 16.021 18.9606 16.8464 19.4416L16.9975 19.1824C16.1262 18.6747 15.1327 18.4063 14.1243 18.4063V18.7063ZM12.8183 18.1644C13.1667 18.5136 13.631 18.7063 14.1243 18.7063V18.4063C13.7107 18.4063 13.3228 18.2454 13.0307 17.9525L12.8183 18.1644ZM12.3379 17.3232C12.4189 17.6388 12.5827 17.9281 12.8183 18.1644L13.0307 17.9525C12.8329 17.7542 12.6961 17.5122 12.6285 17.2486L12.3379 17.3232ZM15.194 17.1359H12.4832V17.4359H15.194V17.1359ZM17.2203 19.1623C17.2203 18.0448 16.3114 17.1359 15.194 17.1359V17.4359C16.1458 17.4359 16.9203 18.2105 16.9203 19.1623H17.2203ZM17.2203 19.3985V19.1623H16.9203V19.3985H17.2203ZM13.2224 16.5746C16.3034 16.4955 18.7851 13.965 18.7851 10.8653H18.4851C18.4851 13.8018 16.1335 16.1998 13.2147 16.2747L13.2224 16.5746ZM15.5632 10.643C15.5632 12.8079 14.6656 14.853 13.1156 16.3156L13.3215 16.5338C14.9309 15.015 15.8632 12.8912 15.8632 10.643H15.5632ZM15.5621 10.5639C15.5627 10.5915 15.5632 10.6173 15.5632 10.643H15.8632C15.8632 10.6137 15.8626 10.5848 15.862 10.5577L15.5621 10.5639ZM15.5621 10.5608V10.5608H15.8621V10.5608H15.5621ZM15.5613 10.5239L15.5621 10.5636L15.862 10.5579L15.8613 10.5182L15.5613 10.5239ZM15.72 10.3713L15.7181 10.3712L15.7045 10.6709L15.7064 10.671L15.72 10.3713ZM18.6159 7.04824C16.8962 7.26921 15.5632 8.74212 15.5632 10.5212H15.8632C15.8632 8.8951 17.082 7.5478 18.6542 7.34579L18.6159 7.04824ZM18.7851 10.8653V7.19701H18.4851V10.8653H18.7851ZM12 10.4557C12.1528 10.4557 12.3019 10.3938 12.4098 10.2858L12.1977 10.0737C12.1459 10.1255 12.0732 10.1557 12 10.1557V10.4557ZM11.5901 10.2858C11.6982 10.3938 11.8472 10.4557 12 10.4557V10.1557C11.9268 10.1557 11.8541 10.1255 11.8023 10.0737L11.5901 10.2858ZM11.4203 9.87598C11.4203 10.0293 11.4821 10.1779 11.5902 10.2859L11.8022 10.0737C11.7504 10.0218 11.7203 9.94953 11.7203 9.87598H11.4203ZM11.5901 9.46612C11.4821 9.57414 11.4203 9.72313 11.4203 9.87598H11.7203C11.7203 9.80281 11.7504 9.73008 11.8023 9.67825L11.5901 9.46612ZM12 9.29629C11.8472 9.29629 11.6982 9.35811 11.5901 9.46612L11.8023 9.67825C11.8541 9.62642 11.9268 9.59629 12 9.59629V9.29629ZM12.4098 9.46615C12.3019 9.3581 12.1528 9.29629 12 9.29629V9.59629C12.0732 9.59629 12.1459 9.62643 12.1977 9.67822L12.4098 9.46615ZM12.5797 9.87598C12.5797 9.72313 12.5179 9.57412 12.4098 9.46609L12.1977 9.67828C12.2496 9.7301 12.2797 9.80281 12.2797 9.87598H12.5797ZM12.4098 10.2858C12.5178 10.1778 12.5797 10.0289 12.5797 9.87598H12.2797C12.2797 9.94911 12.2495 10.0218 12.1977 10.0737L12.4098 10.2858ZM12.1977 11.814C12.1459 11.8658 12.0732 11.8959 12 11.8959V12.1959C12.1528 12.1959 12.3019 12.1341 12.4098 12.026L12.1977 11.814ZM12.2797 11.6162C12.2797 11.6893 12.2495 11.7621 12.1977 11.8139L12.4098 12.0261C12.5178 11.9181 12.5797 11.7691 12.5797 11.6162H12.2797ZM12.1977 11.4185C12.2496 11.4703 12.2797 11.543 12.2797 11.6162H12.5797C12.5797 11.4634 12.5179 11.3144 12.4098 11.2063L12.1977 11.4185ZM12 11.3365C12.0732 11.3365 12.1459 11.3667 12.1977 11.4185L12.4098 11.2064C12.3019 11.0983 12.1528 11.0365 12 11.0365V11.3365ZM11.8023 11.4185C11.8541 11.3667 11.9268 11.3365 12 11.3365V11.0365C11.8472 11.0365 11.6982 11.0983 11.5901 11.2064L11.8023 11.4185ZM11.7203 11.6162C11.7203 11.543 11.7504 11.4703 11.8023 11.4185L11.5901 11.2064C11.4821 11.3144 11.4203 11.4634 11.4203 11.6162H11.7203ZM11.8022 11.8139C11.7504 11.7621 11.7203 11.6898 11.7203 11.6162H11.4203C11.4203 11.7695 11.4821 11.9181 11.5902 12.0261L11.8022 11.8139ZM12 11.8959C11.9268 11.8959 11.8541 11.8658 11.8023 11.8139L11.5901 12.0261C11.6982 12.1341 11.8472 12.1959 12 12.1959V11.8959ZM12.1977 13.5542C12.1459 13.606 12.0732 13.6361 12 13.6361V13.9361C12.1528 13.9361 12.3019 13.8743 12.4098 13.7663L12.1977 13.5542ZM12.2797 13.3564C12.2797 13.4296 12.2495 13.5023 12.1977 13.5542L12.4098 13.7663C12.5178 13.6583 12.5797 13.5093 12.5797 13.3564H12.2797ZM12.1977 13.1588C12.2496 13.2106 12.2797 13.2833 12.2797 13.3564H12.5797C12.5797 13.2036 12.5179 13.0546 12.4098 12.9466L12.1977 13.1588ZM12 13.0768C12.0732 13.0768 12.1459 13.1069 12.1977 13.1587L12.4098 12.9466C12.3019 12.8386 12.1528 12.7768 12 12.7768V13.0768ZM11.8023 13.1587C11.8541 13.1069 11.9268 13.0768 12 13.0768V12.7768C11.8472 12.7768 11.6982 12.8386 11.5901 12.9466L11.8023 13.1587ZM11.7203 13.3564C11.7203 13.2833 11.7504 13.2106 11.8023 13.1587L11.5901 12.9466C11.4821 13.0546 11.4203 13.2036 11.4203 13.3564H11.7203ZM11.8022 13.5541C11.7504 13.5023 11.7203 13.4297 11.7203 13.3564H11.4203C11.4203 13.5093 11.4821 13.6583 11.5902 13.7663L11.8022 13.5541ZM12 13.6361C11.9268 13.6361 11.8541 13.606 11.8023 13.5542L11.5901 13.7663C11.6982 13.8743 11.8472 13.9361 12 13.9361V13.6361ZM20.6797 14.3397C20.5266 14.3397 20.3779 14.401 20.2695 14.5099L20.4822 14.7214C20.5338 14.6696 20.6058 14.6397 20.6797 14.6397V14.3397ZM21.0895 14.5096C20.981 14.4011 20.8324 14.3397 20.6797 14.3397V14.6397C20.753 14.6397 20.8252 14.6695 20.8773 14.7217L21.0895 14.5096ZM21.2589 14.9194C21.2589 14.7664 21.1977 14.6178 21.0895 14.5096L20.8774 14.7217C20.929 14.7734 20.9589 14.8456 20.9589 14.9194H21.2589ZM21.0895 15.3293C21.1978 15.221 21.2589 15.0719 21.2589 14.9194H20.9589C20.9589 14.993 20.929 15.0656 20.8774 15.1172L21.0895 15.3293ZM20.6797 15.4991C20.8328 15.4991 20.9811 15.4372 21.0892 15.3295L20.8776 15.1169C20.8251 15.1691 20.7526 15.1991 20.6797 15.1991V15.4991ZM20.2698 15.3293C20.3778 15.4372 20.5263 15.4991 20.6797 15.4991V15.1991C20.6062 15.1991 20.5338 15.169 20.482 15.1172L20.2698 15.3293ZM20.1 14.9194C20.1 15.0719 20.1612 15.2212 20.2701 15.3296L20.4817 15.1169C20.4299 15.0654 20.4 14.9929 20.4 14.9194H20.1ZM20.2701 14.5093C20.1612 14.6176 20.1 14.7664 20.1 14.9194H20.4C20.4 14.8456 20.4299 14.7735 20.4817 14.722L20.2701 14.5093Z" fill="#2D2F35"/>
</svg>
