<svg width="24" height="24" viewBox="0 0 24 24" fill="none" xmlns="http://www.w3.org/2000/svg">
<path fill-rule="evenodd" clip-rule="evenodd" d="M11.4697 1.46768C11.6104 1.32702 11.8012 1.24802 12.0001 1.24805C13.8838 1.24833 15.7343 1.7435 17.3664 2.68397C18.9903 3.61976 20.3413 4.96375 21.2855 6.58249C21.2938 6.59507 21.3019 6.60797 21.3096 6.6212C21.3183 6.63617 21.3264 6.65131 21.334 6.6666C22.2565 8.28154 22.7445 10.1086 22.7497 11.9692C22.755 13.8529 22.2653 15.7048 21.3296 17.3397C20.394 18.9745 19.0452 20.3349 17.4184 21.2844C15.7917 22.234 13.9439 22.7396 12.0603 22.7504C10.1767 22.7612 8.32327 22.277 6.68567 21.3461C5.04807 20.4153 3.68377 19.0706 2.72938 17.4466C2.62834 17.2747 2.59994 17.0696 2.65044 16.8767C2.70094 16.6838 2.82619 16.5189 2.99851 16.4185L11.25 11.6125V1.99805C11.25 1.79912 11.329 1.60833 11.4697 1.46768ZM12.75 10.7388L19.6111 6.74252C18.8322 5.61452 17.8104 4.67107 16.6174 3.98363C15.4305 3.29965 14.1092 2.88939 12.75 2.77862V10.7388ZM20.3606 8.04188L4.43061 17.3203C5.21441 18.4351 6.23678 19.3656 7.42691 20.0421C8.83603 20.843 10.4309 21.2597 12.0517 21.2504C13.6725 21.2411 15.2624 20.8061 16.6623 19.989C18.0621 19.1719 19.2227 18.0014 20.0278 16.5946C20.8329 15.1878 21.2543 13.5943 21.2497 11.9734C21.2459 10.6103 20.941 9.26825 20.3606 8.04188ZM9.09927 1.95868C9.29805 2.09925 9.41623 2.32757 9.41623 2.57104V10.072C9.41623 10.34 9.27319 10.5877 9.04103 10.7216L2.54021 14.4721C2.32928 14.5938 2.07241 14.6055 1.85129 14.5035C1.63017 14.4015 1.47232 14.1985 1.42797 13.9591C0.961463 11.4411 1.40906 8.83927 2.69019 6.62193C3.97132 4.40459 6.00184 2.71736 8.41628 1.86391C8.64583 1.78277 8.90048 1.81811 9.09927 1.95868ZM7.91623 3.69907C6.27961 4.50403 4.90949 5.77917 3.98899 7.37235C3.06855 8.96541 2.64813 10.7891 2.76807 12.6089L7.91623 9.63881V3.69907Z" fill="#2C2C2C"/>
</svg>
