<svg width="130" height="130" viewBox="0 0 130 130" fill="none" xmlns="http://www.w3.org/2000/svg">
<rect width="130" height="130" fill="white"/>
<path d="M118.42 75.84C118.43 83.2392 116.894 90.5589 113.91 97.33H16.0901C12.8945 90.0546 11.3623 82.1579 11.605 74.2154C11.8478 66.2728 13.8594 58.4844 17.4933 51.4177C21.1272 44.3511 26.2919 38.1841 32.6109 33.3662C38.93 28.5483 46.2444 25.2008 54.021 23.5676C61.7976 21.9345 69.8407 22.0568 77.564 23.9257C85.2874 25.7946 92.4966 29.363 98.6662 34.3709C104.836 39.3787 109.811 45.6999 113.228 52.8739C116.645 60.0478 118.419 67.8937 118.42 75.84Z" fill="#E7FFF4"/>
<path d="M5.54004 97.3301H126.37" stroke="#07A35D" stroke-width="1.5" stroke-miterlimit="10" stroke-linecap="round"/>
<path d="M64.9999 43.4299L33.1099 66.9299V104.69C33.1099 105.003 33.2342 105.303 33.4555 105.524C33.6768 105.746 33.9769 105.87 34.2899 105.87H95.7099C96.0228 105.87 96.323 105.746 96.5443 105.524C96.7655 105.303 96.8899 105.003 96.8899 104.69V66.9299L64.9999 43.4299Z" fill="white" stroke="#07A35D" stroke-width="1.5" stroke-linecap="round" stroke-linejoin="round"/>
<path d="M86.53 37.6799H43.46C42.9077 37.6799 42.46 38.1276 42.46 38.6799V91.8599C42.46 92.4122 42.9077 92.8599 43.46 92.8599H86.53C87.0822 92.8599 87.53 92.4122 87.53 91.8599V38.6799C87.53 38.1276 87.0822 37.6799 86.53 37.6799Z" fill="white" stroke="#07A35D" stroke-width="1.5" stroke-linecap="round" stroke-linejoin="round"/>
<path d="M73.4798 66.2799C73.4802 66.3771 73.4603 66.4733 73.4214 66.5624C73.3826 66.6515 73.3256 66.7315 73.2541 66.7973C73.1826 66.8632 73.0982 66.9134 73.0062 66.9449C72.9142 66.9763 72.8167 66.9882 72.7198 66.9799H57.2798C57.183 66.9882 57.0855 66.9763 56.9935 66.9449C56.9015 66.9134 56.8171 66.8632 56.7456 66.7973C56.6741 66.7315 56.6171 66.6515 56.5782 66.5624C56.5394 66.4733 56.5195 66.3771 56.5198 66.2799C56.4922 64.7336 56.7875 63.1986 57.3867 61.7729C57.9859 60.3472 58.8759 59.0622 59.9998 57.9999C60.1363 57.8748 60.3147 57.8054 60.4998 57.8054C60.685 57.8054 60.8634 57.8748 60.9998 57.9999C62.1251 58.9804 63.5673 59.5206 65.0598 59.5206C66.5524 59.5206 67.9946 58.9804 69.1198 57.9999C69.2563 57.8748 69.4347 57.8054 69.6198 57.8054C69.805 57.8054 69.9834 57.8748 70.1198 57.9999C71.2221 59.0726 72.0898 60.3623 72.6681 61.7875C73.2465 63.2127 73.5229 64.7424 73.4798 66.2799Z" fill="#42BA84"/>
<path d="M69.8399 53.2299C69.8398 54.1726 69.5644 55.0948 69.0475 55.8832C68.5306 56.6715 67.7947 57.2918 66.9302 57.6678C66.0656 58.0437 65.1101 58.1591 64.181 57.9995C63.2519 57.84 62.3895 57.4127 61.6999 56.7699C61.1146 56.2213 60.6749 55.5358 60.4203 54.7751C60.1656 54.0144 60.104 53.2024 60.2411 52.412C60.3781 51.6216 60.7094 50.8776 61.2053 50.247C61.7011 49.6164 62.3459 49.119 63.0817 48.7994C63.8175 48.4798 64.6211 48.3481 65.4204 48.4161C66.2197 48.4842 66.9896 48.7498 67.6608 49.1892C68.3319 49.6285 68.8834 50.2278 69.2655 50.9331C69.6476 51.6385 69.8485 52.4277 69.8499 53.2299H69.8399Z" fill="#42BA84"/>
<path d="M33.1098 66.9299L59.5198 86.3999L36.5198 105.87H33.9998C33.8777 105.87 33.7568 105.846 33.6439 105.799C33.5311 105.752 33.4286 105.684 33.3422 105.598C33.2559 105.511 33.1874 105.409 33.1406 105.296C33.0939 105.183 33.0698 105.062 33.0698 104.94L33.1098 66.9299Z" fill="#E7FFF4" stroke="#07A35D" stroke-width="1.5" stroke-linecap="round" stroke-linejoin="round"/>
<path d="M96.89 66.9299L70.48 86.3999L93.48 105.87H96C96.1221 105.87 96.243 105.846 96.3559 105.799C96.4687 105.752 96.5712 105.684 96.6576 105.598C96.7439 105.511 96.8124 105.409 96.8592 105.296C96.9059 105.183 96.93 105.062 96.93 104.94L96.89 66.9299Z" fill="#E7FFF4" stroke="#07A35D" stroke-width="1.5" stroke-linecap="round" stroke-linejoin="round"/>
<path d="M69.77 81.6599L95.16 104.33C95.2946 104.449 95.3896 104.606 95.4325 104.78C95.4753 104.954 95.4639 105.137 95.3997 105.305C95.3355 105.472 95.2216 105.616 95.0733 105.717C94.925 105.818 94.7494 105.872 94.57 105.87H35.43C35.2505 105.872 35.0749 105.818 34.9266 105.717C34.7783 105.616 34.6644 105.472 34.6002 105.305C34.536 105.137 34.5246 104.954 34.5675 104.78C34.6103 104.606 34.7054 104.449 34.84 104.33L60.23 81.6599C61.5443 80.4917 63.2415 79.8464 65 79.8464C66.7584 79.8464 68.4557 80.4917 69.77 81.6599Z" fill="#E7FFF4" stroke="#07A35D" stroke-width="1.5" stroke-linecap="round" stroke-linejoin="round"/>
<path d="M97.22 122.63C108.663 122.63 117.94 113.353 117.94 101.91C117.94 90.4666 108.663 81.1899 97.22 81.1899C85.7767 81.1899 76.5 90.4666 76.5 101.91C76.5 113.353 85.7767 122.63 97.22 122.63Z" fill="#07A35D"/>
<path d="M87.4401 103.88L94.1801 111C94.3368 111.152 94.5466 111.237 94.7651 111.237C94.9835 111.237 95.1933 111.152 95.3501 111L109.7 96.27C109.762 96.1983 109.809 96.1145 109.836 96.0238C109.864 95.9331 109.873 95.8376 109.862 95.7434C109.85 95.6493 109.819 95.5585 109.771 95.4769C109.722 95.3954 109.657 95.3249 109.58 95.27L106.45 92.59C106.307 92.4849 106.129 92.4397 105.954 92.4639C105.778 92.4882 105.619 92.5801 105.51 92.72L95.3001 103.65C95.2406 103.723 95.1667 103.783 95.0829 103.826C94.9991 103.869 94.9073 103.894 94.8132 103.9C94.7192 103.905 94.6251 103.891 94.5367 103.859C94.4484 103.826 94.3678 103.775 94.3001 103.71L90.9601 100.37C90.8964 100.301 90.8191 100.246 90.733 100.208C90.647 100.17 90.554 100.151 90.4601 100.151C90.3661 100.151 90.2732 100.17 90.1871 100.208C90.101 100.246 90.0237 100.301 89.9601 100.37L87.4501 103C87.3424 103.121 87.2822 103.276 87.2803 103.438C87.2785 103.6 87.3352 103.757 87.4401 103.88Z" fill="white"/>
<path d="M44.2798 14.6699V25.8499" stroke="#07A35D" stroke-width="1.5" stroke-linecap="round" stroke-linejoin="round"/>
<path d="M20.27 39.9399H32.35" stroke="#07A35D" stroke-width="1.5" stroke-linecap="round" stroke-linejoin="round"/>
<path d="M25.8599 20.8201L35.0399 30.0001" stroke="#07A35D" stroke-width="1.5" stroke-linecap="round" stroke-linejoin="round"/>
</svg>
